<svg xmlns="http://www.w3.org/2000/svg" width="113" height="46" fill="none" viewBox="0 0 113 46">
    <circle r="16.824" fill="#3157AC" transform="matrix(-1 0 0 1 22.294 23.26)"/>
    <path fill="#3157AC" d="M111.664 25.148l-9.581-15.469c-.263-.44-.703-.703-1.142-.703-.527 0-.967.264-1.23.703l-9.58 15.469c-.352.44-.528 1.055-.44 1.67.44 5.8 5.273 10.283 11.25 10.283 5.889 0 10.723-4.482 11.162-10.283.088-.615-.088-1.23-.439-1.67zm-10.723 9.14c-3.692 0-6.856-2.372-7.998-5.624h15.908c-1.143 3.34-4.307 5.625-7.91 5.625zm-7.998-8.437l7.998-12.744 7.91 12.744H92.943zm10.107 16.875H85.472V11.613c2.373-.615 4.219-2.813 4.219-5.45h13.359c.352 0 .703-.263.703-.703V4.054c0-.351-.351-.703-.703-.703H88.812s-.352-.967-1.67-1.846C86.263.978 85.21.54 84.066.54c-1.23 0-2.285.439-3.164.966-1.319.88-1.67 1.846-1.67 1.846h-14.15c-.44 0-.704.352-.704.703V5.46c0 .44.264.704.704.704H78.44c0 2.636 1.758 4.834 4.219 5.449v31.113H65.082c-.44 0-.704.352-.704.703v1.406c0 .44.264.704.704.704h37.968c.352 0 .703-.264.703-.704V43.43c0-.351-.351-.703-.703-.703zM81.253 6.164c0-1.495 1.23-2.813 2.813-2.813 1.494 0 2.812 1.318 2.812 2.813 0 1.582-1.318 2.812-2.812 2.812-1.582 0-2.813-1.23-2.813-2.812zm-2.9 20.654c.088-.615-.088-1.23-.44-1.67l-9.58-15.469c-.263-.44-.703-.703-1.142-.703-.527 0-.967.264-1.23.703l-9.58 15.469c-.352.44-.528 1.055-.44 1.67.44 5.8 5.273 10.283 11.25 10.283 5.889 0 10.723-4.482 11.162-10.283zM67.191 13.107L75.1 25.85H59.193l7.998-12.744zm-7.998 15.557H75.1c-1.142 3.34-4.307 5.625-7.91 5.625-3.692 0-6.856-2.373-7.998-5.625z"/>
    <path fill="#0E1931" d="M16.875 23.625c2.05 0 3.75-1.64 3.75-3.75 0-2.05-1.7-3.75-3.75-3.75-.059 0-.117.059-.176.059.059.234.176.644.176.937 0 1.524-1.29 2.813-2.813 2.813-.292 0-.703-.118-.937-.176v.117c0 2.11 1.64 3.75 3.75 3.75zm16.64-2.695c-3.163-6.211-9.492-10.43-16.64-10.43-7.207 0-13.535 4.219-16.7 10.43-.116.234-.175.586-.175.879 0 .234.059.585.176.82C3.34 28.839 9.668 33 16.875 33c7.148 0 13.477-4.16 16.64-10.371.118-.235.176-.586.176-.879 0-.234-.058-.586-.175-.82zm-16.64-8.555c4.102 0 7.5 3.398 7.5 7.5 0 4.16-3.398 7.5-7.5 7.5-4.16 0-7.5-3.34-7.5-7.5 0-4.102 3.34-7.441 7.5-7.5zm0 18.75c-6.328 0-12.07-3.574-15-9.375 1.406-2.754 4.805-6.152 7.559-7.559-1.23 1.582-1.934 3.575-1.934 5.684 0 5.215 4.16 9.375 9.375 9.375 5.156 0 9.375-4.16 9.375-9.375 0-2.11-.762-4.102-1.992-5.684 2.754 1.407 6.152 4.805 7.617 7.559-2.988 5.8-8.73 9.375-15 9.375z"/>
</svg>
