<svg xmlns="http://www.w3.org/2000/svg" width="97" height="46" fill="none" viewBox="0 0 97 46">
    <circle r="17.26" fill="#467CF6" transform="matrix(-1 0 0 1 68.95 23.089)"/>
    <path fill="#467CF6" d="M44.945 17.06l-1.758-1.845c-1.142-1.055-2.9-1.23-4.13-.44L31.85 7.568c.79-1.23.615-2.988-.44-4.13L29.564 1.68C28.246.36 26.137.36 24.819 1.68l-9.931 9.931c-1.319 1.319-1.319 3.428 0 4.746l1.758 1.758c1.142 1.143 2.9 1.319 4.13.528l2.637 2.548-5.185 5.186-.704-.703c-1.494-1.494-3.867-1.494-5.36 0L2.054 35.78c-1.494 1.494-1.494 3.867 0 5.362l3.427 3.427c1.495 1.495 3.868 1.495 5.362 0L20.95 34.463c1.494-1.494 1.494-3.867 0-5.361l-.703-.704 5.186-5.185 2.548 2.637c-.79 1.23-.615 2.988.528 4.13l1.758 1.758c1.318 1.319 3.427 1.319 4.746 0l9.931-9.931c1.319-1.319 1.319-3.428 0-4.746zM18.93 32.53L8.91 42.548c-.44.44-1.055.44-1.406 0L4.076 39.12c-.44-.352-.44-.967 0-1.406l10.02-10.02c.44-.44 1.054-.44 1.406 0l3.428 3.428c.44.352.44.967 0 1.406zm24.082-12.745l-10.02 10.02c-.088.088-.264.088-.351.088-.088 0-.264 0-.352-.088l-1.846-1.846c-.088-.088-.088-.264-.088-.352 0-.175 0-.263.088-.351l1.494-1.494-11.074-11.075-1.494 1.495c-.088.088-.176.088-.351.088-.088 0-.264 0-.352-.088l-1.846-1.846c-.088-.088-.088-.264-.088-.352 0-.088 0-.263.088-.351l10.02-10.02c.088-.088.264-.088.351-.088.088 0 .264 0 .352.088l1.846 1.846c.088.088.175.264.175.352 0 .087-.087.263-.175.351l-1.494 1.494 11.074 11.075 1.494-1.495c.088-.088.264-.175.352-.175.087 0 .263.087.351.175l1.846 1.846c.088.088.175.264.175.352 0 .087-.087.263-.175.351z"/>
    <path fill="#B5CBFB" d="M79.317 25.49c2.051 0 3.75-1.64 3.75-3.75 0-2.05-1.699-3.75-3.75-3.75-.058 0-.117.059-.175.059.058.234.175.644.175.937 0 1.524-1.289 2.813-2.812 2.813-.293 0-.703-.117-.938-.176v.117c0 2.11 1.641 3.75 3.75 3.75zm16.641-2.695c-3.164-6.211-9.492-10.43-16.64-10.43-7.208 0-13.536 4.219-16.7 10.43-.117.234-.176.586-.176.879 0 .234.059.586.176.82 3.164 6.211 9.492 10.371 16.7 10.371 7.148 0 13.476-4.16 16.64-10.37.117-.235.176-.587.176-.88 0-.234-.059-.586-.176-.82zm-16.64-8.555c4.1 0 7.5 3.399 7.5 7.5 0 4.16-3.4 7.5-7.5 7.5-4.16 0-7.5-3.34-7.5-7.5 0-4.101 3.34-7.441 7.5-7.5zm0 18.75c-6.329 0-12.07-3.574-15-9.375 1.406-2.754 4.804-6.152 7.558-7.558-1.23 1.582-1.934 3.574-1.934 5.683 0 5.215 4.16 9.375 9.375 9.375 5.157 0 9.375-4.16 9.375-9.375 0-2.11-.761-4.101-1.992-5.683 2.754 1.406 6.153 4.804 7.617 7.558-2.988 5.801-8.73 9.375-15 9.375z"/>
</svg>
