<svg xmlns="http://www.w3.org/2000/svg" width="123" height="49" fill="none" viewBox="0 0 123 49">
    <circle r="19.945" fill="#3157AC" transform="matrix(-1 0 0 1 26.43 25.92)"/>
    <path fill="#3157AC" d="M122.042 28.218l-9.58-15.469c-.264-.44-.703-.703-1.143-.703-.527 0-.966.264-1.23.703l-9.58 15.469c-.352.44-.528 1.055-.44 1.67.44 5.8 5.274 10.283 11.25 10.283 5.889 0 10.723-4.483 11.162-10.283.088-.616-.087-1.23-.439-1.67zm-10.723 9.14c-3.691 0-6.855-2.373-7.998-5.625h15.908c-1.142 3.34-4.306 5.625-7.91 5.625zm-7.998-8.437l7.998-12.744 7.91 12.744h-15.908zm10.108 16.875H95.851V14.683c2.373-.616 4.218-2.813 4.218-5.45h13.36c.351 0 .703-.263.703-.703V7.124c0-.352-.352-.703-.703-.703H99.19s-.351-.967-1.67-1.846c-.878-.527-1.933-.967-3.076-.967-1.23 0-2.285.44-3.164.967-1.318.88-1.67 1.846-1.67 1.846H75.46c-.44 0-.703.351-.703.703V8.53c0 .44.263.703.703.703h13.36c0 2.637 1.757 4.834 4.218 5.45v31.113H75.46c-.44 0-.703.352-.703.703v1.406c0 .44.263.703.703.703h37.969c.351 0 .703-.263.703-.703V46.5c0-.352-.352-.703-.703-.703zM91.632 9.233c0-1.494 1.23-2.812 2.812-2.812 1.495 0 2.813 1.318 2.813 2.812 0 1.582-1.319 2.813-2.813 2.813-1.582 0-2.812-1.23-2.812-2.813zm-2.9 20.655c.087-.616-.088-1.23-.44-1.67l-9.58-15.469c-.264-.44-.703-.703-1.143-.703-.527 0-.966.264-1.23.703l-9.58 15.469c-.352.44-.528 1.055-.44 1.67.44 5.8 5.274 10.283 11.25 10.283 5.889 0 10.723-4.483 11.162-10.283zM77.568 16.177l7.91 12.744H69.572l7.998-12.744zm-7.998 15.556H85.48c-1.143 3.34-4.307 5.625-7.91 5.625-3.692 0-6.856-2.373-7.999-5.625z"/>
    <path fill="#0E1931" d="M16.875 25.34c2.05 0 3.75-1.64 3.75-3.75 0-2.05-1.7-3.75-3.75-3.75-.059 0-.117.058-.176.058.059.235.176.645.176.938 0 1.523-1.29 2.812-2.813 2.812-.292 0-.703-.117-.937-.175v.117c0 2.11 1.64 3.75 3.75 3.75zm16.64-2.695c-3.163-6.211-9.492-10.43-16.64-10.43-7.207 0-13.535 4.219-16.7 10.43-.116.234-.175.585-.175.878 0 .235.059.586.176.82 3.164 6.212 9.492 10.372 16.699 10.372 7.148 0 13.477-4.16 16.64-10.371.118-.235.176-.586.176-.88 0-.233-.058-.585-.175-.82zm-16.64-8.555c4.102 0 7.5 3.398 7.5 7.5 0 4.16-3.398 7.5-7.5 7.5-4.16 0-7.5-3.34-7.5-7.5 0-4.102 3.34-7.442 7.5-7.5zm0 18.75c-6.328 0-12.07-3.574-15-9.375 1.406-2.754 4.805-6.152 7.559-7.559C8.204 17.488 7.5 19.48 7.5 21.59c0 5.215 4.16 9.375 9.375 9.375 5.156 0 9.375-4.16 9.375-9.375 0-2.11-.762-4.102-1.992-5.684 2.754 1.406 6.152 4.805 7.617 7.559-2.988 5.8-8.73 9.375-15 9.375z"/>
</svg>
