<svg xmlns="http://www.w3.org/2000/svg" width="106" height="48" fill="none" viewBox="0 0 106 48">
    <circle r="19.945" fill="#467CF6" transform="matrix(-1 0 0 1 79.52 23.928)"/>
    <path fill="#467CF6" d="M44.945 17.775l-1.758-1.845c-1.142-1.055-2.9-1.23-4.13-.44L31.85 8.283c.79-1.23.615-2.988-.44-4.13l-1.846-1.758c-1.318-1.319-3.427-1.319-4.746 0l-9.931 9.931c-1.319 1.319-1.319 3.428 0 4.746l1.758 1.758c1.142 1.143 2.9 1.318 4.13.527l2.637 2.55-5.185 5.185-.704-.703c-1.494-1.494-3.867-1.494-5.36 0L2.054 36.496c-1.494 1.494-1.494 3.867 0 5.361l3.427 3.428c1.495 1.494 3.868 1.494 5.362 0L20.95 35.178c1.494-1.494 1.494-3.867 0-5.362l-.703-.703 5.186-5.185 2.548 2.636c-.79 1.23-.615 2.989.528 4.131l1.758 1.758c1.318 1.319 3.427 1.319 4.746 0l9.931-9.932c1.319-1.318 1.319-3.427 0-4.746zM18.93 33.245L8.91 43.263c-.44.44-1.055.44-1.406 0l-3.428-3.428c-.44-.352-.44-.967 0-1.406l10.02-10.02c.44-.44 1.054-.44 1.406 0l3.428 3.428c.44.352.44.967 0 1.406zM43.012 20.5l-10.02 10.02c-.088.087-.264.087-.351.087-.088 0-.264 0-.352-.087l-1.846-1.846c-.088-.088-.088-.264-.088-.352 0-.175 0-.263.088-.351l1.494-1.494-11.074-11.075-1.494 1.495c-.088.087-.176.087-.351.087-.088 0-.264 0-.352-.088l-1.846-1.845c-.088-.088-.088-.264-.088-.352 0-.088 0-.264.088-.351l10.02-10.02c.088-.088.264-.088.351-.088.088 0 .264 0 .352.088l1.846 1.846c.088.088.175.263.175.351 0 .088-.087.264-.175.352l-1.494 1.494 11.074 11.074 1.494-1.494c.088-.088.264-.176.352-.176.087 0 .263.088.351.176l1.846 1.846c.088.088.175.264.175.351 0 .088-.087.264-.175.352z"/>
    <path fill="#B5CBFB" d="M88.875 26.34c2.05 0 3.75-1.64 3.75-3.75 0-2.05-1.7-3.75-3.75-3.75-.059 0-.117.058-.176.058.059.235.176.645.176.938 0 1.523-1.29 2.812-2.813 2.812-.293 0-.703-.117-.937-.175v.117c0 2.11 1.64 3.75 3.75 3.75zm16.641-2.695c-3.164-6.211-9.493-10.43-16.641-10.43-7.207 0-13.535 4.219-16.7 10.43-.116.234-.175.585-.175.878 0 .235.059.586.176.82 3.164 6.212 9.492 10.372 16.699 10.372 7.148 0 13.477-4.16 16.641-10.371.117-.235.175-.586.175-.88 0-.233-.058-.585-.175-.82zM88.875 15.09c4.102 0 7.5 3.398 7.5 7.5 0 4.16-3.398 7.5-7.5 7.5-4.16 0-7.5-3.34-7.5-7.5 0-4.102 3.34-7.442 7.5-7.5zm0 18.75c-6.328 0-12.07-3.574-15-9.375 1.406-2.754 4.805-6.152 7.559-7.559-1.23 1.582-1.934 3.575-1.934 5.684 0 5.215 4.16 9.375 9.375 9.375 5.156 0 9.375-4.16 9.375-9.375 0-2.11-.762-4.102-1.992-5.684 2.754 1.407 6.152 4.805 7.617 7.559-2.988 5.8-8.73 9.375-15 9.375z"/>
</svg>
