<svg width="300" height="97" viewBox="0 0 300 97" fill="none" xmlns="http://www.w3.org/2000/svg">
<path d="M190.829 0.850483L185.84 29.0326C185.395 31.535 184.28 33.5667 182.498 35.1267C180.715 36.6876 178.486 37.4662 175.813 37.4662C173.377 37.4662 171.501 36.8231 170.182 35.5377C168.861 34.2524 168.201 32.4443 168.201 30.1133C168.201 29.3925 168.287 28.5524 168.459 27.5919H170.773C170.635 28.2786 170.567 29.0155 170.567 29.8036C170.567 31.5189 171.012 32.8734 171.905 33.866C172.795 34.8615 174.201 35.3587 176.121 35.3587C178.349 35.3587 180.064 34.7402 181.264 33.507C182.464 32.2729 183.218 30.7811 183.526 29.0326L188.515 0.850483H190.829Z" fill="#8B59A0"/>
<path d="M221.274 9.18167L216.285 37.1061H213.972L215.257 29.8035C214.091 32.375 212.429 34.33 210.269 35.6664C208.109 37.0038 205.76 37.6725 203.223 37.6725C200.411 37.6725 198.166 36.9091 196.486 35.3832C194.806 33.8592 193.966 31.587 193.966 28.5702C193.966 27.6098 194.069 26.5641 194.276 25.4323L197.206 9.18167H199.469L196.589 25.3821C196.417 26.4789 196.332 27.3872 196.332 28.1061C196.332 30.5754 197.026 32.4517 198.415 33.738C199.803 35.0233 201.732 35.6664 204.2 35.6664C207.251 35.6664 209.857 34.6814 212.017 32.7094C214.177 30.7383 215.599 27.8324 216.285 23.9935L218.908 9.18167H221.274Z" fill="#8B59A0"/>
<path d="M243.411 11.1621C245.109 12.7221 245.905 14.856 245.802 17.565H243.54C243.643 15.5768 243.042 13.9221 241.74 12.6027C240.436 11.2824 238.431 10.6222 235.723 10.6222C233.597 10.6222 231.908 11.1706 230.658 12.2674C229.406 13.3652 228.78 14.7869 228.78 16.5363C228.78 17.6331 229.089 18.5244 229.706 19.2102C230.323 19.8969 231.086 20.4273 231.994 20.8043C232.903 21.1822 234.145 21.5942 235.723 22.0384C237.54 22.5527 238.997 23.0595 240.094 23.5558C241.191 24.0531 242.126 24.7634 242.897 25.6898C243.668 26.6152 244.055 27.8493 244.055 29.3923C244.055 29.701 243.984 30.3356 243.848 31.2951C243.505 33.1468 242.545 34.6377 240.969 35.7686C239.391 36.9014 237.351 37.4659 234.849 37.4659C231.488 37.4659 228.857 36.6874 226.954 35.1264C225.052 33.5664 224.153 31.4325 224.255 28.7245H226.569C226.397 30.7136 227.04 32.3673 228.497 33.6867C229.954 35.0071 232.174 35.6663 235.158 35.6663C236.939 35.6663 238.406 35.2477 239.555 34.4066C240.703 33.5664 241.397 32.4781 241.637 31.1417C241.706 30.8329 241.74 30.3877 241.74 29.8043C241.74 28.5701 241.405 27.5595 240.738 26.7705C240.069 25.9815 239.246 25.3819 238.268 24.9699C237.292 24.5589 235.997 24.1298 234.386 23.6846C232.637 23.1703 231.256 22.6901 230.247 22.244C229.234 21.7988 228.369 21.1472 227.649 20.29C226.929 19.4328 226.569 18.3018 226.569 16.8962C226.569 16.3819 226.62 15.8155 226.723 15.1989C227.066 13.2449 228.061 11.6944 229.706 10.5455C231.352 9.39655 233.442 8.82162 235.98 8.82162C239.237 8.82162 241.714 9.60304 243.411 11.1621Z" fill="#8B59A0"/>
<path d="M265.962 30.8843V37.1063H262.157C258.968 37.1063 256.526 36.3353 254.828 34.7923C253.131 33.2494 252.282 30.6778 252.282 27.0776V14.736H248.322V8.61633H252.282V1.57128H259.534V8.61633H265.91V14.736H259.534V27.1818C259.534 28.5524 259.808 29.5137 260.357 30.0612C260.904 30.6096 261.831 30.8843 263.134 30.8843H265.962Z" fill="#00B1AF"/>
<path d="M279.126 16.7933C277.754 18.2681 277.069 20.2893 277.069 22.8609C277.069 25.4325 277.754 27.4471 279.126 28.9038C280.496 30.3615 282.314 31.0899 284.577 31.0899C286.771 31.0899 288.58 30.3445 290.002 28.8527C291.425 27.3609 292.136 25.3643 292.136 22.8609C292.136 20.3253 291.425 18.3107 290.002 16.8189C288.58 15.3271 286.771 14.5817 284.577 14.5817C282.314 14.5817 280.496 15.3195 279.126 16.7933ZM288.486 9.95285C290.199 11.0847 291.417 12.6106 292.136 14.5296V8.61639H299.337V37.1063H292.136V31.141C291.417 33.0619 290.199 34.5954 288.486 35.7443C286.771 36.8932 284.713 37.4662 282.314 37.4662C279.914 37.4662 277.754 36.8837 275.835 35.7178C273.915 34.5528 272.415 32.8639 271.335 30.6523C270.255 28.4416 269.715 25.8445 269.715 22.8609C269.715 19.8792 270.255 17.2821 271.335 15.0704C272.415 12.8597 273.915 11.17 275.835 10.0049C277.754 8.83992 279.914 8.25647 282.314 8.25647C284.713 8.25647 286.771 8.82193 288.486 9.95285Z" fill="#00B1AF"/>
<path d="M73.3288 95.9272V93.0611C96.6851 93.0611 115.685 75.027 115.685 52.8613C115.685 30.7449 96.8452 12.7515 73.6869 12.7515C73.5599 12.7534 59.5163 13.0196 49.8258 23.2386C43.3348 30.0819 40.1911 39.8046 40.4725 52.1538H71.1115V55.0218H39.0849C38.3167 55.0218 37.6849 54.4156 37.6527 53.6484C37.0655 39.8254 40.4696 28.9206 47.7704 21.2391C58.319 10.1402 73.0523 9.8901 73.6755 9.88441C98.426 9.88441 118.552 29.1641 118.552 52.8613C118.552 76.6088 98.2659 95.9272 73.3288 95.9272Z" fill="#8B59A0"/>
<path d="M89.261 48.4735C87.1327 48.4735 85.4022 50.205 85.4022 52.3314C85.4022 54.4597 87.1327 56.1901 89.261 56.1901C91.3893 56.1901 93.1198 54.4597 93.1198 52.3314C93.1198 50.205 91.3893 48.4735 89.261 48.4735ZM89.261 59.0582C85.5519 59.0582 82.5352 56.0405 82.5352 52.3314C82.5352 48.6232 85.5519 45.6074 89.261 45.6074C92.9701 45.6074 95.9869 48.6232 95.9869 52.3314C95.9869 56.0405 92.9701 59.0582 89.261 59.0582Z" fill="#00B1AF"/>
<path d="M3.3935 52.6988C28.001 79.5719 53.1417 93.2225 78.1318 93.2718H78.2673C114.476 93.2718 140.88 64.3073 149.565 54.7807C150.333 53.9387 150.981 53.2273 151.518 52.6619C124.698 25.318 97.9722 11.9052 72.1041 12.7567C36.2328 13.9548 12.5413 41.9162 4.75553 51.1047C4.18344 51.7801 3.7449 52.2982 3.3935 52.6988ZM78.2692 96.1417H78.1262C51.9909 96.0906 25.8291 81.7902 0.371076 53.6394C0.107763 53.3495 -0.023894 52.9631 0.00357398 52.5728C0.0319891 52.1817 0.218582 51.8189 0.520729 51.5698C0.795408 51.3415 1.65733 50.3252 2.56946 49.2483C10.5579 39.8201 34.868 11.1275 72.0084 9.88862C99.0321 8.99828 126.825 23.0448 154.565 51.6768C154.837 51.9581 154.981 52.337 154.967 52.7282C154.954 53.1184 154.781 53.4869 154.49 53.7464C153.944 54.2342 152.946 55.3291 151.682 56.7148C146.921 61.9385 138.057 71.6612 125.565 80.2368C110.194 90.7912 94.2811 96.1417 78.2692 96.1417Z" fill="#8B59A0"/>
<path d="M172.984 66.8416C172.984 66.459 172.877 66.1663 172.664 65.9655C172.45 65.7647 172.107 65.6643 171.635 65.6643H170.544V68.0085H171.635C172.534 68.0085 172.984 67.6192 172.984 66.8416ZM170.544 68.8989V71.5206H169.453V64.7645H171.75C172.529 64.7645 173.114 64.9501 173.506 65.3205C173.898 65.6899 174.094 66.1966 174.094 66.8416C174.094 67.4791 173.893 67.982 173.492 68.3486C173.089 68.7161 172.51 68.8989 171.75 68.8989H170.544Z" fill="black"/>
<path d="M176.142 71.5214H175.051V64.4394H176.142V71.5214Z" fill="black"/>
<path d="M178.75 67.6019C178.459 67.9116 178.314 68.3369 178.314 68.8796C178.314 69.4224 178.459 69.8476 178.75 70.1574C179.04 70.4661 179.428 70.6215 179.913 70.6215C180.219 70.6215 180.492 70.5495 180.736 70.4065C180.978 70.2625 181.17 70.0607 181.31 69.7984C181.45 69.537 181.52 69.231 181.52 68.8796C181.52 68.5349 181.45 68.2308 181.31 67.9656C181.17 67.7004 180.978 67.4968 180.736 67.3528C180.492 67.2098 180.219 67.1378 179.913 67.1378C179.428 67.1378 179.04 67.2931 178.75 67.6019ZM180.802 66.5354C181.14 66.7712 181.38 67.0838 181.52 67.4721V66.2474H182.611V71.5213H181.52V70.2966C181.38 70.6849 181.14 70.9984 180.802 71.2343C180.464 71.4701 180.056 71.5876 179.577 71.5876C179.118 71.5876 178.708 71.4796 178.348 71.2627C177.987 71.0458 177.705 70.7332 177.501 70.325C177.297 69.9158 177.194 69.4347 177.194 68.8796C177.194 68.3312 177.297 67.8529 177.501 67.4437C177.705 67.0355 177.987 66.7229 178.348 66.507C178.708 66.2891 179.118 66.1811 179.577 66.1811C180.056 66.1811 180.464 66.2986 180.802 66.5354Z" fill="black"/>
<path d="M186.573 70.5738V71.521H185.903C185.342 71.521 184.916 71.3856 184.626 71.1137C184.335 70.8428 184.19 70.392 184.19 69.7602V67.1763H183.435V66.2481H184.19V64.9372H185.291V66.2481H186.564V67.1763H185.291V69.7792C185.291 70.0794 185.347 70.2859 185.459 70.4005C185.569 70.516 185.766 70.5738 186.047 70.5738H186.573Z" fill="black"/>
<path d="M188.884 67.6019C188.594 67.9116 188.449 68.3369 188.449 68.8796C188.449 69.4224 188.594 69.8476 188.884 70.1574C189.175 70.4661 189.563 70.6215 190.047 70.6215C190.353 70.6215 190.627 70.5495 190.871 70.4065C191.113 70.2625 191.304 70.0607 191.445 69.7984C191.585 69.537 191.655 69.231 191.655 68.8796C191.655 68.5349 191.585 68.2308 191.445 67.9656C191.304 67.7004 191.113 67.4968 190.871 67.3528C190.627 67.2098 190.353 67.1378 190.047 67.1378C189.563 67.1378 189.175 67.2931 188.884 67.6019ZM190.937 66.5354C191.275 66.7712 191.515 67.0838 191.655 67.4721V66.2474H192.746V71.5213H191.655V70.2966C191.515 70.6849 191.275 70.9984 190.937 71.2343C190.599 71.4701 190.191 71.5876 189.712 71.5876C189.253 71.5876 188.843 71.4796 188.483 71.2627C188.122 71.0458 187.84 70.7332 187.636 70.325C187.431 69.9158 187.329 69.4347 187.329 68.8796C187.329 68.3312 187.431 67.8529 187.636 67.4437C187.84 67.0355 188.122 66.7229 188.483 66.507C188.843 66.2891 189.253 66.1811 189.712 66.1811C190.191 66.1811 190.599 66.2986 190.937 66.5354Z" fill="black"/>
<path d="M195.617 65.3626C195.445 65.5189 195.359 65.7851 195.359 66.162V66.2482H196.517V67.1859H195.359V71.5211H194.258V67.1859H193.54V66.2482H194.258V66.0758C194.258 65.4308 194.446 64.9487 194.823 64.6257C195.199 64.3037 195.764 64.1616 196.517 64.1995V65.1571C196.089 65.1381 195.79 65.2063 195.617 65.3626Z" fill="black"/>
<path d="M199.033 67.3198C198.797 67.4476 198.606 67.6437 198.463 67.908C198.32 68.1732 198.247 68.4971 198.247 68.8788C198.247 69.269 198.32 69.5939 198.463 69.8563C198.606 70.1177 198.797 70.3119 199.033 70.4397C199.269 70.5676 199.527 70.6311 199.807 70.6311C200.089 70.6311 200.347 70.5676 200.583 70.4397C200.819 70.3119 201.008 70.1177 201.152 69.8563C201.296 69.5939 201.367 69.269 201.367 68.8788C201.367 68.4971 201.296 68.1732 201.152 67.908C201.008 67.6437 200.819 67.4476 200.583 67.3198C200.347 67.1919 200.089 67.1284 199.807 67.1284C199.527 67.1284 199.269 67.1919 199.033 67.3198ZM201.186 66.5071C201.595 66.723 201.914 67.0356 202.143 67.4438C202.372 67.8521 202.487 68.3304 202.487 68.8788C202.487 69.4338 202.372 69.916 202.143 70.3251C201.914 70.7334 201.595 71.0459 201.186 71.2628C200.777 71.4797 200.318 71.5877 199.807 71.5877C199.298 71.5877 198.839 71.4797 198.435 71.2628C198.03 71.0459 197.71 70.7315 197.477 70.3204C197.244 69.9084 197.128 69.4291 197.128 68.8788C197.128 68.3304 197.244 67.8521 197.477 67.4438C197.71 67.0356 198.03 66.723 198.435 66.5071C198.839 66.2892 199.298 66.1813 199.807 66.1813C200.318 66.1813 200.777 66.2892 201.186 66.5071Z" fill="black"/>
<path d="M205.397 66.4633C205.729 66.2625 206.112 66.1621 206.545 66.1621V67.3489H206.221C205.742 67.3489 205.358 67.4654 205.067 67.6984C204.777 67.9305 204.632 68.315 204.632 68.8511V71.5212H203.541V66.2473H204.632V67.2816C204.81 66.9369 205.066 66.6641 205.397 66.4633Z" fill="black"/>
<path d="M215.45 66.7556C215.823 67.1506 216.01 67.716 216.01 68.4491V71.5208H214.919V68.5637C214.919 68.1044 214.804 67.7492 214.574 67.4963C214.345 67.2453 214.029 67.1193 213.627 67.1193C213.2 67.1193 212.86 67.2538 212.608 67.5247C212.356 67.7975 212.23 68.1944 212.23 68.7172V71.5208H211.139V68.5637C211.139 68.1044 211.024 67.7492 210.794 67.4963C210.565 67.2453 210.248 67.1193 209.847 67.1193C209.419 67.1193 209.079 67.2538 208.827 67.5247C208.576 67.7975 208.45 68.1944 208.45 68.7172V71.5208H207.358V66.2479H208.45V67.3485C208.583 66.9659 208.807 66.6722 209.119 66.4677C209.432 66.2631 209.798 66.1617 210.22 66.1617C210.66 66.1617 211.041 66.2697 211.364 66.4876C211.685 66.7035 211.92 67.0161 212.067 67.4252C212.22 67.0293 212.466 66.7206 212.804 66.497C213.142 66.2735 213.524 66.1617 213.952 66.1617C214.578 66.1617 215.076 66.3597 215.45 66.7556Z" fill="black"/>
<path d="M218.57 67.6019C218.279 67.9116 218.134 68.3369 218.134 68.8796C218.134 69.4224 218.279 69.8476 218.57 70.1574C218.861 70.4661 219.248 70.6215 219.733 70.6215C220.039 70.6215 220.313 70.5495 220.556 70.4065C220.799 70.2625 220.99 70.0607 221.13 69.7984C221.27 69.537 221.34 69.231 221.34 68.8796C221.34 68.5349 221.27 68.2308 221.13 67.9656C220.99 67.7004 220.799 67.4968 220.556 67.3528C220.313 67.2098 220.039 67.1378 219.733 67.1378C219.248 67.1378 218.861 67.2931 218.57 67.6019ZM220.622 66.5354C220.961 66.7712 221.2 67.0838 221.34 67.4721V66.2474H222.432V71.5213H221.34V70.2966C221.2 70.6849 220.961 70.9984 220.622 71.2343C220.284 71.4701 219.876 71.5876 219.398 71.5876C218.938 71.5876 218.528 71.4796 218.168 71.2627C217.807 71.0458 217.525 70.7332 217.322 70.325C217.117 69.9158 217.015 69.4347 217.015 68.8796C217.015 68.3312 217.117 67.8529 217.322 67.4437C217.525 67.0355 217.807 66.7229 218.168 66.507C218.528 66.2891 218.938 66.1811 219.398 66.1811C219.876 66.1811 220.284 66.2986 220.622 66.5354Z" fill="black"/>
<path d="M227.848 67.353C227.606 67.4961 227.415 67.7006 227.274 67.9649C227.134 68.2311 227.063 68.5351 227.063 68.8789C227.063 69.2303 227.134 69.5372 227.274 69.7986C227.415 70.06 227.606 70.2618 227.848 70.4067C228.091 70.5497 228.365 70.6208 228.671 70.6208C229.156 70.6208 229.546 70.4664 229.839 70.1576C230.132 69.8479 230.279 69.4226 230.279 68.8789C230.279 68.3438 230.132 67.9194 229.839 67.6069C229.546 67.2943 229.156 67.1371 228.671 67.1371C228.365 67.1371 228.091 67.21 227.848 67.353ZM230.236 66.5063C230.596 66.7232 230.878 67.0357 231.083 67.444C231.287 67.8522 231.389 68.3305 231.389 68.8789C231.389 69.434 231.287 69.9161 231.083 70.3253C230.878 70.7325 230.596 71.0451 230.236 71.2629C229.875 71.4789 229.466 71.5878 229.007 71.5878C228.527 71.5878 228.119 71.4704 227.781 71.2345C227.443 70.9987 227.207 70.6852 227.074 70.2959V74.0287H225.982V66.2477H227.074V67.4724C227.207 67.084 227.443 66.7715 227.781 66.5356C228.119 66.2988 228.527 66.1814 229.007 66.1814C229.466 66.1814 229.875 66.2894 230.236 66.5063Z" fill="black"/>
<path d="M234.079 67.3198C233.843 67.4476 233.652 67.6437 233.509 67.908C233.366 68.1732 233.293 68.4971 233.293 68.8788C233.293 69.269 233.366 69.5939 233.509 69.8563C233.652 70.1177 233.843 70.3119 234.079 70.4397C234.314 70.5676 234.573 70.6311 234.853 70.6311C235.135 70.6311 235.393 70.5676 235.629 70.4397C235.865 70.3119 236.054 70.1177 236.198 69.8563C236.342 69.5939 236.413 69.269 236.413 68.8788C236.413 68.4971 236.342 68.1732 236.198 67.908C236.054 67.6437 235.865 67.4476 235.629 67.3198C235.393 67.1919 235.135 67.1284 234.853 67.1284C234.573 67.1284 234.314 67.1919 234.079 67.3198ZM236.232 66.5071C236.641 66.723 236.96 67.0356 237.189 67.4438C237.418 67.8521 237.533 68.3304 237.533 68.8788C237.533 69.4338 237.418 69.916 237.189 70.3251C236.96 70.7334 236.641 71.0459 236.232 71.2628C235.823 71.4797 235.364 71.5877 234.853 71.5877C234.344 71.5877 233.885 71.4797 233.481 71.2628C233.076 71.0459 232.756 70.7315 232.523 70.3204C232.29 69.9084 232.174 69.4291 232.174 68.8788C232.174 68.3304 232.29 67.8521 232.523 67.4438C232.756 67.0356 233.076 66.723 233.481 66.5071C233.885 66.2892 234.344 66.1813 234.853 66.1813C235.364 66.1813 235.823 66.2892 236.232 66.5071Z" fill="black"/>
<path d="M240.442 66.4633C240.774 66.2625 241.157 66.1621 241.59 66.1621V67.3489H241.265C240.787 67.3489 240.403 67.4654 240.112 67.6984C239.822 67.9305 239.677 68.315 239.677 68.8511V71.5212H238.586V66.2473H239.677V67.2816C239.855 66.9369 240.111 66.6641 240.442 66.4633Z" fill="black"/>
<path d="M249.505 66.2479V71.5208H248.405V70.3718C248.27 70.7621 248.038 71.0633 247.706 71.2773C247.374 71.4904 246.989 71.5975 246.548 71.5975C245.936 71.5975 245.444 71.3995 245.075 71.0036C244.704 70.6086 244.52 70.0441 244.52 69.3101V66.2479H245.611V69.1955C245.611 69.6738 245.732 70.0422 245.973 70.3008C246.216 70.5594 246.548 70.6882 246.969 70.6882C247.403 70.6882 247.75 70.548 248.013 70.2676C248.274 69.9863 248.405 69.5791 248.405 69.042V66.2479H249.505Z" fill="black"/>
<path d="M255.238 66.7556C255.608 67.1506 255.793 67.716 255.793 68.4491V71.5208H254.702V68.5637C254.702 68.0921 254.58 67.7264 254.338 67.4679C254.096 67.2093 253.764 67.0805 253.343 67.0805C252.909 67.0805 252.561 67.2188 252.3 67.4963C252.038 67.7738 251.908 68.1811 251.908 68.7172V71.5208H250.816V66.2479H251.908V67.4063C252.048 67.0104 252.284 66.7035 252.615 66.4876C252.948 66.2697 253.33 66.1617 253.764 66.1617C254.376 66.1617 254.867 66.3597 255.238 66.7556Z" fill="black"/>
<path d="M258.352 67.6019C258.061 67.9116 257.916 68.3369 257.916 68.8796C257.916 69.4224 258.061 69.8476 258.352 70.1574C258.643 70.4661 259.03 70.6215 259.515 70.6215C259.821 70.6215 260.095 70.5495 260.338 70.4065C260.581 70.2625 260.772 70.0607 260.912 69.7984C261.053 69.537 261.123 69.231 261.123 68.8796C261.123 68.5349 261.053 68.2308 260.912 67.9656C260.772 67.7004 260.581 67.4968 260.338 67.3528C260.095 67.2098 259.821 67.1378 259.515 67.1378C259.03 67.1378 258.643 67.2931 258.352 67.6019ZM260.405 66.5354C260.743 66.7712 260.982 67.0838 261.123 67.4721V66.2474H262.214V71.5213H261.123V70.2966C260.982 70.6849 260.743 70.9984 260.405 71.2343C260.067 71.4701 259.658 71.5876 259.18 71.5876C258.721 71.5876 258.31 71.4796 257.951 71.2627C257.59 71.0458 257.307 70.7332 257.104 70.325C256.899 69.9158 256.797 69.4347 256.797 68.8796C256.797 68.3312 256.899 67.8529 257.104 67.4437C257.307 67.0355 257.59 66.7229 257.951 66.507C258.31 66.2891 258.721 66.1811 259.18 66.1811C259.658 66.1811 260.067 66.2986 260.405 66.5354Z" fill="black"/>
<path d="M265.845 65.1665C265.715 65.0519 265.648 64.9022 265.648 64.7166C265.648 64.5319 265.715 64.3784 265.845 64.2572C265.976 64.136 266.147 64.0763 266.358 64.0763C266.568 64.0763 266.737 64.136 266.864 64.2572C266.991 64.3784 267.056 64.5319 267.056 64.7166C267.056 64.9022 266.991 65.0519 266.864 65.1665C266.737 65.2811 266.568 65.3389 266.358 65.3389C266.147 65.3389 265.976 65.2811 265.845 65.1665ZM264.826 73.0716H265.199C265.41 73.0716 265.564 73.0251 265.663 72.9323C265.762 72.8404 265.811 72.6823 265.811 72.4587V66.2481H266.912V72.4682C266.912 73.5082 266.389 74.0282 265.342 74.0282H264.826V73.0716Z" fill="black"/>
<path d="M273.076 66.2479V71.5208H271.975V70.3718C271.841 70.7621 271.609 71.0633 271.276 71.2773C270.945 71.4904 270.559 71.5975 270.119 71.5975C269.506 71.5975 269.014 71.3995 268.645 71.0036C268.275 70.6086 268.09 70.0441 268.09 69.3101V66.2479H269.181V69.1955C269.181 69.6738 269.302 70.0422 269.544 70.3008C269.786 70.5594 270.119 70.6882 270.539 70.6882C270.973 70.6882 271.321 70.548 271.583 70.2676C271.844 69.9863 271.975 69.5791 271.975 69.042V66.2479H273.076Z" fill="black"/>
<path d="M277.607 66.6547C277.98 66.9701 278.209 67.3926 278.291 67.923H277.258C277.213 67.635 277.09 67.4039 276.889 67.2287C276.688 67.0535 276.422 66.9654 276.09 66.9654C275.816 66.9654 275.604 67.0307 275.454 67.1615C275.304 67.2931 275.229 67.4693 275.229 67.6928C275.229 67.8586 275.283 67.9931 275.392 68.0954C275.5 68.1967 275.635 68.2772 275.798 68.3341C275.961 68.3918 276.192 68.4553 276.492 68.5263C276.887 68.6144 277.208 68.7072 277.454 68.8039C277.7 68.8986 277.91 69.0501 278.085 69.2575C278.261 69.465 278.349 69.7482 278.349 70.1053C278.349 70.5448 278.181 70.9018 277.846 71.1765C277.511 71.4502 277.06 71.5876 276.492 71.5876C275.835 71.5876 275.304 71.4351 274.899 71.1292C274.494 70.8223 274.249 70.3951 274.167 69.8457H275.229C275.261 70.1337 275.388 70.3667 275.611 70.5448C275.835 70.7238 276.129 70.8128 276.492 70.8128C276.754 70.8128 276.959 70.7437 277.11 70.6073C277.26 70.4699 277.334 70.2966 277.334 70.0854C277.334 69.9007 277.277 69.7529 277.162 69.6449C277.047 69.537 276.903 69.4527 276.732 69.392C276.56 69.3305 276.324 69.2689 276.023 69.2045C275.641 69.1164 275.329 69.0264 275.09 68.9365C274.851 68.8474 274.647 68.7025 274.478 68.5017C274.309 68.3 274.224 68.0281 274.224 67.6833C274.224 67.2363 274.391 66.8745 274.726 66.5969C275.061 66.3194 275.525 66.1811 276.119 66.1811C276.738 66.1811 277.234 66.3384 277.607 66.6547Z" fill="black"/>
<path d="M282.09 70.5738V71.521H281.419C280.859 71.521 280.433 71.3856 280.143 71.1137C279.852 70.8428 279.707 70.392 279.707 69.7602V67.1763H278.951V66.2481H279.707V64.9372H280.808V66.2481H282.081V67.1763H280.808V69.7792C280.808 70.0794 280.864 70.2859 280.975 70.4005C281.086 70.516 281.282 70.5738 281.563 70.5738H282.09Z" fill="black"/>
<path d="M284.205 71.5214H283.113V66.2485H284.205V71.5214ZM283.152 64.2575C283.279 64.1363 283.449 64.0757 283.659 64.0757C283.87 64.0757 284.041 64.1363 284.171 64.2575C284.302 64.3788 284.367 64.5322 284.367 64.7169C284.367 64.9016 284.302 65.0522 284.171 65.1668C284.041 65.2814 283.87 65.3382 283.659 65.3382C283.449 65.3382 283.279 65.2814 283.152 65.1668C283.024 65.0522 282.961 64.9016 282.961 64.7169C282.961 64.5322 283.024 64.3788 283.152 64.2575Z" fill="black"/>
<path d="M289.565 66.7214C290.012 67.0823 290.289 67.572 290.397 68.1905H289.24C289.175 67.8589 289.021 67.5994 288.776 67.4109C288.529 67.2224 288.222 67.1287 287.851 67.1287C287.431 67.1287 287.079 67.2764 286.799 67.5729C286.518 67.8703 286.377 68.306 286.377 68.879C286.377 69.454 286.518 69.8916 286.799 70.1909C287.079 70.4902 287.431 70.6408 287.851 70.6408C288.222 70.6408 288.529 70.5451 288.776 70.3538C289.021 70.1625 289.175 69.9001 289.24 69.5686H290.397C290.289 70.1871 290.012 70.6796 289.565 71.0424C289.118 71.4061 288.553 71.588 287.871 71.588C287.361 71.588 286.909 71.479 286.517 71.2631C286.124 71.0452 285.816 70.7327 285.593 70.3254C285.37 69.9162 285.258 69.4341 285.258 68.879C285.258 68.3306 285.37 67.8523 285.593 67.4441C285.816 67.0359 286.124 66.7233 286.517 66.5064C286.909 66.2895 287.361 66.1815 287.871 66.1815C288.553 66.1815 289.118 66.3615 289.565 66.7214Z" fill="black"/>
<path d="M292.541 71.5214H291.45V66.2485H292.541V71.5214ZM291.488 64.2575C291.616 64.1363 291.785 64.0757 291.996 64.0757C292.206 64.0757 292.377 64.1363 292.507 64.2575C292.638 64.3788 292.704 64.5322 292.704 64.7169C292.704 64.9016 292.638 65.0522 292.507 65.1668C292.377 65.2814 292.206 65.3382 291.996 65.3382C291.785 65.3382 291.616 65.2814 291.488 65.1668C291.36 65.0522 291.297 64.9016 291.297 64.7169C291.297 64.5322 291.36 64.3788 291.488 64.2575Z" fill="black"/>
<path d="M295.149 67.6019C294.858 67.9116 294.713 68.3369 294.713 68.8796C294.713 69.4224 294.858 69.8476 295.149 70.1574C295.44 70.4661 295.827 70.6215 296.312 70.6215C296.618 70.6215 296.892 70.5495 297.135 70.4065C297.378 70.2625 297.569 70.0607 297.709 69.7984C297.849 69.537 297.919 69.231 297.919 68.8796C297.919 68.5349 297.849 68.2308 297.709 67.9656C297.569 67.7004 297.378 67.4968 297.135 67.3528C296.892 67.2098 296.618 67.1378 296.312 67.1378C295.827 67.1378 295.44 67.2931 295.149 67.6019ZM297.202 66.5354C297.54 66.7712 297.779 67.0838 297.919 67.4721V66.2474H299.011V71.5213H297.919V70.2966C297.779 70.6849 297.54 70.9984 297.202 71.2343C296.863 71.4701 296.455 71.5876 295.977 71.5876C295.517 71.5876 295.107 71.4796 294.747 71.2627C294.387 71.0458 294.104 70.7332 293.901 70.325C293.696 69.9158 293.594 69.4347 293.594 68.8796C293.594 68.3312 293.696 67.8529 293.901 67.4437C294.104 67.0355 294.387 66.7229 294.747 66.507C295.107 66.2891 295.517 66.1811 295.977 66.1811C296.455 66.1811 296.863 66.2986 297.202 66.5354Z" fill="black"/>
<path d="M172.237 84.306V85.4644H171.529C170.936 85.4644 170.481 85.3204 170.165 85.0334C169.849 84.7464 169.691 84.2681 169.691 83.5975V81.3006H168.955V80.1621H169.691V78.8512H171.041V80.1621H172.228V81.3006H171.041V83.6164C171.041 83.8722 171.092 84.0502 171.194 84.1535C171.296 84.2548 171.468 84.306 171.71 84.306H172.237Z" fill="#00B1AF"/>
<path d="M175.338 80.3776C175.663 80.1835 176.028 80.0849 176.429 80.0849V81.5313H176.036C175.047 81.5313 174.553 81.9897 174.553 82.9094V85.4639H173.204V80.1617H174.553V81.177C174.751 80.8379 175.012 80.5718 175.338 80.3776Z" fill="#00B1AF"/>
<path d="M178.659 81.6837C178.403 81.9583 178.276 82.3344 178.276 82.8127C178.276 83.291 178.403 83.667 178.659 83.9379C178.913 84.2088 179.251 84.3443 179.673 84.3443C180.081 84.3443 180.417 84.205 180.683 83.9275C180.948 83.65 181.08 83.2796 181.08 82.8127C181.08 82.341 180.948 81.9659 180.683 81.6884C180.417 81.4109 180.081 81.2716 179.673 81.2716C179.251 81.2716 178.913 81.4099 178.659 81.6837ZM180.4 80.4107C180.719 80.6219 180.946 80.906 181.08 81.2631V80.1625H182.42V85.4638H181.08V84.3537C180.946 84.7108 180.719 84.9969 180.4 85.2109C180.081 85.424 179.699 85.5311 179.251 85.5311C178.805 85.5311 178.403 85.4221 178.046 85.2062C177.689 84.9883 177.409 84.6739 177.208 84.2638C177.008 83.8517 176.907 83.3677 176.907 82.8127C176.907 82.2576 177.008 81.7746 177.208 81.3635C177.409 80.9524 177.689 80.638 178.046 80.4201C178.403 80.2042 178.805 80.0953 179.251 80.0953C179.699 80.0953 180.081 80.2004 180.4 80.4107Z" fill="#00B1AF"/>
<path d="M188.268 80.6884C188.631 81.0909 188.813 81.6554 188.813 82.3819V85.464H187.473V82.5353C187.473 82.1148 187.365 81.7871 187.148 81.555C186.931 81.322 186.634 81.2055 186.258 81.2055C185.875 81.2055 185.569 81.3296 185.339 81.5778C185.11 81.8269 184.994 82.1849 184.994 82.6499V85.464H183.646V80.1617H184.994V81.2245C185.134 80.8664 185.367 80.5889 185.689 80.3872C186.011 80.1864 186.382 80.085 186.803 80.085C187.416 80.085 187.904 80.2868 188.268 80.6884Z" fill="#00B1AF"/>
<path d="M193.377 80.583C193.766 80.9088 194.009 81.3426 194.105 81.8844H192.841C192.79 81.6296 192.675 81.426 192.496 81.2725C192.318 81.1191 192.085 81.0424 191.798 81.0424C191.568 81.0424 191.39 81.0973 191.262 81.2053C191.134 81.3133 191.071 81.461 191.071 81.6457C191.071 81.7925 191.122 81.91 191.224 82C191.326 82.089 191.454 82.1591 191.607 82.2102C191.759 82.2614 191.98 82.322 192.267 82.3921C192.669 82.4811 192.995 82.5758 193.248 82.6743C193.499 82.7738 193.716 82.9301 193.899 83.1432C194.081 83.3573 194.171 83.6452 194.171 84.0089C194.171 84.4626 193.995 84.8292 193.641 85.1095C193.286 85.3908 192.809 85.531 192.209 85.531C191.521 85.531 190.969 85.3766 190.555 85.0669C190.14 84.7572 189.887 84.3148 189.798 83.7418H191.09C191.122 84.0032 191.237 84.2088 191.435 84.3584C191.633 84.509 191.89 84.5838 192.209 84.5838C192.44 84.5838 192.615 84.528 192.736 84.4162C192.857 84.3044 192.918 84.1586 192.918 83.9805C192.918 83.828 192.865 83.703 192.76 83.6073C192.655 83.5116 192.524 83.4387 192.368 83.3876C192.211 83.3364 191.99 83.2758 191.703 83.2057C191.307 83.1167 190.987 83.0248 190.74 82.932C190.495 82.8401 190.285 82.6923 190.109 82.4877C189.933 82.2841 189.845 82.0028 189.845 81.6457C189.845 81.1863 190.021 80.8132 190.372 80.5252C190.723 80.2392 191.207 80.0952 191.827 80.0952C192.471 80.0952 192.988 80.2581 193.377 80.583Z" fill="#00B1AF"/>
<path d="M196.913 81.6883C196.648 81.9658 196.516 82.3409 196.516 82.8126C196.516 83.2795 196.648 83.6499 196.913 83.9274C197.177 84.2049 197.514 84.3441 197.923 84.3441C198.344 84.3441 198.682 84.2087 198.937 83.9378C199.192 83.6669 199.32 83.2909 199.32 82.8126C199.32 82.3352 199.192 81.9582 198.937 81.6835C198.682 81.4098 198.344 81.2725 197.923 81.2725C197.514 81.2725 197.177 81.4108 196.913 81.6883ZM199.55 80.42C199.907 80.6379 200.186 80.9523 200.387 81.3634C200.588 81.7745 200.688 82.2585 200.688 82.8126C200.688 83.3676 200.588 83.8516 200.387 84.2636C200.186 84.6738 199.907 84.9882 199.55 85.2061C199.192 85.422 198.79 85.531 198.344 85.531C197.897 85.531 197.516 85.4239 197.2 85.2108C196.884 84.9967 196.659 84.7107 196.525 84.3536V87.9898H195.176V80.1624H196.525V81.263C196.659 80.9059 196.884 80.6218 197.2 80.4106C197.516 80.2003 197.897 80.0951 198.344 80.0951C198.79 80.0951 199.192 80.2041 199.55 80.42Z" fill="#00B1AF"/>
<path d="M203.129 81.6837C202.874 81.9583 202.747 82.3344 202.747 82.8127C202.747 83.291 202.874 83.667 203.129 83.9379C203.384 84.2088 203.722 84.3443 204.144 84.3443C204.552 84.3443 204.888 84.205 205.153 83.9275C205.419 83.65 205.55 83.2796 205.55 82.8127C205.55 82.341 205.419 81.9659 205.153 81.6884C204.888 81.4109 204.552 81.2716 204.144 81.2716C203.722 81.2716 203.384 81.4099 203.129 81.6837ZM204.871 80.4107C205.189 80.6219 205.417 80.906 205.55 81.2631V80.1625H206.89V85.4638H205.55V84.3537C205.417 84.7108 205.189 84.9969 204.871 85.2109C204.552 85.424 204.169 85.5311 203.722 85.5311C203.276 85.5311 202.874 85.4221 202.516 85.2062C202.159 84.9883 201.88 84.6739 201.679 84.2638C201.478 83.8517 201.378 83.3677 201.378 82.8127C201.378 82.2576 201.478 81.7746 201.679 81.3635C201.88 80.9524 202.159 80.638 202.516 80.4201C202.874 80.2042 203.276 80.0953 203.722 80.0953C204.169 80.0953 204.552 80.2004 204.871 80.4107Z" fill="#00B1AF"/>
<path d="M210.249 80.3776C210.574 80.1835 210.939 80.0849 211.34 80.0849V81.5313H210.947C209.958 81.5313 209.464 81.9897 209.464 82.9094V85.4639H208.115V80.1617H209.464V81.177C209.662 80.8379 209.923 80.5718 210.249 80.3776Z" fill="#00B1AF"/>
<path d="M215.373 81.4923C215.128 81.2697 214.826 81.157 214.469 81.157C214.106 81.157 213.799 81.2697 213.55 81.4923C213.301 81.7158 213.164 82.0445 213.139 82.4783H215.713C215.732 82.0445 215.618 81.7158 215.373 81.4923ZM217.024 83.0712H213.139C213.158 83.5438 213.286 83.8915 213.521 84.115C213.757 84.3385 214.051 84.4493 214.402 84.4493C214.715 84.4493 214.974 84.3736 215.182 84.2201C215.389 84.0667 215.522 83.8593 215.579 83.5978H217.005C216.934 83.9682 216.784 84.2997 216.555 84.5924C216.325 84.8869 216.03 85.1161 215.67 85.2819C215.31 85.4486 214.909 85.531 214.469 85.531C213.952 85.531 213.493 85.4202 213.09 85.2004C212.689 84.9816 212.376 84.6672 212.153 84.258C211.929 83.8498 211.818 83.3677 211.818 82.8136C211.818 82.2585 211.929 81.7745 212.153 81.3635C212.376 80.9524 212.689 80.6379 213.09 80.4201C213.493 80.2041 213.952 80.0952 214.469 80.0952C214.992 80.0952 215.45 80.2041 215.842 80.4201C216.235 80.6379 216.537 80.9363 216.751 81.3152C216.965 81.695 217.071 82.1278 217.071 82.6128C217.071 82.7463 217.056 82.8988 217.024 83.0712Z" fill="#00B1AF"/>
<path d="M222.651 80.6884C223.015 81.0909 223.197 81.6554 223.197 82.3819V85.464H221.857V82.5353C221.857 82.1148 221.749 81.7871 221.532 81.555C221.315 81.322 221.018 81.2055 220.642 81.2055C220.259 81.2055 219.953 81.3296 219.723 81.5778C219.494 81.8269 219.378 82.1849 219.378 82.6499V85.464H218.029V80.1617H219.378V81.2245C219.518 80.8664 219.75 80.5889 220.072 80.3872C220.394 80.1864 220.766 80.085 221.187 80.085C221.8 80.085 222.288 80.2868 222.651 80.6884Z" fill="#00B1AF"/>
<path d="M227.217 84.306V85.4644H226.508C225.915 85.4644 225.46 85.3204 225.144 85.0334C224.829 84.7464 224.671 84.2681 224.671 83.5975V81.3006H223.935V80.1621H224.671V78.8512H226.02V80.1621H227.207V81.3006H226.02V83.6164C226.02 83.8722 226.071 84.0502 226.174 84.1535C226.275 84.2548 226.447 84.306 226.69 84.306H227.217Z" fill="#00B1AF"/>
<path d="M231.47 81.4923C231.224 81.2697 230.922 81.157 230.565 81.157C230.202 81.157 229.896 81.2697 229.646 81.4923C229.397 81.7158 229.261 82.0445 229.235 82.4783H231.81C231.829 82.0445 231.715 81.7158 231.47 81.4923ZM233.121 83.0712H229.235C229.254 83.5438 229.382 83.8915 229.618 84.115C229.854 84.3385 230.148 84.4493 230.499 84.4493C230.811 84.4493 231.071 84.3736 231.278 84.2201C231.486 84.0667 231.618 83.8593 231.675 83.5978H233.102C233.031 83.9682 232.881 84.2997 232.652 84.5924C232.422 84.8869 232.127 85.1161 231.766 85.2819C231.406 85.4486 231.006 85.531 230.565 85.531C230.049 85.531 229.59 85.4202 229.187 85.2004C228.785 84.9816 228.473 84.6672 228.249 84.258C228.026 83.8498 227.915 83.3677 227.915 82.8136C227.915 82.2585 228.026 81.7745 228.249 81.3635C228.473 80.9524 228.785 80.6379 229.187 80.4201C229.59 80.2041 230.049 80.0952 230.565 80.0952C231.089 80.0952 231.546 80.2041 231.939 80.4201C232.332 80.6379 232.634 80.9363 232.848 81.3152C233.062 81.695 233.168 82.1278 233.168 82.6128C233.168 82.7463 233.153 82.8988 233.121 83.0712Z" fill="#00B1AF"/>
<path d="M237.121 80.1621L238.567 83.7604L239.906 80.1621H241.389L238.145 87.9905H236.653L237.849 85.3109L235.619 80.1621H237.121Z" fill="#00B1AF"/>
<path d="M245.59 81.6837C245.334 81.9583 245.208 82.3344 245.208 82.8127C245.208 83.291 245.334 83.667 245.59 83.9379C245.845 84.2088 246.183 84.3443 246.605 84.3443C247.013 84.3443 247.349 84.205 247.614 83.9275C247.879 83.65 248.011 83.2796 248.011 82.8127C248.011 82.341 247.879 81.9659 247.614 81.6884C247.349 81.4109 247.013 81.2716 246.605 81.2716C246.183 81.2716 245.845 81.4099 245.59 81.6837ZM247.332 80.4107C247.65 80.6219 247.878 80.906 248.011 81.2631V80.1625H249.351V85.4638H248.011V84.3537C247.878 84.7108 247.65 84.9969 247.332 85.2109C247.013 85.424 246.63 85.5311 246.183 85.5311C245.737 85.5311 245.334 85.4221 244.977 85.2062C244.62 84.9883 244.341 84.6739 244.14 84.2638C243.939 83.8517 243.839 83.3677 243.839 82.8127C243.839 82.2576 243.939 81.7746 244.14 81.3635C244.341 80.9524 244.62 80.638 244.977 80.4201C245.334 80.2042 245.737 80.0953 246.183 80.0953C246.63 80.0953 247.013 80.2004 247.332 80.4107Z" fill="#00B1AF"/>
<path d="M252.313 81.6883C252.048 81.9659 251.916 82.3409 251.916 82.8126C251.916 83.2796 252.048 83.6499 252.313 83.9274C252.578 84.205 252.915 84.3442 253.323 84.3442C253.744 84.3442 254.083 84.2088 254.337 83.9379C254.592 83.667 254.72 83.2909 254.72 82.8126C254.72 82.3353 254.592 81.9583 254.337 81.6836C254.083 81.4099 253.744 81.2725 253.323 81.2725C252.915 81.2725 252.578 81.4108 252.313 81.6883ZM254.95 80.4201C255.307 80.6379 255.587 80.9524 255.788 81.3635C255.988 81.7745 256.089 82.2585 256.089 82.8126C256.089 83.3677 255.988 83.8517 255.788 84.2637C255.587 84.6738 255.307 84.9883 254.95 85.2061C254.592 85.4221 254.191 85.531 253.744 85.531C253.297 85.531 252.917 85.424 252.6 85.2109C252.285 84.9968 252.059 84.7108 251.926 84.3537V85.4638H250.576V78.3827H251.926V81.2631C252.059 80.906 252.285 80.6218 252.6 80.4106C252.917 80.2003 253.297 80.0952 253.744 80.0952C254.191 80.0952 254.592 80.2041 254.95 80.4201Z" fill="#00B1AF"/>
<path d="M258.395 85.4637H257.045V80.1615H258.395V85.4637ZM257.123 78.1099C257.275 77.9726 257.477 77.9034 257.725 77.9034C257.974 77.9034 258.175 77.9726 258.328 78.1099C258.481 78.2463 258.558 78.4244 258.558 78.6403C258.558 78.8515 258.481 79.0249 258.328 79.1622C258.175 79.2996 257.974 79.3678 257.725 79.3678C257.477 79.3678 257.275 79.2996 257.123 79.1622C256.969 79.0249 256.893 78.8515 256.893 78.6403C256.893 78.4244 256.969 78.2463 257.123 78.1099Z" fill="#00B1AF"/>
<path d="M262.908 81.4923C262.663 81.2697 262.361 81.157 262.004 81.157C261.641 81.157 261.334 81.2697 261.085 81.4923C260.836 81.7158 260.699 82.0445 260.674 82.4783H263.248C263.267 82.0445 263.154 81.7158 262.908 81.4923ZM264.559 83.0712H260.674C260.693 83.5438 260.821 83.8915 261.057 84.115C261.292 84.3385 261.586 84.4493 261.937 84.4493C262.25 84.4493 262.509 84.3736 262.717 84.2201C262.924 84.0667 263.057 83.8593 263.114 83.5978H264.54C264.469 83.9682 264.32 84.2997 264.09 84.5924C263.86 84.8869 263.566 85.1161 263.205 85.2819C262.845 85.4486 262.444 85.531 262.004 85.531C261.487 85.531 261.028 85.4202 260.626 85.2004C260.224 84.9816 259.911 84.6672 259.688 84.258C259.464 83.8498 259.354 83.3677 259.354 82.8136C259.354 82.2585 259.464 81.7745 259.688 81.3635C259.911 80.9524 260.224 80.6379 260.626 80.4201C261.028 80.2041 261.487 80.0952 262.004 80.0952C262.527 80.0952 262.985 80.2041 263.377 80.4201C263.77 80.6379 264.072 80.9363 264.286 81.3152C264.5 81.695 264.607 82.1278 264.607 82.6128C264.607 82.7463 264.591 82.8988 264.559 83.0712Z" fill="#00B1AF"/>
<path d="M267.697 80.3776C268.022 80.1835 268.387 80.0849 268.789 80.0849V81.5313H268.396C267.407 81.5313 266.912 81.9897 266.912 82.9094V85.4639H265.563V80.1617H266.912V81.177C267.11 80.8379 267.372 80.5718 267.697 80.3776Z" fill="#00B1AF"/>
<path d="M272.367 84.306V85.4644H271.658C271.065 85.4644 270.611 85.3204 270.294 85.0334C269.979 84.7464 269.821 84.2681 269.821 83.5975V81.3006H269.085V80.1621H269.821V78.8512H271.171V80.1621H272.357V81.3006H271.171V83.6164C271.171 83.8722 271.222 84.0502 271.324 84.1535C271.425 84.2548 271.598 84.306 271.84 84.306H272.367Z" fill="#00B1AF"/>
<path d="M274.817 81.6837C274.561 81.9583 274.434 82.3344 274.434 82.8127C274.434 83.291 274.561 83.667 274.817 83.9379C275.072 84.2088 275.41 84.3443 275.831 84.3443C276.239 84.3443 276.576 84.205 276.841 83.9275C277.106 83.65 277.238 83.2796 277.238 82.8127C277.238 82.341 277.106 81.9659 276.841 81.6884C276.576 81.4109 276.239 81.2716 275.831 81.2716C275.41 81.2716 275.072 81.4099 274.817 81.6837ZM276.559 80.4107C276.877 80.6219 277.104 80.906 277.238 81.2631V80.1625H278.578V85.4638H277.238V84.3537C277.104 84.7108 276.877 84.9969 276.559 85.2109C276.239 85.424 275.857 85.5311 275.41 85.5311C274.964 85.5311 274.561 85.4221 274.204 85.2062C273.847 84.9883 273.567 84.6739 273.367 84.2638C273.166 83.8517 273.065 83.3677 273.065 82.8127C273.065 82.2576 273.166 81.7746 273.367 81.3635C273.567 80.9524 273.847 80.638 274.204 80.4201C274.561 80.2042 274.964 80.0953 275.41 80.0953C275.857 80.0953 276.239 80.2004 276.559 80.4107Z" fill="#00B1AF"/>
<path d="M300 53.348H168.793V52.1877H300V53.348Z" fill="#00B1AF"/>
</svg>
