<?xml version="1.0" encoding="UTF-8" standalone="no"?>
<!-- Created with Inkscape (http://www.inkscape.org/) -->

<svg
   xmlns:dc="http://purl.org/dc/elements/1.1/"
   xmlns:cc="http://creativecommons.org/ns#"
   xmlns:rdf="http://www.w3.org/1999/02/22-rdf-syntax-ns#"
   xmlns:svg="http://www.w3.org/2000/svg"
   xmlns="http://www.w3.org/2000/svg"
   xmlns:sodipodi="http://sodipodi.sourceforge.net/DTD/sodipodi-0.dtd"
   xmlns:inkscape="http://www.inkscape.org/namespaces/inkscape"
   version="1.1"
   id="svg2"
   xml:space="preserve"
   width="422.30975"
   height="134.14172"
   viewBox="0 0 422.30975 134.14172"
   sodipodi:docname="logo-white.svg"
   inkscape:version="0.92.3 (2405546, 2018-03-11)"><metadata
     id="metadata8"><rdf:RDF><cc:Work
         rdf:about=""><dc:format>image/svg+xml</dc:format><dc:type
           rdf:resource="http://purl.org/dc/dcmitype/StillImage" /><dc:title></dc:title></cc:Work></rdf:RDF></metadata><defs
     id="defs6"><clipPath
       clipPathUnits="userSpaceOnUse"
       id="clipPath20"><path
         d="M 0,287.489 H 499.447 V 0 H 0 Z"
         id="path18"
         inkscape:connector-curvature="0" /></clipPath></defs><sodipodi:namedview
     pagecolor="#ffffff"
     bordercolor="#666666"
     borderopacity="1"
     objecttolerance="10"
     gridtolerance="10"
     guidetolerance="10"
     inkscape:pageopacity="0"
     inkscape:pageshadow="2"
     inkscape:window-width="2560"
     inkscape:window-height="1412"
     id="namedview4"
     showgrid="false"
     fit-margin-top="0"
     fit-margin-left="0"
     fit-margin-right="0"
     fit-margin-bottom="0"
     inkscape:zoom="0.51356802"
     inkscape:cx="-15.689928"
     inkscape:cy="67.070808"
     inkscape:window-x="0"
     inkscape:window-y="0"
     inkscape:window-maximized="1"
     inkscape:current-layer="g10" /><g
     id="g10"
     inkscape:groupmode="layer"
     inkscape:label="logo"
     transform="matrix(1.3333333,0,0,-1.3333333,-121.81024,258.73026)"><g
       id="g14"><g
         id="g16"
         clip-path="url(#clipPath20)"><g
           id="g22"
           transform="translate(292.8303,194.0477)"><path
             d="m 0,0 -5.267,-29.754 c -0.47,-2.642 -1.647,-4.787 -3.529,-6.434 -1.883,-1.648 -4.235,-2.47 -7.058,-2.47 -2.571,0 -4.552,0.679 -5.946,2.036 -1.393,1.357 -2.09,3.266 -2.09,5.727 0,0.761 0.091,1.648 0.272,2.662 h 2.443 c -0.145,-0.725 -0.218,-1.503 -0.218,-2.335 0,-1.811 0.47,-3.241 1.413,-4.289 0.94,-1.051 2.424,-1.576 4.452,-1.576 2.352,0 4.162,0.653 5.429,1.955 1.267,1.303 2.063,2.878 2.389,4.724 L -2.443,0 Z"
             style="fill:#ffffff;fill-opacity:1;fill-rule:nonzero;stroke:none"
             id="path24"
             inkscape:connector-curvature="0" /></g><g
           id="g26"
           transform="translate(324.9719,185.2518)"><path
             d="m 0,0 -5.267,-29.482 h -2.442 l 1.357,7.71 c -1.231,-2.715 -2.986,-4.779 -5.266,-6.19 -2.281,-1.412 -4.761,-2.118 -7.439,-2.118 -2.968,0 -5.339,0.806 -7.113,2.417 -1.773,1.609 -2.66,4.008 -2.66,7.193 0,1.014 0.108,2.118 0.326,3.313 L -25.409,0 h 2.388 l -3.041,-17.104 c -0.18,-1.158 -0.271,-2.117 -0.271,-2.876 0,-2.607 0.733,-4.588 2.199,-5.946 1.466,-1.357 3.502,-2.036 6.109,-2.036 3.22,0 5.972,1.04 8.253,3.122 2.28,2.081 3.782,5.149 4.505,9.202 L -2.497,0 Z"
             style="fill:#ffffff;fill-opacity:1;fill-rule:nonzero;stroke:none"
             id="path28"
             inkscape:connector-curvature="0" /></g><g
           id="g30"
           transform="translate(348.345,183.1609)"><path
             d="M 0,0 C 1.792,-1.647 2.634,-3.9 2.524,-6.76 H 0.136 c 0.108,2.099 -0.526,3.846 -1.901,5.239 -1.376,1.394 -3.493,2.091 -6.352,2.091 -2.244,0 -4.028,-0.579 -5.348,-1.737 -1.322,-1.159 -1.981,-2.66 -1.981,-4.507 0,-1.158 0.325,-2.099 0.976,-2.823 0.652,-0.725 1.457,-1.285 2.416,-1.683 0.959,-0.399 2.272,-0.834 3.937,-1.303 1.918,-0.543 3.456,-1.078 4.615,-1.602 1.158,-0.525 2.145,-1.275 2.959,-2.253 0.814,-0.977 1.222,-2.28 1.222,-3.909 0,-0.326 -0.074,-0.996 -0.217,-2.009 -0.362,-1.955 -1.376,-3.529 -3.041,-4.723 -1.665,-1.196 -3.819,-1.792 -6.461,-1.792 -3.548,0 -6.325,0.822 -8.334,2.47 -2.009,1.647 -2.959,3.9 -2.851,6.759 h 2.444 c -0.182,-2.1 0.497,-3.846 2.036,-5.239 1.538,-1.394 3.882,-2.09 7.031,-2.09 1.881,0 3.429,0.442 4.642,1.33 1.213,0.887 1.945,2.036 2.199,3.447 0.072,0.326 0.108,0.796 0.108,1.412 0,1.303 -0.352,2.37 -1.058,3.203 -0.706,0.833 -1.574,1.466 -2.607,1.901 -1.031,0.434 -2.398,0.887 -4.098,1.357 -1.847,0.543 -3.304,1.05 -4.371,1.521 -1.069,0.47 -1.982,1.158 -2.743,2.063 -0.759,0.905 -1.139,2.099 -1.139,3.583 0,0.543 0.053,1.141 0.163,1.792 0.361,2.063 1.411,3.7 3.148,4.913 1.738,1.213 3.946,1.82 6.624,1.82 C -4.407,2.471 -1.792,1.646 0,0"
             style="fill:#ffffff;fill-opacity:1;fill-rule:nonzero;stroke:none"
             id="path32"
             inkscape:connector-curvature="0" /></g><g
           id="g34"
           transform="translate(372.1536,162.3387)"><path
             d="m 0,0 v -6.569 h -4.018 c -3.366,0 -5.945,0.814 -7.737,2.443 -1.792,1.629 -2.687,4.344 -2.687,8.145 v 13.03 h -4.181 v 6.461 h 4.181 v 7.438 h 7.655 V 23.51 h 6.732 V 17.049 H -6.787 V 3.909 c 0,-1.447 0.29,-2.462 0.869,-3.04 C -5.34,0.29 -4.362,0 -2.986,0 Z"
             style="fill:#ffffff;fill-opacity:1;fill-rule:nonzero;stroke:none"
             id="path36"
             inkscape:connector-curvature="0" /></g><g
           id="g38"
           transform="translate(386.052,177.2156)"><path
             d="m 0,0 c -1.448,-1.557 -2.172,-3.691 -2.172,-6.406 0,-2.715 0.724,-4.842 2.172,-6.38 1.447,-1.539 3.366,-2.308 5.756,-2.308 2.315,0 4.225,0.787 5.727,2.362 1.502,1.575 2.253,3.683 2.253,6.326 0,2.677 -0.751,4.804 -2.253,6.379 C 9.981,1.548 8.071,2.335 5.756,2.335 3.366,2.335 1.447,1.556 0,0 M 9.882,7.222 C 11.691,6.027 12.977,4.416 13.736,2.39 v 6.243 h 7.602 v -30.079 h -7.602 v 6.298 c -0.759,-2.028 -2.045,-3.647 -3.854,-4.86 -1.811,-1.213 -3.983,-1.818 -6.516,-1.818 -2.534,0 -4.814,0.615 -6.841,1.846 -2.027,1.23 -3.61,3.013 -4.751,5.348 -1.139,2.334 -1.71,5.076 -1.71,8.226 0,3.148 0.571,5.89 1.71,8.225 1.141,2.334 2.724,4.118 4.751,5.348 2.027,1.23 4.307,1.846 6.841,1.846 2.533,0 4.705,-0.597 6.516,-1.791"
             style="fill:#ffffff;fill-opacity:1;fill-rule:nonzero;stroke:none"
             id="path40"
             inkscape:connector-curvature="0" /></g><g
           id="g42"
           transform="translate(168.7756,93.6678)"><path
             d="m 0,0 v 3.026 c 24.658,0 44.719,19.04 44.719,42.442 0,23.35 -19.891,42.347 -44.341,42.347 -0.135,-0.002 -14.961,-0.283 -25.193,-11.072 -6.852,-7.225 -10.171,-17.49 -9.874,-30.528 h 32.347 v -3.028 h -33.812 c -0.812,0 -1.478,0.64 -1.512,1.45 -0.62,14.594 2.974,26.107 10.682,34.217 11.136,11.718 26.692,11.982 27.349,11.988 26.132,0 47.381,-20.355 47.381,-45.374 C 47.746,20.396 26.327,0 0,0"
             style="fill:#ffffff;fill-opacity:1;fill-rule:nonzero;stroke:none"
             id="path44"
             inkscape:connector-curvature="0" /></g><g
           id="g46"
           transform="translate(185.5959,143.7684)"><path
             d="m 0,0 c -2.246,0 -4.074,-1.828 -4.074,-4.073 0,-2.247 1.828,-4.074 4.074,-4.074 2.247,0 4.074,1.827 4.074,4.074 C 4.074,-1.828 2.247,0 0,0 m 0,-11.175 c -3.915,0 -7.101,3.186 -7.101,7.102 0,3.915 3.186,7.099 7.101,7.099 3.916,0 7.102,-3.184 7.102,-7.099 0,-3.916 -3.186,-7.102 -7.102,-7.102"
             style="fill:#ffffff;fill-opacity:1;fill-rule:nonzero;stroke:none"
             id="path48"
             inkscape:connector-curvature="0" /></g><g
           id="g50"
           transform="translate(94.9397,139.3074)"><path
             d="m 0,0 c 25.98,-28.372 52.523,-42.784 78.907,-42.836 h 0.143 c 38.228,0 66.105,30.58 75.274,40.638 0.811,0.889 1.495,1.64 2.063,2.237 C 128.069,28.908 99.854,43.069 72.544,42.17 34.672,40.905 9.658,11.384 1.438,1.683 0.835,0.97 0.371,0.423 0,0 m 79.053,-45.866 h -0.152 c -27.593,0.054 -55.214,15.152 -82.091,44.873 -0.279,0.306 -0.418,0.714 -0.388,1.126 0.029,0.413 0.226,0.796 0.545,1.059 0.291,0.241 1.2,1.314 2.164,2.451 8.433,9.954 34.099,40.247 73.311,41.555 28.532,0.94 57.874,-13.89 87.161,-44.119 0.287,-0.297 0.441,-0.697 0.425,-1.11 -0.014,-0.412 -0.197,-0.801 -0.505,-1.075 -0.575,-0.515 -1.628,-1.671 -2.962,-3.134 -5.028,-5.515 -14.386,-15.78 -27.575,-24.834 -16.229,-11.143 -33.029,-16.792 -49.933,-16.792"
             style="fill:#ffffff;fill-opacity:1;fill-rule:nonzero;stroke:none"
             id="path52"
             inkscape:connector-curvature="0" /></g><g
           id="g54"
           transform="translate(273.9895,124.3758)"><path
             d="m 0,0 c 0,0.404 -0.113,0.713 -0.339,0.925 -0.225,0.212 -0.588,0.318 -1.086,0.318 h -1.151 v -2.475 h 1.151 C -0.475,-1.232 0,-0.821 0,0 M -2.576,-2.172 V -4.94 h -1.153 v 7.133 h 2.425 c 0.823,0 1.441,-0.196 1.855,-0.587 C 0.965,1.216 1.172,0.681 1.172,0 1.172,-0.673 0.96,-1.204 0.535,-1.591 0.111,-1.979 -0.502,-2.172 -1.304,-2.172 Z"
             style="fill:#ffffff;fill-opacity:1;fill-rule:nonzero;stroke:none"
             id="path56"
             inkscape:connector-curvature="0" /></g><path
           d="m 277.323,119.435 h -1.151 v 7.477 h 1.151 z"
           style="fill:#ffffff;fill-opacity:1;fill-rule:nonzero;stroke:none"
           id="path58"
           inkscape:connector-curvature="0" /><g
           id="g60"
           transform="translate(280.0774,123.5731)"><path
             d="m 0,0 c -0.307,-0.327 -0.46,-0.776 -0.46,-1.349 0,-0.573 0.153,-1.022 0.46,-1.349 0.307,-0.326 0.716,-0.49 1.228,-0.49 0.323,0 0.612,0.076 0.869,0.227 0.256,0.152 0.458,0.365 0.605,0.642 0.149,0.276 0.223,0.599 0.223,0.97 0,0.364 -0.074,0.685 -0.223,0.965 C 2.555,-0.104 2.353,0.111 2.097,0.263 1.84,0.414 1.551,0.49 1.228,0.49 0.716,0.49 0.307,0.326 0,0 M 2.167,1.126 C 2.524,0.877 2.776,0.547 2.925,0.137 V 1.43 H 4.076 V -4.138 H 2.925 v 1.293 C 2.776,-3.255 2.524,-3.586 2.167,-3.835 1.81,-4.084 1.379,-4.208 0.874,-4.208 c -0.485,0 -0.918,0.114 -1.299,0.343 -0.381,0.229 -0.679,0.559 -0.893,0.99 -0.216,0.432 -0.325,0.94 -0.325,1.526 0,0.579 0.109,1.084 0.325,1.516 0.214,0.431 0.512,0.761 0.893,0.989 C -0.044,1.386 0.389,1.5 0.874,1.5 1.379,1.5 1.81,1.376 2.167,1.126"
             style="fill:#ffffff;fill-opacity:1;fill-rule:nonzero;stroke:none"
             id="path62"
             inkscape:connector-curvature="0" /></g><g
           id="g64"
           transform="translate(288.3372,120.4354)"><path
             d="m 0,0 v -1 h -0.708 c -0.593,0 -1.042,0.143 -1.349,0.43 -0.306,0.286 -0.46,0.762 -0.46,1.429 v 2.728 h -0.797 v 0.98 h 0.797 v 1.384 h 1.163 V 4.567 h 1.343 V 3.587 H -1.354 V 0.839 c 0,-0.317 0.058,-0.535 0.176,-0.656 C -1.06,0.061 -0.853,0 -0.556,0 Z"
             style="fill:#ffffff;fill-opacity:1;fill-rule:nonzero;stroke:none"
             id="path66"
             inkscape:connector-curvature="0" /></g><g
           id="g68"
           transform="translate(290.7766,123.5731)"><path
             d="m 0,0 c -0.307,-0.327 -0.46,-0.776 -0.46,-1.349 0,-0.573 0.153,-1.022 0.46,-1.349 0.307,-0.326 0.716,-0.49 1.228,-0.49 0.323,0 0.613,0.076 0.869,0.227 0.256,0.152 0.458,0.365 0.606,0.642 0.149,0.276 0.223,0.599 0.223,0.97 0,0.364 -0.074,0.685 -0.223,0.965 C 2.555,-0.104 2.353,0.111 2.097,0.263 1.841,0.414 1.551,0.49 1.228,0.49 0.716,0.49 0.307,0.326 0,0 M 2.168,1.126 C 2.524,0.877 2.777,0.547 2.926,0.137 V 1.43 H 4.077 V -4.138 H 2.926 v 1.293 C 2.777,-3.255 2.524,-3.586 2.168,-3.835 1.811,-4.084 1.38,-4.208 0.874,-4.208 c -0.484,0 -0.918,0.114 -1.298,0.343 -0.381,0.229 -0.679,0.559 -0.894,0.99 -0.216,0.432 -0.324,0.94 -0.324,1.526 0,0.579 0.108,1.084 0.324,1.516 0.215,0.431 0.513,0.761 0.894,0.989 C -0.044,1.386 0.39,1.5 0.874,1.5 1.38,1.5 1.811,1.376 2.168,1.126"
             style="fill:#ffffff;fill-opacity:1;fill-rule:nonzero;stroke:none"
             id="path70"
             inkscape:connector-curvature="0" /></g><g
           id="g72"
           transform="translate(297.885,125.9373)"><path
             d="m 0,0 c -0.183,-0.165 -0.273,-0.446 -0.273,-0.844 v -0.091 h 1.222 v -0.99 h -1.222 v -4.577 h -1.163 v 4.577 h -0.757 v 0.99 h 0.757 v 0.182 c 0,0.681 0.2,1.19 0.597,1.531 0.398,0.34 0.993,0.49 1.788,0.45 V 0.217 C 0.498,0.237 0.182,0.165 0,0"
             style="fill:#ffffff;fill-opacity:1;fill-rule:nonzero;stroke:none"
             id="path74"
             inkscape:connector-curvature="0" /></g><g
           id="g76"
           transform="translate(301.4915,123.8709)"><path
             d="m 0,0 c -0.249,-0.135 -0.449,-0.342 -0.601,-0.621 -0.151,-0.28 -0.227,-0.622 -0.227,-1.025 0,-0.412 0.076,-0.755 0.227,-1.032 0.152,-0.276 0.352,-0.481 0.601,-0.616 0.249,-0.135 0.522,-0.202 0.818,-0.202 0.297,0 0.57,0.067 0.819,0.202 0.25,0.135 0.45,0.34 0.601,0.616 0.152,0.277 0.228,0.62 0.228,1.032 0,0.403 -0.076,0.745 -0.228,1.025 C 2.087,-0.342 1.887,-0.135 1.637,0 1.388,0.135 1.115,0.202 0.818,0.202 0.522,0.202 0.249,0.135 0,0 M 2.273,0.858 C 2.705,0.63 3.042,0.3 3.284,-0.131 3.526,-0.562 3.647,-1.067 3.647,-1.646 3.647,-2.232 3.526,-2.741 3.284,-3.173 3.042,-3.604 2.705,-3.934 2.273,-4.163 1.843,-4.392 1.357,-4.506 0.818,-4.506 c -0.538,0 -1.021,0.114 -1.449,0.343 -0.428,0.229 -0.765,0.561 -1.011,0.995 -0.246,0.435 -0.369,0.941 -0.369,1.522 0,0.579 0.123,1.084 0.369,1.515 0.246,0.431 0.583,0.761 1.011,0.989 0.428,0.23 0.911,0.344 1.449,0.344 0.539,0 1.025,-0.114 1.455,-0.344"
             style="fill:#ffffff;fill-opacity:1;fill-rule:nonzero;stroke:none"
             id="path78"
             inkscape:connector-curvature="0" /></g><g
           id="g80"
           transform="translate(308.2102,124.7752)"><path
             d="M 0,0 C 0.351,0.212 0.755,0.318 1.213,0.318 V -0.935 H 0.869 c -0.505,0 -0.911,-0.123 -1.218,-0.369 -0.306,-0.245 -0.459,-0.651 -0.459,-1.217 V -5.34 H -1.96 v 5.568 h 1.152 V -0.864 C -0.619,-0.5 -0.35,-0.212 0,0"
             style="fill:#ffffff;fill-opacity:1;fill-rule:nonzero;stroke:none"
             id="path82"
             inkscape:connector-curvature="0" /></g><g
           id="g84"
           transform="translate(318.8245,124.4666)"><path
             d="m 0,0 c 0.395,-0.417 0.591,-1.014 0.591,-1.788 v -3.243 h -1.152 v 3.122 c 0,0.485 -0.121,0.86 -0.364,1.127 -0.242,0.265 -0.575,0.398 -1,0.398 -0.451,0 -0.809,-0.142 -1.076,-0.428 C -3.267,-1.1 -3.4,-1.519 -3.4,-2.071 v -2.96 h -1.152 v 3.122 c 0,0.485 -0.121,0.86 -0.364,1.127 -0.242,0.265 -0.575,0.398 -1,0.398 -0.451,0 -0.81,-0.142 -1.076,-0.428 -0.266,-0.288 -0.399,-0.707 -0.399,-1.259 v -2.96 h -1.152 v 5.567 h 1.152 v -1.162 c 0.141,0.404 0.377,0.714 0.707,0.93 0.33,0.216 0.717,0.323 1.163,0.323 0.464,0 0.867,-0.114 1.207,-0.344 0.339,-0.228 0.587,-0.558 0.743,-0.99 0.161,0.418 0.421,0.744 0.777,0.98 0.357,0.236 0.762,0.354 1.213,0.354 C -0.921,0.627 -0.395,0.418 0,0"
             style="fill:#ffffff;fill-opacity:1;fill-rule:nonzero;stroke:none"
             id="path86"
             inkscape:connector-curvature="0" /></g><g
           id="g88"
           transform="translate(322.1184,123.5731)"><path
             d="m 0,0 c -0.307,-0.327 -0.46,-0.776 -0.46,-1.349 0,-0.573 0.153,-1.022 0.46,-1.349 0.307,-0.326 0.716,-0.49 1.228,-0.49 0.323,0 0.612,0.076 0.869,0.227 0.256,0.152 0.458,0.365 0.605,0.642 0.149,0.276 0.223,0.599 0.223,0.97 0,0.364 -0.074,0.685 -0.223,0.965 C 2.555,-0.104 2.353,0.111 2.097,0.263 1.84,0.414 1.551,0.49 1.228,0.49 0.716,0.49 0.307,0.326 0,0 M 2.167,1.126 C 2.524,0.877 2.776,0.547 2.925,0.137 V 1.43 H 4.076 V -4.138 H 2.925 v 1.293 C 2.776,-3.255 2.524,-3.586 2.167,-3.835 1.81,-4.084 1.379,-4.208 0.874,-4.208 c -0.485,0 -0.918,0.114 -1.299,0.343 -0.381,0.229 -0.679,0.559 -0.893,0.99 -0.216,0.432 -0.325,0.94 -0.325,1.526 0,0.579 0.109,1.084 0.325,1.516 0.214,0.431 0.512,0.761 0.893,0.989 C -0.044,1.386 0.389,1.5 0.874,1.5 1.379,1.5 1.81,1.376 2.167,1.126"
             style="fill:#ffffff;fill-opacity:1;fill-rule:nonzero;stroke:none"
             id="path90"
             inkscape:connector-curvature="0" /></g><g
           id="g92"
           transform="translate(331.9143,123.8358)"><path
             d="m 0,0 c -0.257,-0.151 -0.458,-0.367 -0.606,-0.646 -0.149,-0.281 -0.223,-0.602 -0.223,-0.965 0,-0.371 0.074,-0.695 0.223,-0.971 0.148,-0.276 0.349,-0.489 0.606,-0.642 0.256,-0.151 0.545,-0.226 0.868,-0.226 0.513,0 0.923,0.163 1.234,0.489 0.309,0.327 0.464,0.776 0.464,1.35 0,0.565 -0.155,1.013 -0.464,1.343 C 1.791,0.062 1.381,0.228 0.868,0.228 0.545,0.228 0.256,0.151 0,0 M 2.521,0.894 C 2.901,0.665 3.199,0.335 3.415,-0.096 3.63,-0.527 3.738,-1.032 3.738,-1.611 3.738,-2.197 3.63,-2.706 3.415,-3.138 3.199,-3.568 2.901,-3.898 2.521,-4.128 2.14,-4.356 1.707,-4.471 1.223,-4.471 c -0.506,0 -0.937,0.124 -1.294,0.373 -0.357,0.249 -0.607,0.58 -0.747,0.991 v -3.941 h -1.153 v 8.215 h 1.153 v -1.293 c 0.14,0.41 0.39,0.74 0.747,0.989 0.357,0.25 0.788,0.374 1.294,0.374 0.484,0 0.917,-0.114 1.298,-0.343"
             style="fill:#ffffff;fill-opacity:1;fill-rule:nonzero;stroke:none"
             id="path94"
             inkscape:connector-curvature="0" /></g><g
           id="g96"
           transform="translate(338.4915,123.8709)"><path
             d="m 0,0 c -0.249,-0.135 -0.45,-0.342 -0.602,-0.621 -0.151,-0.28 -0.227,-0.622 -0.227,-1.025 0,-0.412 0.076,-0.755 0.227,-1.032 0.152,-0.276 0.353,-0.481 0.602,-0.616 0.249,-0.135 0.521,-0.202 0.818,-0.202 0.296,0 0.57,0.067 0.819,0.202 0.249,0.135 0.449,0.34 0.601,0.616 0.152,0.277 0.227,0.62 0.227,1.032 0,0.403 -0.075,0.745 -0.227,1.025 C 2.086,-0.342 1.886,-0.135 1.637,0 1.388,0.135 1.114,0.202 0.818,0.202 0.521,0.202 0.249,0.135 0,0 M 2.273,0.858 C 2.704,0.63 3.041,0.3 3.283,-0.131 3.526,-0.562 3.647,-1.067 3.647,-1.646 3.647,-2.232 3.526,-2.741 3.283,-3.173 3.041,-3.604 2.704,-3.934 2.273,-4.163 1.842,-4.392 1.357,-4.506 0.818,-4.506 c -0.539,0 -1.022,0.114 -1.45,0.343 -0.428,0.229 -0.764,0.561 -1.01,0.995 -0.246,0.435 -0.369,0.941 -0.369,1.522 0,0.579 0.123,1.084 0.369,1.515 0.246,0.431 0.582,0.761 1.01,0.989 0.428,0.23 0.911,0.344 1.45,0.344 0.539,0 1.024,-0.114 1.455,-0.344"
             style="fill:#ffffff;fill-opacity:1;fill-rule:nonzero;stroke:none"
             id="path98"
             inkscape:connector-curvature="0" /></g><g
           id="g100"
           transform="translate(345.2102,124.7752)"><path
             d="M 0,0 C 0.351,0.212 0.755,0.318 1.213,0.318 V -0.935 H 0.869 c -0.505,0 -0.911,-0.123 -1.218,-0.369 -0.306,-0.245 -0.459,-0.651 -0.459,-1.217 V -5.34 H -1.96 v 5.568 h 1.152 V -0.864 C -0.619,-0.5 -0.35,-0.212 0,0"
             style="fill:#ffffff;fill-opacity:1;fill-rule:nonzero;stroke:none"
             id="path102"
             inkscape:connector-curvature="0" /></g><g
           id="g104"
           transform="translate(354.7786,125.0027)"><path
             d="m 0,0 v -5.567 h -1.162 v 1.213 c -0.142,-0.412 -0.387,-0.73 -0.737,-0.956 -0.351,-0.225 -0.758,-0.338 -1.223,-0.338 -0.647,0 -1.165,0.209 -1.556,0.627 -0.39,0.417 -0.586,1.013 -0.586,1.788 V 0 h 1.152 v -3.112 c 0,-0.505 0.128,-0.894 0.383,-1.167 0.256,-0.273 0.607,-0.409 1.051,-0.409 0.458,0 0.825,0.148 1.102,0.444 0.276,0.297 0.414,0.727 0.414,1.294 V 0 Z"
             style="fill:#ffffff;fill-opacity:1;fill-rule:nonzero;stroke:none"
             id="path106"
             inkscape:connector-curvature="0" /></g><g
           id="g108"
           transform="translate(360.8303,124.4666)"><path
             d="m 0,0 c 0.391,-0.417 0.586,-1.014 0.586,-1.788 v -3.243 h -1.151 v 3.122 c 0,0.498 -0.128,0.884 -0.384,1.157 -0.257,0.273 -0.607,0.409 -1.051,0.409 -0.459,0 -0.825,-0.146 -1.102,-0.439 -0.276,-0.293 -0.414,-0.723 -0.414,-1.289 v -2.96 h -1.152 v 5.567 h 1.152 v -1.223 c 0.148,0.418 0.398,0.742 0.747,0.97 0.351,0.23 0.755,0.344 1.213,0.344 C -0.909,0.627 -0.391,0.418 0,0"
             style="fill:#ffffff;fill-opacity:1;fill-rule:nonzero;stroke:none"
             id="path110"
             inkscape:connector-curvature="0" /></g><g
           id="g112"
           transform="translate(364.1194,123.5731)"><path
             d="m 0,0 c -0.307,-0.327 -0.46,-0.776 -0.46,-1.349 0,-0.573 0.153,-1.022 0.46,-1.349 0.307,-0.326 0.716,-0.49 1.228,-0.49 0.323,0 0.613,0.076 0.869,0.227 0.256,0.152 0.458,0.365 0.606,0.642 0.149,0.276 0.223,0.599 0.223,0.97 0,0.364 -0.074,0.685 -0.223,0.965 C 2.555,-0.104 2.353,0.111 2.097,0.263 1.841,0.414 1.551,0.49 1.228,0.49 0.716,0.49 0.307,0.326 0,0 M 2.168,1.126 C 2.524,0.877 2.777,0.547 2.926,0.137 V 1.43 H 4.077 V -4.138 H 2.926 v 1.293 C 2.777,-3.255 2.524,-3.586 2.168,-3.835 1.811,-4.084 1.38,-4.208 0.874,-4.208 c -0.484,0 -0.918,0.114 -1.298,0.343 -0.381,0.229 -0.679,0.559 -0.894,0.99 -0.216,0.432 -0.324,0.94 -0.324,1.526 0,0.579 0.108,1.084 0.324,1.516 0.215,0.431 0.513,0.761 0.894,0.989 C -0.044,1.386 0.39,1.5 0.874,1.5 1.38,1.5 1.811,1.376 2.168,1.126"
             style="fill:#ffffff;fill-opacity:1;fill-rule:nonzero;stroke:none"
             id="path114"
             inkscape:connector-curvature="0" /></g><g
           id="g116"
           transform="translate(372.0305,126.1443)"><path
             d="m 0,0 c -0.138,0.121 -0.207,0.279 -0.207,0.475 0,0.195 0.069,0.357 0.207,0.485 0.138,0.128 0.318,0.191 0.541,0.191 0.222,0 0.4,-0.063 0.535,-0.191 C 1.211,0.832 1.278,0.67 1.278,0.475 1.278,0.279 1.211,0.121 1.076,0 0.941,-0.121 0.763,-0.182 0.541,-0.182 0.318,-0.182 0.138,-0.121 0,0 m -1.076,-8.346 h 0.394 c 0.222,0 0.385,0.049 0.491,0.147 0.103,0.097 0.156,0.264 0.156,0.5 v 6.557 h 1.162 v -6.567 c 0,-1.098 -0.553,-1.647 -1.657,-1.647 h -0.546 z"
             style="fill:#ffffff;fill-opacity:1;fill-rule:nonzero;stroke:none"
             id="path118"
             inkscape:connector-curvature="0" /></g><g
           id="g120"
           transform="translate(379.6643,125.0027)"><path
             d="m 0,0 v -5.567 h -1.162 v 1.213 C -1.304,-4.766 -1.55,-5.084 -1.9,-5.31 c -0.35,-0.225 -0.757,-0.338 -1.222,-0.338 -0.648,0 -1.166,0.209 -1.557,0.627 -0.39,0.417 -0.586,1.013 -0.586,1.788 V 0 h 1.153 v -3.112 c 0,-0.505 0.128,-0.894 0.383,-1.167 0.256,-0.273 0.607,-0.409 1.051,-0.409 0.458,0 0.825,0.148 1.102,0.444 0.275,0.297 0.414,0.727 0.414,1.294 V 0 Z"
             style="fill:#ffffff;fill-opacity:1;fill-rule:nonzero;stroke:none"
             id="path122"
             inkscape:connector-curvature="0" /></g><g
           id="g124"
           transform="translate(384.4485,124.5731)"><path
             d="m 0,0 c 0.394,-0.333 0.635,-0.779 0.722,-1.339 h -1.091 c -0.047,0.304 -0.177,0.548 -0.389,0.733 -0.213,0.185 -0.494,0.278 -0.844,0.278 -0.29,0 -0.513,-0.069 -0.671,-0.207 -0.159,-0.139 -0.238,-0.325 -0.238,-0.561 0,-0.175 0.057,-0.317 0.172,-0.425 0.114,-0.107 0.257,-0.192 0.429,-0.252 0.172,-0.061 0.416,-0.128 0.732,-0.203 0.418,-0.093 0.757,-0.191 1.016,-0.293 0.26,-0.1 0.481,-0.26 0.667,-0.479 0.185,-0.219 0.278,-0.518 0.278,-0.895 0,-0.464 -0.178,-0.841 -0.531,-1.131 -0.354,-0.289 -0.83,-0.434 -1.43,-0.434 -0.693,0 -1.254,0.161 -1.681,0.484 -0.428,0.324 -0.686,0.775 -0.774,1.355 h 1.122 c 0.033,-0.304 0.168,-0.55 0.404,-0.738 0.236,-0.189 0.545,-0.283 0.929,-0.283 0.277,0 0.494,0.073 0.653,0.217 0.158,0.145 0.237,0.328 0.237,0.551 0,0.195 -0.061,0.351 -0.182,0.465 -0.122,0.114 -0.273,0.203 -0.455,0.267 -0.181,0.065 -0.43,0.13 -0.748,0.198 -0.403,0.093 -0.732,0.188 -0.984,0.283 -0.253,0.094 -0.469,0.247 -0.648,0.459 -0.177,0.213 -0.267,0.5 -0.267,0.864 0,0.472 0.176,0.854 0.53,1.147 C -2.688,0.354 -2.198,0.5 -1.571,0.5 -0.918,0.5 -0.395,0.334 0,0"
             style="fill:#ffffff;fill-opacity:1;fill-rule:nonzero;stroke:none"
             id="path126"
             inkscape:connector-curvature="0" /></g><g
           id="g128"
           transform="translate(389.1819,120.4354)"><path
             d="m 0,0 v -1 h -0.708 c -0.593,0 -1.042,0.143 -1.349,0.43 -0.306,0.286 -0.46,0.762 -0.46,1.429 v 2.728 h -0.797 v 0.98 h 0.797 v 1.384 h 1.163 V 4.567 h 1.343 V 3.587 H -1.354 V 0.839 c 0,-0.317 0.058,-0.535 0.176,-0.656 C -1.06,0.061 -0.853,0 -0.556,0 Z"
             style="fill:#ffffff;fill-opacity:1;fill-rule:nonzero;stroke:none"
             id="path130"
             inkscape:connector-curvature="0" /></g><path
           d="m 391.414,119.435 h -1.151 v 5.567 h 1.151 z m -1.111,7.669 c 0.135,0.128 0.313,0.192 0.535,0.192 0.223,0 0.402,-0.064 0.541,-0.192 0.138,-0.128 0.207,-0.29 0.207,-0.485 0,-0.195 -0.069,-0.354 -0.207,-0.475 -0.139,-0.121 -0.318,-0.181 -0.541,-0.181 -0.222,0 -0.4,0.06 -0.535,0.181 -0.135,0.121 -0.202,0.28 -0.202,0.475 0,0.195 0.067,0.357 0.202,0.485"
           style="fill:#ffffff;fill-opacity:1;fill-rule:nonzero;stroke:none"
           id="path132"
           inkscape:connector-curvature="0" /><g
           id="g134"
           transform="translate(397.0725,124.5027)"><path
             d="m 0,0 c 0.472,-0.381 0.765,-0.898 0.879,-1.551 h -1.222 c -0.067,0.35 -0.231,0.624 -0.49,0.823 -0.26,0.199 -0.585,0.298 -0.976,0.298 -0.444,0 -0.814,-0.156 -1.111,-0.469 -0.296,-0.314 -0.444,-0.774 -0.444,-1.379 0,-0.607 0.148,-1.069 0.444,-1.385 0.297,-0.316 0.667,-0.475 1.111,-0.475 0.391,0 0.716,0.101 0.976,0.303 0.259,0.202 0.423,0.479 0.49,0.829 H 0.879 C 0.765,-3.659 0.472,-4.179 0,-4.562 c -0.472,-0.384 -1.067,-0.576 -1.788,-0.576 -0.539,0 -1.016,0.115 -1.43,0.343 -0.414,0.23 -0.739,0.56 -0.974,0.99 -0.237,0.432 -0.355,0.941 -0.355,1.527 0,0.579 0.118,1.084 0.355,1.515 0.235,0.431 0.56,0.761 0.974,0.99 0.414,0.229 0.891,0.343 1.43,0.343 C -1.067,0.57 -0.472,0.38 0,0"
             style="fill:#ffffff;fill-opacity:1;fill-rule:nonzero;stroke:none"
             id="path136"
             inkscape:connector-curvature="0" /></g><path
           d="m 400.215,119.435 h -1.152 v 5.567 h 1.152 z m -1.111,7.669 c 0.134,0.128 0.312,0.192 0.535,0.192 0.223,0 0.402,-0.064 0.54,-0.192 0.139,-0.128 0.208,-0.29 0.208,-0.485 0,-0.195 -0.069,-0.354 -0.208,-0.475 -0.138,-0.121 -0.317,-0.181 -0.54,-0.181 -0.223,0 -0.401,0.06 -0.535,0.181 -0.136,0.121 -0.202,0.28 -0.202,0.475 0,0.195 0.066,0.357 0.202,0.485"
           style="fill:#ffffff;fill-opacity:1;fill-rule:nonzero;stroke:none"
           id="path138"
           inkscape:connector-curvature="0" /><g
           id="g140"
           transform="translate(402.968,123.5731)"><path
             d="m 0,0 c -0.307,-0.327 -0.46,-0.776 -0.46,-1.349 0,-0.573 0.153,-1.022 0.46,-1.349 0.307,-0.326 0.716,-0.49 1.228,-0.49 0.323,0 0.613,0.076 0.869,0.227 0.256,0.152 0.458,0.365 0.606,0.642 0.149,0.276 0.223,0.599 0.223,0.97 0,0.364 -0.074,0.685 -0.223,0.965 C 2.555,-0.104 2.353,0.111 2.097,0.263 1.841,0.414 1.551,0.49 1.228,0.49 0.716,0.49 0.307,0.326 0,0 M 2.168,1.126 C 2.524,0.877 2.777,0.547 2.926,0.137 V 1.43 H 4.077 V -4.138 H 2.926 v 1.293 C 2.777,-3.255 2.524,-3.586 2.168,-3.835 1.811,-4.084 1.38,-4.208 0.874,-4.208 c -0.484,0 -0.918,0.114 -1.298,0.343 -0.381,0.229 -0.679,0.559 -0.894,0.99 -0.216,0.432 -0.324,0.94 -0.324,1.526 0,0.579 0.108,1.084 0.324,1.516 0.215,0.431 0.513,0.761 0.894,0.989 C -0.044,1.386 0.39,1.5 0.874,1.5 1.38,1.5 1.811,1.376 2.168,1.126"
             style="fill:#ffffff;fill-opacity:1;fill-rule:nonzero;stroke:none"
             id="path142"
             inkscape:connector-curvature="0" /></g><g
           id="g144"
           transform="translate(273.2014,105.9373)"><path
             d="m 0,0 v -1.223 h -0.748 c -0.626,0 -1.106,0.152 -1.44,0.455 -0.333,0.303 -0.5,0.808 -0.5,1.516 v 2.425 h -0.778 v 1.202 h 0.778 v 1.384 h 1.425 V 4.375 H -0.01 V 3.173 H -1.263 V 0.728 c 0,-0.27 0.054,-0.458 0.161,-0.567 C -0.994,0.054 -0.812,0 -0.556,0 Z"
             style="fill:#ffffff;fill-opacity:1;fill-rule:nonzero;stroke:none"
             id="path146"
             inkscape:connector-curvature="0" /></g><g
           id="g148"
           transform="translate(276.4749,110.0848)"><path
             d="M 0,0 C 0.344,0.205 0.728,0.309 1.152,0.309 V -1.218 H 0.737 c -1.044,0 -1.565,-0.484 -1.565,-1.455 V -5.37 h -1.425 v 5.598 h 1.425 V -0.844 C -0.62,-0.486 -0.344,-0.205 0,0"
             style="fill:#ffffff;fill-opacity:1;fill-rule:nonzero;stroke:none"
             id="path150"
             inkscape:connector-curvature="0" /></g><g
           id="g152"
           transform="translate(279.9807,108.7059)"><path
             d="m 0,0 c -0.27,-0.29 -0.404,-0.687 -0.404,-1.192 0,-0.505 0.134,-0.902 0.404,-1.188 0.27,-0.286 0.627,-0.429 1.071,-0.429 0.431,0 0.786,0.147 1.066,0.44 0.28,0.293 0.42,0.684 0.42,1.177 0,0.498 -0.14,0.894 -0.42,1.187 C 1.857,0.288 1.502,0.435 1.071,0.435 0.627,0.435 0.27,0.289 0,0 M 1.839,1.344 C 2.176,1.121 2.415,0.821 2.557,0.444 V 1.606 H 3.971 V -3.991 H 2.557 v 1.172 C 2.415,-3.196 2.176,-3.498 1.839,-3.724 1.502,-3.949 1.098,-4.062 0.627,-4.062 c -0.472,0 -0.897,0.115 -1.273,0.343 -0.377,0.23 -0.672,0.562 -0.884,0.995 -0.213,0.435 -0.319,0.946 -0.319,1.532 0,0.586 0.106,1.096 0.319,1.53 0.212,0.434 0.507,0.766 0.884,0.996 0.376,0.228 0.801,0.343 1.273,0.343 0.471,0 0.875,-0.111 1.212,-0.333"
             style="fill:#ffffff;fill-opacity:1;fill-rule:nonzero;stroke:none"
             id="path154"
             inkscape:connector-curvature="0" /></g><g
           id="g156"
           transform="translate(290.1252,109.7567)"><path
             d="m 0,0 c 0.384,-0.425 0.575,-1.021 0.575,-1.788 v -3.254 h -1.414 v 3.092 c 0,0.444 -0.114,0.79 -0.344,1.035 -0.228,0.246 -0.542,0.369 -0.939,0.369 -0.404,0 -0.728,-0.131 -0.97,-0.393 -0.243,-0.263 -0.364,-0.641 -0.364,-1.132 v -2.971 h -1.425 v 5.598 h 1.425 v -1.122 c 0.148,0.378 0.393,0.671 0.732,0.884 0.341,0.212 0.733,0.319 1.178,0.319 C -0.899,0.637 -0.384,0.424 0,0"
             style="fill:#ffffff;fill-opacity:1;fill-rule:nonzero;stroke:none"
             id="path158"
             inkscape:connector-curvature="0" /></g><g
           id="g160"
           transform="translate(295.5208,109.868)"><path
             d="m 0,0 c 0.41,-0.344 0.667,-0.802 0.768,-1.374 h -1.334 c -0.054,0.269 -0.175,0.484 -0.364,0.646 -0.188,0.162 -0.434,0.243 -0.737,0.243 -0.243,0 -0.432,-0.058 -0.566,-0.172 -0.135,-0.114 -0.203,-0.27 -0.203,-0.465 0,-0.155 0.054,-0.279 0.163,-0.374 0.107,-0.094 0.242,-0.168 0.404,-0.222 0.161,-0.054 0.393,-0.118 0.697,-0.192 0.424,-0.094 0.769,-0.194 1.035,-0.298 0.266,-0.105 0.495,-0.27 0.688,-0.495 0.191,-0.226 0.287,-0.53 0.287,-0.914 0,-0.479 -0.187,-0.866 -0.561,-1.162 -0.374,-0.297 -0.877,-0.445 -1.51,-0.445 -0.728,0 -1.31,0.163 -1.747,0.49 -0.439,0.327 -0.705,0.794 -0.799,1.399 h 1.364 c 0.033,-0.276 0.154,-0.493 0.363,-0.651 0.209,-0.159 0.482,-0.238 0.819,-0.238 0.243,0 0.427,0.059 0.555,0.177 0.128,0.118 0.193,0.272 0.193,0.46 0,0.161 -0.056,0.293 -0.167,0.394 -0.111,0.101 -0.249,0.178 -0.414,0.232 -0.165,0.054 -0.4,0.118 -0.703,0.192 -0.418,0.094 -0.755,0.191 -1.015,0.289 -0.259,0.097 -0.482,0.253 -0.667,0.469 -0.185,0.215 -0.278,0.512 -0.278,0.889 0,0.485 0.186,0.879 0.556,1.183 0.37,0.302 0.882,0.454 1.536,0.454 C -0.957,0.515 -0.411,0.343 0,0"
             style="fill:#ffffff;fill-opacity:1;fill-rule:nonzero;stroke:none"
             id="path162"
             inkscape:connector-curvature="0" /></g><g
           id="g164"
           transform="translate(299.2532,108.701)"><path
             d="m 0,0 c -0.279,-0.293 -0.419,-0.689 -0.419,-1.187 0,-0.493 0.14,-0.884 0.419,-1.177 0.279,-0.293 0.635,-0.44 1.066,-0.44 0.445,0 0.802,0.143 1.072,0.429 0.268,0.286 0.403,0.683 0.403,1.188 0,0.504 -0.135,0.902 -0.403,1.192 C 1.868,0.294 1.511,0.439 1.066,0.439 0.635,0.439 0.279,0.293 0,0 M 2.784,1.339 C 3.161,1.109 3.456,0.777 3.668,0.343 3.88,-0.091 3.986,-0.602 3.986,-1.187 3.986,-1.773 3.88,-2.284 3.668,-2.719 3.456,-3.152 3.161,-3.484 2.784,-3.714 2.406,-3.942 1.982,-4.057 1.511,-4.057 c -0.472,0 -0.874,0.113 -1.207,0.338 -0.334,0.226 -0.572,0.528 -0.713,0.905 v -3.839 h -1.425 v 8.264 h 1.425 V 0.449 c 0.141,0.377 0.379,0.677 0.713,0.9 0.333,0.222 0.735,0.333 1.207,0.333 0.471,0 0.895,-0.115 1.273,-0.343"
             style="fill:#ffffff;fill-opacity:1;fill-rule:nonzero;stroke:none"
             id="path166"
             inkscape:connector-curvature="0" /></g><g
           id="g168"
           transform="translate(305.8157,108.7059)"><path
             d="m 0,0 c -0.27,-0.29 -0.404,-0.687 -0.404,-1.192 0,-0.505 0.134,-0.902 0.404,-1.188 0.27,-0.286 0.627,-0.429 1.071,-0.429 0.431,0 0.786,0.147 1.066,0.44 0.28,0.293 0.42,0.684 0.42,1.177 0,0.498 -0.14,0.894 -0.42,1.187 C 1.857,0.288 1.502,0.435 1.071,0.435 0.627,0.435 0.27,0.289 0,0 M 1.839,1.344 C 2.176,1.121 2.415,0.821 2.557,0.444 V 1.606 H 3.971 V -3.991 H 2.557 v 1.172 C 2.415,-3.196 2.176,-3.498 1.839,-3.724 1.502,-3.949 1.098,-4.062 0.627,-4.062 c -0.472,0 -0.897,0.115 -1.273,0.343 -0.377,0.23 -0.672,0.562 -0.884,0.995 -0.213,0.435 -0.319,0.946 -0.319,1.532 0,0.586 0.106,1.096 0.319,1.53 0.212,0.434 0.507,0.766 0.884,0.996 0.376,0.228 0.801,0.343 1.273,0.343 0.471,0 0.875,-0.111 1.212,-0.333"
             style="fill:#ffffff;fill-opacity:1;fill-rule:nonzero;stroke:none"
             id="path170"
             inkscape:connector-curvature="0" /></g><g
           id="g172"
           transform="translate(313.3333,110.0848)"><path
             d="M 0,0 C 0.344,0.205 0.728,0.309 1.152,0.309 V -1.218 H 0.737 c -1.044,0 -1.565,-0.484 -1.565,-1.455 V -5.37 h -1.425 v 5.598 h 1.425 V -0.844 C -0.62,-0.486 -0.344,-0.205 0,0"
             style="fill:#ffffff;fill-opacity:1;fill-rule:nonzero;stroke:none"
             id="path174"
             inkscape:connector-curvature="0" /></g><g
           id="g176"
           transform="translate(318.7434,108.908)"><path
             d="M 0,0 C -0.259,0.235 -0.577,0.354 -0.954,0.354 -1.338,0.354 -1.662,0.235 -1.925,0 -2.188,-0.236 -2.332,-0.583 -2.358,-1.041 H 0.359 C 0.379,-0.583 0.26,-0.236 0,0 m 1.743,-1.667 h -4.101 c 0.019,-0.499 0.154,-0.866 0.403,-1.102 0.249,-0.236 0.559,-0.353 0.93,-0.353 0.33,0 0.604,0.08 0.823,0.242 0.22,0.162 0.359,0.381 0.42,0.657 H 1.723 C 1.648,-2.614 1.49,-2.964 1.248,-3.273 1.006,-3.584 0.694,-3.826 0.313,-4.001 c -0.38,-0.176 -0.802,-0.263 -1.267,-0.263 -0.546,0 -1.031,0.117 -1.455,0.349 -0.425,0.231 -0.755,0.563 -0.99,0.995 -0.237,0.431 -0.354,0.94 -0.354,1.525 0,0.586 0.117,1.097 0.354,1.531 0.235,0.434 0.565,0.766 0.99,0.996 0.424,0.228 0.909,0.343 1.455,0.343 0.552,0 1.035,-0.115 1.449,-0.343 0.415,-0.23 0.734,-0.545 0.96,-0.945 0.226,-0.401 0.339,-0.858 0.339,-1.37 0,-0.141 -0.017,-0.302 -0.051,-0.484"
             style="fill:#ffffff;fill-opacity:1;fill-rule:nonzero;stroke:none"
             id="path178"
             inkscape:connector-curvature="0" /></g><g
           id="g180"
           transform="translate(326.428,109.7567)"><path
             d="m 0,0 c 0.384,-0.425 0.575,-1.021 0.575,-1.788 v -3.254 h -1.414 v 3.092 c 0,0.444 -0.114,0.79 -0.344,1.035 -0.228,0.246 -0.542,0.369 -0.939,0.369 -0.404,0 -0.728,-0.131 -0.97,-0.393 -0.243,-0.263 -0.364,-0.641 -0.364,-1.132 v -2.971 h -1.425 v 5.598 h 1.425 v -1.122 c 0.148,0.378 0.393,0.671 0.732,0.884 0.341,0.212 0.733,0.319 1.178,0.319 C -0.899,0.637 -0.384,0.424 0,0"
             style="fill:#ffffff;fill-opacity:1;fill-rule:nonzero;stroke:none"
             id="path182"
             inkscape:connector-curvature="0" /></g><g
           id="g184"
           transform="translate(331.2473,105.9373)"><path
             d="m 0,0 v -1.223 h -0.748 c -0.626,0 -1.106,0.152 -1.44,0.455 -0.333,0.303 -0.5,0.808 -0.5,1.516 v 2.425 h -0.778 v 1.202 h 0.778 v 1.384 h 1.425 V 4.375 H -0.01 V 3.173 H -1.263 V 0.728 c 0,-0.27 0.054,-0.458 0.161,-0.567 C -0.994,0.054 -0.812,0 -0.556,0 Z"
             style="fill:#ffffff;fill-opacity:1;fill-rule:nonzero;stroke:none"
             id="path186"
             inkscape:connector-curvature="0" /></g><g
           id="g188"
           transform="translate(335.7375,108.908)"><path
             d="M 0,0 C -0.259,0.235 -0.577,0.354 -0.954,0.354 -1.338,0.354 -1.662,0.235 -1.925,0 -2.188,-0.236 -2.332,-0.583 -2.358,-1.041 H 0.359 C 0.379,-0.583 0.26,-0.236 0,0 m 1.743,-1.667 h -4.101 c 0.019,-0.499 0.154,-0.866 0.403,-1.102 0.249,-0.236 0.559,-0.353 0.93,-0.353 0.33,0 0.604,0.08 0.823,0.242 0.22,0.162 0.359,0.381 0.42,0.657 H 1.723 C 1.648,-2.614 1.49,-2.964 1.248,-3.273 1.006,-3.584 0.694,-3.826 0.313,-4.001 c -0.38,-0.176 -0.802,-0.263 -1.267,-0.263 -0.546,0 -1.031,0.117 -1.455,0.349 -0.425,0.231 -0.755,0.563 -0.99,0.995 -0.237,0.431 -0.354,0.94 -0.354,1.525 0,0.586 0.117,1.097 0.354,1.531 0.235,0.434 0.565,0.766 0.99,0.996 0.424,0.228 0.909,0.343 1.455,0.343 0.552,0 1.035,-0.115 1.449,-0.343 0.415,-0.23 0.734,-0.545 0.96,-0.945 0.226,-0.401 0.339,-0.858 0.339,-1.37 0,-0.141 -0.017,-0.302 -0.051,-0.484"
             style="fill:#ffffff;fill-opacity:1;fill-rule:nonzero;stroke:none"
             id="path190"
             inkscape:connector-curvature="0" /></g><g
           id="g192"
           transform="translate(341.7043,110.3123)"><path
             d="M 0,0 1.525,-3.799 2.94,0 H 4.506 L 1.081,-8.265 H -0.495 L 0.768,-5.436 -1.587,0 Z"
             style="fill:#ffffff;fill-opacity:1;fill-rule:nonzero;stroke:none"
             id="path194"
             inkscape:connector-curvature="0" /></g><g
           id="g196"
           transform="translate(350.6458,108.7059)"><path
             d="m 0,0 c -0.27,-0.29 -0.404,-0.687 -0.404,-1.192 0,-0.505 0.134,-0.902 0.404,-1.188 0.27,-0.286 0.627,-0.429 1.071,-0.429 0.431,0 0.786,0.147 1.066,0.44 0.28,0.293 0.42,0.684 0.42,1.177 0,0.498 -0.14,0.894 -0.42,1.187 C 1.857,0.288 1.502,0.435 1.071,0.435 0.627,0.435 0.27,0.289 0,0 M 1.839,1.344 C 2.176,1.121 2.415,0.821 2.557,0.444 V 1.606 H 3.971 V -3.991 H 2.557 v 1.172 C 2.415,-3.196 2.176,-3.498 1.839,-3.724 1.502,-3.949 1.098,-4.062 0.627,-4.062 c -0.472,0 -0.897,0.115 -1.273,0.343 -0.377,0.23 -0.672,0.562 -0.884,0.995 -0.213,0.435 -0.319,0.946 -0.319,1.532 0,0.586 0.106,1.096 0.319,1.53 0.212,0.434 0.507,0.766 0.884,0.996 0.376,0.228 0.801,0.343 1.273,0.343 0.471,0 0.875,-0.111 1.212,-0.333"
             style="fill:#ffffff;fill-opacity:1;fill-rule:nonzero;stroke:none"
             id="path198"
             inkscape:connector-curvature="0" /></g><g
           id="g200"
           transform="translate(357.7434,108.701)"><path
             d="m 0,0 c -0.279,-0.293 -0.419,-0.689 -0.419,-1.187 0,-0.493 0.14,-0.884 0.419,-1.177 0.279,-0.293 0.635,-0.44 1.066,-0.44 0.445,0 0.802,0.143 1.072,0.429 0.268,0.286 0.403,0.683 0.403,1.188 0,0.504 -0.135,0.902 -0.403,1.192 C 1.868,0.294 1.511,0.439 1.066,0.439 0.635,0.439 0.279,0.293 0,0 M 2.784,1.339 C 3.161,1.109 3.456,0.777 3.668,0.343 3.88,-0.091 3.986,-0.602 3.986,-1.187 3.986,-1.773 3.88,-2.284 3.668,-2.719 3.456,-3.152 3.161,-3.484 2.784,-3.714 2.406,-3.942 1.982,-4.057 1.511,-4.057 c -0.472,0 -0.874,0.113 -1.207,0.338 -0.334,0.226 -0.572,0.528 -0.713,0.905 V -3.986 H -1.834 V 3.49 h 1.425 V 0.449 c 0.141,0.377 0.379,0.677 0.713,0.9 0.333,0.222 0.735,0.333 1.207,0.333 0.471,0 0.895,-0.115 1.273,-0.343"
             style="fill:#ffffff;fill-opacity:1;fill-rule:nonzero;stroke:none"
             id="path202"
             inkscape:connector-curvature="0" /></g><path
           d="m 364.164,104.715 h -1.425 v 5.598 h 1.425 z m -1.343,7.764 c 0.162,0.145 0.374,0.218 0.636,0.218 0.263,0 0.475,-0.073 0.637,-0.218 0.161,-0.144 0.242,-0.332 0.242,-0.56 0,-0.223 -0.081,-0.406 -0.242,-0.551 -0.162,-0.145 -0.374,-0.217 -0.637,-0.217 -0.262,0 -0.474,0.072 -0.636,0.217 -0.162,0.145 -0.243,0.328 -0.243,0.551 0,0.228 0.081,0.416 0.243,0.56"
           style="fill:#ffffff;fill-opacity:1;fill-rule:nonzero;stroke:none"
           id="path204"
           inkscape:connector-curvature="0" /><g
           id="g206"
           transform="translate(368.929,108.908)"><path
             d="M 0,0 C -0.26,0.235 -0.578,0.354 -0.955,0.354 -1.339,0.354 -1.662,0.235 -1.925,0 -2.188,-0.236 -2.332,-0.583 -2.359,-1.041 H 0.358 C 0.379,-0.583 0.259,-0.236 0,0 m 1.743,-1.667 h -4.102 c 0.02,-0.499 0.155,-0.866 0.404,-1.102 0.249,-0.236 0.559,-0.353 0.93,-0.353 0.33,0 0.604,0.08 0.823,0.242 0.219,0.162 0.358,0.381 0.419,0.657 H 1.723 C 1.648,-2.614 1.49,-2.964 1.248,-3.273 1.005,-3.584 0.693,-3.826 0.313,-4.001 c -0.38,-0.176 -0.803,-0.263 -1.268,-0.263 -0.546,0 -1.03,0.117 -1.455,0.349 -0.424,0.231 -0.754,0.563 -0.99,0.995 -0.236,0.431 -0.354,0.94 -0.354,1.525 0,0.586 0.118,1.097 0.354,1.531 0.236,0.434 0.566,0.766 0.99,0.996 0.425,0.228 0.909,0.343 1.455,0.343 0.553,0 1.036,-0.115 1.45,-0.343 0.414,-0.23 0.734,-0.545 0.96,-0.945 0.226,-0.401 0.338,-0.858 0.338,-1.37 0,-0.141 -0.017,-0.302 -0.05,-0.484"
             style="fill:#ffffff;fill-opacity:1;fill-rule:nonzero;stroke:none"
             id="path208"
             inkscape:connector-curvature="0" /></g><g
           id="g210"
           transform="translate(373.9856,110.0848)"><path
             d="M 0,0 C 0.343,0.205 0.728,0.309 1.151,0.309 V -1.218 H 0.737 c -1.044,0 -1.566,-0.484 -1.566,-1.455 V -5.37 h -1.425 v 5.598 h 1.425 V -0.844 C -0.62,-0.486 -0.344,-0.205 0,0"
             style="fill:#ffffff;fill-opacity:1;fill-rule:nonzero;stroke:none"
             id="path212"
             inkscape:connector-curvature="0" /></g><g
           id="g214"
           transform="translate(378.9163,105.9373)"><path
             d="m 0,0 v -1.223 h -0.748 c -0.626,0 -1.106,0.152 -1.44,0.455 -0.333,0.303 -0.5,0.808 -0.5,1.516 v 2.425 h -0.778 v 1.202 h 0.778 v 1.384 h 1.425 V 4.375 H -0.01 V 3.173 H -1.263 V 0.728 c 0,-0.27 0.054,-0.458 0.161,-0.567 C -0.994,0.054 -0.812,0 -0.556,0 Z"
             style="fill:#ffffff;fill-opacity:1;fill-rule:nonzero;stroke:none"
             id="path216"
             inkscape:connector-curvature="0" /></g><g
           id="g218"
           transform="translate(381.5022,108.7059)"><path
             d="m 0,0 c -0.27,-0.29 -0.404,-0.687 -0.404,-1.192 0,-0.505 0.134,-0.902 0.404,-1.188 0.27,-0.286 0.627,-0.429 1.071,-0.429 0.431,0 0.786,0.147 1.066,0.44 0.28,0.293 0.42,0.684 0.42,1.177 0,0.498 -0.14,0.894 -0.42,1.187 C 1.857,0.288 1.502,0.435 1.071,0.435 0.627,0.435 0.27,0.289 0,0 M 1.839,1.344 C 2.176,1.121 2.415,0.821 2.557,0.444 V 1.606 H 3.971 V -3.991 H 2.557 v 1.172 C 2.415,-3.196 2.176,-3.498 1.839,-3.724 1.502,-3.949 1.098,-4.062 0.627,-4.062 c -0.472,0 -0.897,0.115 -1.273,0.343 -0.377,0.23 -0.672,0.562 -0.884,0.995 -0.213,0.435 -0.319,0.946 -0.319,1.532 0,0.586 0.106,1.096 0.319,1.53 0.212,0.434 0.507,0.766 0.884,0.996 0.376,0.228 0.801,0.343 1.273,0.343 0.471,0 0.875,-0.111 1.212,-0.333"
             style="fill:#ffffff;fill-opacity:1;fill-rule:nonzero;stroke:none"
             id="path220"
             inkscape:connector-curvature="0" /></g><path
           d="M 408.09,138.622 H 269.565 v 1.225 H 408.09 Z"
           style="fill:#ffffff;fill-opacity:1;fill-rule:nonzero;stroke:none"
           id="path222"
           inkscape:connector-curvature="0" /></g></g></g></svg>