<?xml version="1.0" encoding="UTF-8" standalone="no"?>
<!-- Generator: Adobe Illustrator 21.1.0, SVG Export Plug-In . SVG Version: 6.00 Build 0)  -->

<svg
   xmlns:dc="http://purl.org/dc/elements/1.1/"
   xmlns:cc="http://creativecommons.org/ns#"
   xmlns:rdf="http://www.w3.org/1999/02/22-rdf-syntax-ns#"
   xmlns:svg="http://www.w3.org/2000/svg"
   xmlns="http://www.w3.org/2000/svg"
   xmlns:sodipodi="http://sodipodi.sourceforge.net/DTD/sodipodi-0.dtd"
   xmlns:inkscape="http://www.inkscape.org/namespaces/inkscape"
   version="1.1"
   id="Layer_1"
   x="0px"
   y="0px"
   viewBox="0 0 700 221"
   style="enable-background:new 0 0 700 221;"
   xml:space="preserve"
   sodipodi:docname="logo-der-black.svg"
   inkscape:version="0.92.3 (2405546, 2018-03-11)"><metadata
   id="metadata67"><rdf:RDF><cc:Work
       rdf:about=""><dc:format>image/svg+xml</dc:format><dc:type
         rdf:resource="http://purl.org/dc/dcmitype/StillImage" /><dc:title></dc:title></cc:Work></rdf:RDF></metadata><defs
   id="defs65">
    
    
    
    
    
        
    
        
</defs><sodipodi:namedview
   pagecolor="#ffffff"
   bordercolor="#666666"
   borderopacity="1"
   objecttolerance="10"
   gridtolerance="10"
   guidetolerance="10"
   inkscape:pageopacity="0"
   inkscape:pageshadow="2"
   inkscape:window-width="1920"
   inkscape:window-height="1052"
   id="namedview63"
   showgrid="false"
   inkscape:zoom="0.48857143"
   inkscape:cx="350"
   inkscape:cy="110.5"
   inkscape:window-x="0"
   inkscape:window-y="0"
   inkscape:window-maximized="1"
   inkscape:current-layer="Layer_1" />
<style
   type="text/css"
   id="style2">
    .st0{fill-rule:evenodd;clip-rule:evenodd;fill:#FFFFFF;}
    .st1{fill:#FFFFFF;}
    .st2{fill:#F4CD45;}
    .st3{fill:#53C1B4;}
    .st4{fill:#3CA2DA;}
    .st5{fill:#F27057;}
    .st6{fill:#EA1B3B;}
    .st7{fill:#77549E;}
</style>
<path
   style="clip-rule:evenodd;fill:#ffffff;fill-rule:evenodd"
   inkscape:connector-curvature="0"
   id="path4"
   d="M 173.4,162.5 115,196.2 c -6.8,3.9 -15.8,3.9 -22.6,0 L 34,162.5 C 27.2,158.6 22.7,150.8 22.7,142.9 V 75.5 C 22.7,67.7 27.2,59.8 34,55.9 L 92.4,22.2 c 6.8,-3.9 15.8,-3.9 22.6,0 l 58.4,33.7 c 6.8,3.9 11.3,11.7 11.3,19.6 v 67.4 c -0.1,7.8 -4.6,15.6 -11.3,19.6"
   class="st0" /><g
   id="g38"
   style="fill:#000000">
        <g
   id="g36"
   style="fill:#000000">
            <path
   style="fill:#000000"
   inkscape:connector-curvature="0"
   id="path6"
   d="m 250.7,74.1 c 0,-3.2 -0.1,-5.7 -0.2,-7.5 -0.1,-1.8 -0.4,-3.4 -0.8,-4.9 -0.5,-1.5 -1.1,-2.8 -2,-3.8 -2.3,-2.5 -5.4,-3.8 -9.5,-3.8 H 228 v 40.7 h 10.2 c 4,0 7.2,-1.3 9.5,-3.8 1.3,-1.4 2.2,-3.4 2.5,-5.9 0.3,-2.5 0.5,-6.1 0.5,-11 m 8.4,0 v 2.8 c 0,3 -0.1,5.7 -0.3,7.9 -0.2,2.3 -0.8,4.5 -1.6,6.7 -0.8,2.2 -2.1,4.1 -3.7,5.8 -3.5,3.5 -8.3,5.3 -14.4,5.3 h -19.6 v -56 H 239 c 6.1,0 10.9,1.8 14.4,5.3 1.6,1.7 2.9,3.5 3.7,5.6 0.8,2.1 1.4,4.2 1.6,6.3 0.2,2.2 0.3,4.7 0.3,7.6 v 2.7 z"
   class="st1" />
            <polygon
   style="fill:#000000"
   id="polygon8"
   points="267.1,46.5 302.7,46.5 302.7,54.1 275.6,54.1 275.6,70.4 298.7,70.4 298.7,78 275.6,78 275.6,94.9 302.7,94.9 302.7,102.5 267.1,102.5 "
   class="st1" />
            <polygon
   style="fill:#000000"
   id="polygon10"
   points="352.7,65 339.9,92.4 333.6,92.4 320.5,65 320.5,102.5 312,102.5 312,46.5 320.5,46.5 336.8,81.3 352.7,46.5 361.2,46.5 361.2,102.5 352.7,102.5 "
   class="st1" />
            <path
   style="fill:#000000"
   inkscape:connector-curvature="0"
   id="path12"
   d="m 400.7,74.5 c 0,-5.6 -0.2,-9.5 -0.6,-11.8 -0.4,-2.3 -1.3,-4.1 -2.7,-5.6 -1,-1.1 -2.2,-1.9 -3.7,-2.5 -1.5,-0.6 -3,-0.9 -4.6,-0.9 -1.6,0 -3.1,0.3 -4.6,0.9 -1.5,0.6 -2.7,1.5 -3.7,2.5 -1.3,1.5 -2.2,3.4 -2.7,5.6 -0.4,2.3 -0.6,6.2 -0.6,11.7 0,3 0.1,5.3 0.1,7.1 0.1,1.8 0.3,3.3 0.5,4.7 0.3,1.3 0.6,2.4 0.9,3.1 0.4,0.8 0.9,1.6 1.7,2.5 1,1.1 2.3,1.9 3.7,2.5 1.5,0.6 3,0.9 4.6,0.9 3.4,0 6.1,-1.2 8.3,-3.5 0.9,-1 1.6,-2.1 2.1,-3.4 0.5,-1.3 0.8,-3 1,-5.2 0.3,-2.1 0.3,-5 0.3,-8.6 m 8.5,0 c 0,4.4 -0.1,7.8 -0.2,10.2 -0.2,2.3 -0.6,4.5 -1.4,6.6 -0.8,2.1 -2,4 -3.7,5.7 -4,4 -8.9,6 -14.7,6 -5.8,0 -10.7,-2 -14.6,-5.9 -1.7,-1.8 -3,-3.7 -3.7,-5.7 -0.8,-2 -1.2,-4.2 -1.4,-6.6 -0.2,-2.4 -0.3,-5.8 -0.3,-10.2 0,-3.4 0,-6.1 0.1,-8.1 0.1,-2 0.3,-3.8 0.6,-5.5 0.3,-1.7 0.8,-3.2 1.6,-4.7 0.7,-1.5 1.8,-2.9 3.1,-4.2 3.9,-4 8.8,-6 14.6,-6 5.8,0 10.7,2 14.7,6 1.7,1.8 2.9,3.7 3.7,5.7 0.8,2 1.2,4.2 1.4,6.6 0.1,2.2 0.2,5.6 0.2,10.1"
   class="st1" />
            <path
   style="fill:#000000"
   inkscape:connector-curvature="0"
   id="path14"
   d="m 457.3,85.7 c -0.4,2.8 -1.3,5.2 -2.5,7.4 -1.2,2.2 -2.6,4 -4.3,5.4 -1.7,1.5 -3.7,2.5 -5.9,3.3 -2.2,0.7 -4.6,1.1 -7.1,1.1 -1.9,0 -3.8,-0.2 -5.5,-0.7 -1.7,-0.5 -3.4,-1.1 -4.9,-2.1 -1.6,-0.9 -3,-2 -4.2,-3.2 -1.7,-1.8 -3,-3.7 -3.7,-5.7 -0.8,-2 -1.2,-4.2 -1.4,-6.6 -0.2,-2.4 -0.3,-5.8 -0.3,-10.2 0,-3.4 0.1,-6.1 0.1,-8.1 0.1,-2 0.3,-3.8 0.6,-5.5 0.3,-1.7 0.8,-3.2 1.6,-4.7 0.7,-1.5 1.8,-2.9 3.1,-4.2 1.9,-1.9 4.1,-3.4 6.6,-4.4 2.5,-1 5.1,-1.5 8,-1.5 5.2,0 9.6,1.5 13.1,4.5 3.5,3 5.8,7.2 6.7,12.8 h -8.6 c -0.7,-2.9 -2,-5.3 -3.9,-7 -1.9,-1.7 -4.4,-2.6 -7.3,-2.6 -1.6,0 -3.2,0.3 -4.6,0.9 -1.4,0.6 -2.6,1.4 -3.6,2.5 -0.7,0.8 -1.3,1.6 -1.7,2.5 -0.4,0.8 -0.7,1.9 -1,3.3 -0.3,1.4 -0.4,2.9 -0.5,4.6 -0.1,1.7 -0.1,4.1 -0.1,7.1 0,3 0,5.3 0.1,7 0.1,1.7 0.3,3.3 0.5,4.6 0.3,1.4 0.6,2.5 1,3.3 0.4,0.8 1,1.7 1.7,2.5 1,1.1 2.2,1.9 3.6,2.5 1.4,0.6 3,0.9 4.6,0.9 2,0 3.8,-0.4 5.3,-1.2 1.5,-0.8 2.8,-1.9 3.8,-3.4 1,-1.5 1.7,-3.1 2.2,-5 h 8.5 z"
   class="st1" />
            <path
   style="fill:#000000"
   inkscape:connector-curvature="0"
   id="path16"
   d="m 496.7,62.9 c 0,-2.7 -0.9,-4.9 -2.6,-6.5 -1.7,-1.6 -4,-2.4 -6.9,-2.4 h -12.5 v 17.5 h 12.5 c 2.9,0 5.1,-0.8 6.9,-2.3 1.8,-1.5 2.6,-3.6 2.6,-6.3 m 10.2,39.6 H 497 L 485.3,78.9 h -10.6 v 23.6 h -8.5 v -56 h 21.6 c 3.4,0 6.4,0.7 9.1,2.1 2.6,1.4 4.7,3.3 6.1,5.8 1.4,2.5 2.1,5.3 2.1,8.5 0,3.8 -1,7.1 -3.1,9.6 -2,2.6 -4.7,4.3 -8,5.2 z"
   class="st1" />
            <path
   style="fill:#000000"
   inkscape:connector-curvature="0"
   id="path18"
   d="M 543.3,84 534.9,59.1 526.2,84 Z m 15.2,18.5 h -9 l -3.8,-11.3 h -22 l -3.8,11.3 h -9 l 20.4,-56 h 6.8 z"
   class="st1" />
            <path
   style="fill:#000000"
   inkscape:connector-curvature="0"
   id="path20"
   d="m 602,85.7 c -0.5,2.8 -1.3,5.2 -2.5,7.4 -1.2,2.2 -2.6,4 -4.4,5.4 -1.7,1.5 -3.7,2.5 -5.9,3.3 -2.2,0.7 -4.6,1.1 -7.1,1.1 -1.9,0 -3.8,-0.2 -5.5,-0.7 -1.7,-0.5 -3.4,-1.1 -5,-2.1 -1.6,-0.9 -3,-2 -4.2,-3.2 -1.7,-1.8 -3,-3.7 -3.7,-5.7 -0.8,-2 -1.2,-4.2 -1.4,-6.6 -0.2,-2.4 -0.3,-5.8 -0.3,-10.2 0,-3.4 0,-6.1 0.1,-8.1 0.1,-2 0.3,-3.8 0.6,-5.5 0.3,-1.7 0.8,-3.2 1.6,-4.7 0.7,-1.5 1.8,-2.9 3.1,-4.2 1.9,-1.9 4.1,-3.4 6.6,-4.4 2.5,-1 5.1,-1.5 8,-1.5 5.2,0 9.6,1.5 13.1,4.5 3.5,3 5.8,7.2 6.7,12.8 h -8.6 c -0.7,-2.9 -2,-5.3 -3.9,-7 -1.9,-1.7 -4.4,-2.6 -7.3,-2.6 -1.6,0 -3.2,0.3 -4.6,0.9 -1.4,0.6 -2.6,1.4 -3.6,2.5 -0.7,0.8 -1.3,1.6 -1.7,2.5 -0.4,0.8 -0.7,1.9 -1,3.3 -0.3,1.4 -0.4,2.9 -0.5,4.6 -0.1,1.7 -0.1,4.1 -0.1,7.1 0,3 0,5.3 0.1,7 0.1,1.7 0.3,3.3 0.5,4.6 0.3,1.4 0.6,2.5 1,3.3 0.4,0.8 1,1.7 1.7,2.5 1,1.1 2.2,1.9 3.6,2.5 1.4,0.6 3,0.9 4.6,0.9 2,0 3.8,-0.4 5.3,-1.2 1.5,-0.8 2.8,-1.9 3.8,-3.4 1,-1.5 1.7,-3.1 2.2,-5 h 8.7 z"
   class="st1" />
            <rect
   style="fill:#000000"
   id="rect22"
   height="56"
   width="8.5"
   class="st1"
   y="46.5"
   x="611" />
            <path
   style="fill:#000000"
   inkscape:connector-curvature="0"
   id="path24"
   d="M 659.8,84 651.4,59.1 642.7,84 Z m 15.2,18.5 h -9 l -3.8,-11.3 h -22 l -3.8,11.3 h -9 l 20.4,-56 h 6.8 z"
   class="st1" />
            <polygon
   style="fill:#000000"
   id="polygon26"
   points="219.5,116.9 255.1,116.9 255.1,124.5 228,124.5 228,140.8 251.1,140.8 251.1,148.4 228,148.4 228,165.2 255.1,165.2 255.1,172.9 219.5,172.9 "
   class="st1" />
            <polygon
   style="fill:#000000"
   id="polygon28"
   points="272.9,133.5 272.9,172.9 264.4,172.9 264.4,116.9 272.2,116.9 297.9,156.2 297.9,116.9 306.3,116.9 306.3,172.9 298.6,172.9 "
   class="st1" />
            <path
   style="fill:#000000"
   inkscape:connector-curvature="0"
   id="path30"
   d="m 370.1,133.3 c 0,-2.7 -0.9,-4.9 -2.6,-6.5 -1.7,-1.6 -4,-2.4 -6.9,-2.4 H 348.1 V 142 h 12.5 c 2.8,0 5.1,-0.8 6.9,-2.3 1.7,-1.6 2.6,-3.7 2.6,-6.4 m 10.1,39.6 h -9.8 l -11.7,-23.6 h -10.5 v 23.6 h -8.5 v -56 h 21.6 c 3.4,0 6.4,0.7 9.1,2.1 2.6,1.4 4.7,3.3 6.1,5.8 1.4,2.5 2.1,5.3 2.1,8.5 0,3.8 -1,7.1 -3.1,9.6 -2.1,2.6 -4.7,4.3 -8,5.3 z"
   class="st1" />
            <polygon
   style="fill:#000000"
   id="polygon32"
   points="388.6,116.9 424.2,116.9 424.2,124.5 397.1,124.5 397.1,140.8 420.2,140.8 420.2,148.4 397.1,148.4 397.1,165.2 424.2,165.2 424.2,172.9 388.6,172.9 "
   class="st1" />
            <path
   style="fill:#000000"
   inkscape:connector-curvature="0"
   id="path34"
   d="m 464.7,144.5 c 0,-3.2 -0.1,-5.7 -0.2,-7.5 -0.1,-1.8 -0.4,-3.4 -0.8,-4.9 -0.4,-1.5 -1.1,-2.8 -2,-3.8 -2.3,-2.5 -5.4,-3.8 -9.5,-3.8 H 442 v 40.7 h 10.2 c 4,0 7.2,-1.2 9.5,-3.8 1.3,-1.5 2.2,-3.4 2.5,-5.9 0.3,-2.5 0.5,-6.2 0.5,-11 m 8.4,0 v 2.8 c 0,3 -0.1,5.7 -0.3,7.9 -0.2,2.3 -0.8,4.5 -1.6,6.6 -0.8,2.2 -2.1,4.1 -3.7,5.8 -3.5,3.5 -8.3,5.3 -14.4,5.3 h -19.6 v -56 h 19.6 c 6.1,0 10.9,1.8 14.4,5.3 1.7,1.7 2.9,3.5 3.7,5.6 0.8,2.1 1.4,4.2 1.6,6.3 0.2,2.1 0.3,4.7 0.3,7.6 z"
   class="st1" />
        </g>
    </g><g
   id="g52">
        <path
   style="fill:#f4cd45"
   inkscape:connector-curvature="0"
   id="path40"
   d="m 61.4,91.6 c 0,-4.1 2.4,-8.2 5.9,-10.2 L 82.5,72.6 65.5,43.1 38,59 C 31.6,62.6 27.3,70 27.3,77.4 v 31.8 h 34.1 z"
   class="st2" />
        <path
   style="fill:#53c1b4"
   inkscape:connector-curvature="0"
   id="path42"
   d="m 97.8,63.8 c 3.5,-2 8.2,-2 11.8,0 l 15.2,8.8 17,-29.5 -27.5,-15.9 c -6.4,-3.7 -14.9,-3.7 -21.3,0 l -27.5,15.9 17,29.5 z"
   class="st3" />
        <path
   style="fill:#3ca2da"
   inkscape:connector-curvature="0"
   id="path44"
   d="m 140,81.4 c 3.5,2 5.9,6.1 5.9,10.2 v 17.6 H 180 V 77.4 C 180,70 175.7,62.6 169.4,59 l -27.5,-15.9 -17,29.5 z"
   class="st4" />
        <path
   style="fill:#f27057"
   inkscape:connector-curvature="0"
   id="path46"
   d="m 67.3,137 c -3.5,-2 -5.9,-6.1 -5.9,-10.2 V 109.2 H 27.3 V 141 c 0,7.4 4.3,14.7 10.6,18.4 l 27.5,15.9 17,-29.5 z"
   class="st5" />
        <path
   style="fill:#ea1b3b"
   inkscape:connector-curvature="0"
   id="path48"
   d="m 109.5,154.5 c -3.5,2 -8.2,2 -11.8,0 l -15.2,-8.8 -17,29.5 27.5,15.9 c 6.4,3.7 14.9,3.7 21.3,0 l 27.5,-15.9 -17,-29.5 z"
   class="st6" />
        <path
   style="fill:#77549e"
   inkscape:connector-curvature="0"
   id="path50"
   d="m 145.9,109.2 v 17.6 c 0,4.1 -2.4,8.2 -5.9,10.2 l -15.2,8.8 17,29.5 27.5,-15.9 c 6.4,-3.7 10.6,-11.1 10.6,-18.4 v -31.8 z"
   class="st7" />
    </g><rect
   style="fill:#ffffff"
   id="rect54"
   height="3.9000001"
   width="162"
   class="st1"
   y="107.2"
   x="22.700001" /><rect
   style="fill:#ffffff;stroke-width:1.00000489"
   id="rect56"
   height="3.9000192"
   width="162.00079"
   class="st1"
   transform="rotate(-59.973695)"
   y="142.40157"
   x="-123.6002" /><rect
   style="fill:#ffffff;stroke-width:0.99996459"
   id="rect58"
   height="161.99426"
   width="3.8998621"
   class="st1"
   transform="rotate(-29.987939)"
   y="65.395561"
   x="33.255802" />
</svg>