<svg width="1017" height="78" viewBox="0 0 1017 78" fill="none" xmlns="http://www.w3.org/2000/svg">
<circle cx="187.882" cy="3.98898" r="3.98898" fill="#5CCBC9" fill-opacity="0.4"/>
<circle cx="796.201" cy="3.98898" r="3.98898" fill="#EC6961"/>
<circle cx="187.882" cy="15.9559" r="3.98898" fill="#5CCBC9" fill-opacity="0.4"/>
<circle cx="796.201" cy="15.9559" r="3.98898" fill="#EC6961"/>
<circle cx="187.882" cy="26.9256" r="3.98898" fill="#5CCBC9" fill-opacity="0.4"/>
<circle cx="796.201" cy="26.9256" r="3.98898" fill="#EC6961"/>
<circle cx="187.882" cy="38.8925" r="3.98898" fill="#5CCBC9" fill-opacity="0.4"/>
<circle cx="796.201" cy="38.8925" r="3.98898" fill="#EC6961"/>
<circle cx="187.882" cy="50.8595" r="3.98898" fill="#5CCBC9" fill-opacity="0.4"/>
<circle cx="796.201" cy="50.8595" r="3.98898" fill="#EC6961"/>
<circle cx="187.882" cy="62.8264" r="3.98898" fill="#5CCBC9" fill-opacity="0.4"/>
<circle cx="796.201" cy="62.8264" r="3.98898" fill="#EC6961"/>
<circle cx="187.882" cy="73.7961" r="3.98898" fill="#5CCBC9" fill-opacity="0.4"/>
<circle cx="796.201" cy="73.7961" r="3.98898" fill="#EC6961"/>
<circle cx="199.848" cy="3.98898" r="3.98898" fill="#5CCBC9" fill-opacity="0.4"/>
<circle cx="808.168" cy="3.98898" r="3.98898" fill="#EC6961"/>
<circle cx="199.848" cy="15.9559" r="3.98898" fill="#5CCBC9" fill-opacity="0.4"/>
<circle cx="808.168" cy="15.9559" r="3.98898" fill="#EC6961"/>
<circle cx="199.848" cy="26.9256" r="3.98898" fill="#5CCBC9" fill-opacity="0.4"/>
<circle cx="808.168" cy="26.9256" r="3.98898" fill="#EC6961"/>
<circle cx="199.848" cy="38.8925" r="3.98898" fill="#5CCBC9" fill-opacity="0.4"/>
<circle cx="808.168" cy="38.8925" r="3.98898" fill="#EC6961"/>
<circle cx="199.848" cy="50.8595" r="3.98898" fill="#5CCBC9" fill-opacity="0.4"/>
<circle cx="808.168" cy="50.8595" r="3.98898" fill="#EC6961"/>
<circle cx="199.848" cy="62.8264" r="3.98898" fill="#5CCBC9" fill-opacity="0.4"/>
<circle cx="808.168" cy="62.8264" r="3.98898" fill="#EC6961"/>
<circle cx="199.848" cy="73.7961" r="3.98898" fill="#5CCBC9" fill-opacity="0.4"/>
<circle cx="808.168" cy="73.7961" r="3.98898" fill="#EC6961"/>
<circle cx="210.818" cy="3.98898" r="3.98898" fill="#5CCBC9" fill-opacity="0.4"/>
<circle cx="819.138" cy="3.98898" r="3.98898" fill="#EC6961"/>
<circle cx="210.818" cy="15.9559" r="3.98898" fill="#5CCBC9" fill-opacity="0.4"/>
<circle cx="819.138" cy="15.9559" r="3.98898" fill="#EC6961"/>
<circle cx="210.818" cy="26.9256" r="3.98898" fill="#5CCBC9" fill-opacity="0.4"/>
<circle cx="819.138" cy="26.9256" r="3.98898" fill="#EC6961"/>
<circle cx="210.818" cy="38.8925" r="3.98898" fill="#5CCBC9" fill-opacity="0.4"/>
<circle cx="819.138" cy="38.8925" r="3.98898" fill="#EC6961"/>
<circle cx="210.818" cy="50.8595" r="3.98898" fill="#5CCBC9" fill-opacity="0.4"/>
<circle cx="819.138" cy="50.8595" r="3.98898" fill="#EC6961"/>
<circle cx="210.818" cy="62.8264" r="3.98898" fill="#5CCBC9" fill-opacity="0.4"/>
<circle cx="819.138" cy="62.8264" r="3.98898" fill="#EC6961"/>
<circle cx="210.818" cy="73.7961" r="3.98898" fill="#5CCBC9" fill-opacity="0.4"/>
<circle cx="819.138" cy="73.7961" r="3.98898" fill="#EC6961"/>
<circle cx="221.788" cy="3.98898" r="3.98898" fill="#5CCBC9" fill-opacity="0.4"/>
<circle cx="830.108" cy="3.98898" r="3.98898" fill="#EC6961"/>
<circle cx="221.788" cy="15.9559" r="3.98898" fill="#5CCBC9" fill-opacity="0.4"/>
<circle cx="830.108" cy="15.9559" r="3.98898" fill="#EC6961"/>
<circle cx="221.788" cy="26.9256" r="3.98898" fill="#5CCBC9" fill-opacity="0.4"/>
<circle cx="830.108" cy="26.9256" r="3.98898" fill="#EC6961"/>
<circle cx="221.788" cy="38.8925" r="3.98898" fill="#5CCBC9" fill-opacity="0.4"/>
<circle cx="830.108" cy="38.8925" r="3.98898" fill="#EC6961"/>
<circle cx="221.788" cy="50.8595" r="3.98898" fill="#5CCBC9" fill-opacity="0.4"/>
<circle cx="830.108" cy="50.8595" r="3.98898" fill="#EC6961"/>
<circle cx="221.788" cy="62.8264" r="3.98898" fill="#5CCBC9" fill-opacity="0.4"/>
<circle cx="830.108" cy="62.8264" r="3.98898" fill="#EC6961"/>
<circle cx="221.788" cy="73.7961" r="3.98898" fill="#5CCBC9" fill-opacity="0.4"/>
<circle cx="830.108" cy="73.7961" r="3.98898" fill="#EC6961"/>
<circle cx="233.755" cy="3.98898" r="3.98898" fill="#5CCBC9" fill-opacity="0.4"/>
<circle cx="842.074" cy="3.98898" r="3.98898" fill="#EC6961"/>
<circle cx="233.755" cy="15.9559" r="3.98898" fill="#5CCBC9" fill-opacity="0.4"/>
<circle cx="842.074" cy="15.9559" r="3.98898" fill="#EC6961"/>
<circle cx="233.755" cy="26.9256" r="3.98898" fill="#5CCBC9" fill-opacity="0.4"/>
<circle cx="842.074" cy="26.9256" r="3.98898" fill="#EC6961"/>
<circle cx="233.755" cy="38.8925" r="3.98898" fill="#5CCBC9" fill-opacity="0.4"/>
<circle cx="842.074" cy="38.8925" r="3.98898" fill="#EC6961"/>
<circle cx="233.755" cy="50.8595" r="3.98898" fill="#5CCBC9" fill-opacity="0.4"/>
<circle cx="842.074" cy="50.8595" r="3.98898" fill="#EC6961"/>
<circle cx="233.755" cy="62.8264" r="3.98898" fill="#5CCBC9" fill-opacity="0.4"/>
<circle cx="842.074" cy="62.8264" r="3.98898" fill="#EC6961"/>
<circle cx="233.755" cy="73.7961" r="3.98898" fill="#5CCBC9" fill-opacity="0.4"/>
<circle cx="842.074" cy="73.7961" r="3.98898" fill="#EC6961"/>
<circle cx="245.722" cy="3.98898" r="3.98898" fill="#5CCBC9" fill-opacity="0.4"/>
<circle cx="854.041" cy="3.98898" r="3.98898" fill="#EC6961"/>
<circle cx="245.722" cy="15.9559" r="3.98898" fill="#5CCBC9" fill-opacity="0.4"/>
<circle cx="854.041" cy="15.9559" r="3.98898" fill="#EC6961"/>
<circle cx="245.722" cy="26.9256" r="3.98898" fill="#5CCBC9" fill-opacity="0.4"/>
<circle cx="854.041" cy="26.9256" r="3.98898" fill="#EC6961"/>
<circle cx="245.722" cy="38.8925" r="3.98898" fill="#5CCBC9" fill-opacity="0.4"/>
<circle cx="854.041" cy="38.8925" r="3.98898" fill="#EC6961"/>
<circle cx="245.722" cy="50.8595" r="3.98898" fill="#5CCBC9" fill-opacity="0.4"/>
<circle cx="854.041" cy="50.8595" r="3.98898" fill="#EC6961"/>
<circle cx="245.722" cy="62.8264" r="3.98898" fill="#5CCBC9" fill-opacity="0.4"/>
<circle cx="854.041" cy="62.8264" r="3.98898" fill="#EC6961"/>
<circle cx="245.722" cy="73.7961" r="3.98898" fill="#5CCBC9" fill-opacity="0.4"/>
<circle cx="854.041" cy="73.7961" r="3.98898" fill="#EC6961"/>
<circle cx="256.691" cy="3.98898" r="3.98898" fill="#5CCBC9" fill-opacity="0.4"/>
<circle cx="865.011" cy="3.98898" r="3.98898" fill="#EC6961"/>
<circle cx="256.691" cy="15.9559" r="3.98898" fill="#5CCBC9" fill-opacity="0.4"/>
<circle cx="865.011" cy="15.9559" r="3.98898" fill="#EC6961"/>
<circle cx="256.691" cy="26.9256" r="3.98898" fill="#5CCBC9" fill-opacity="0.4"/>
<circle cx="865.011" cy="26.9256" r="3.98898" fill="#EC6961"/>
<circle cx="256.691" cy="38.8925" r="3.98898" fill="#5CCBC9" fill-opacity="0.4"/>
<circle cx="865.011" cy="38.8925" r="3.98898" fill="#EC6961"/>
<circle cx="256.691" cy="50.8595" r="3.98898" fill="#5CCBC9" fill-opacity="0.4"/>
<circle cx="865.011" cy="50.8595" r="3.98898" fill="#EC6961"/>
<circle cx="256.691" cy="62.8264" r="3.98898" fill="#5CCBC9" fill-opacity="0.4"/>
<circle cx="865.011" cy="62.8264" r="3.98898" fill="#EC6961"/>
<circle cx="256.691" cy="73.7961" r="3.98898" fill="#5CCBC9" fill-opacity="0.4"/>
<circle cx="865.011" cy="73.7961" r="3.98898" fill="#EC6961"/>
<circle cx="267.661" cy="3.98898" r="3.98898" fill="#5CCBC9" fill-opacity="0.4"/>
<circle cx="875.981" cy="3.98898" r="3.98898" fill="#EC6961"/>
<circle cx="267.661" cy="15.9559" r="3.98898" fill="#5CCBC9" fill-opacity="0.4"/>
<circle cx="875.981" cy="15.9559" r="3.98898" fill="#EC6961"/>
<circle cx="267.661" cy="26.9256" r="3.98898" fill="#5CCBC9" fill-opacity="0.4"/>
<circle cx="875.981" cy="26.9256" r="3.98898" fill="#EC6961"/>
<circle cx="267.661" cy="38.8925" r="3.98898" fill="#5CCBC9" fill-opacity="0.4"/>
<circle cx="875.981" cy="38.8925" r="3.98898" fill="#EC6961"/>
<circle cx="267.661" cy="50.8595" r="3.98898" fill="#5CCBC9" fill-opacity="0.4"/>
<circle cx="875.981" cy="50.8595" r="3.98898" fill="#EC6961"/>
<circle cx="267.661" cy="62.8264" r="3.98898" fill="#5CCBC9" fill-opacity="0.4"/>
<circle cx="875.981" cy="62.8264" r="3.98898" fill="#EC6961"/>
<circle cx="267.661" cy="73.7961" r="3.98898" fill="#5CCBC9" fill-opacity="0.4"/>
<circle cx="875.981" cy="73.7961" r="3.98898" fill="#EC6961"/>
<circle cx="279.628" cy="3.98898" r="3.98898" fill="#5CCBC9" fill-opacity="0.4"/>
<circle cx="887.947" cy="3.98898" r="3.98898" fill="#EC6961"/>
<circle cx="279.628" cy="15.9559" r="3.98898" fill="#5CCBC9" fill-opacity="0.4"/>
<circle cx="887.947" cy="15.9559" r="3.98898" fill="#EC6961"/>
<circle cx="279.628" cy="26.9256" r="3.98898" fill="#5CCBC9" fill-opacity="0.4"/>
<circle cx="887.947" cy="26.9256" r="3.98898" fill="#EC6961"/>
<circle cx="279.628" cy="38.8925" r="3.98898" fill="#5CCBC9" fill-opacity="0.4"/>
<circle cx="887.947" cy="38.8925" r="3.98898" fill="#EC6961"/>
<circle cx="279.628" cy="50.8595" r="3.98898" fill="#5CCBC9" fill-opacity="0.4"/>
<circle cx="887.947" cy="50.8595" r="3.98898" fill="#EC6961"/>
<circle cx="279.628" cy="62.8264" r="3.98898" fill="#5CCBC9" fill-opacity="0.4"/>
<circle cx="887.947" cy="62.8264" r="3.98898" fill="#EC6961"/>
<circle cx="279.628" cy="73.7961" r="3.98898" fill="#5CCBC9" fill-opacity="0.4"/>
<circle cx="887.947" cy="73.7961" r="3.98898" fill="#EC6961"/>
<circle cx="291.595" cy="3.98898" r="3.98898" fill="#5CCBC9" fill-opacity="0.4"/>
<circle cx="899.915" cy="3.98898" r="3.98898" fill="#EC6961"/>
<circle cx="291.595" cy="15.9559" r="3.98898" fill="#5CCBC9" fill-opacity="0.4"/>
<circle cx="899.915" cy="15.9559" r="3.98898" fill="#EC6961"/>
<circle cx="291.595" cy="26.9256" r="3.98898" fill="#5CCBC9" fill-opacity="0.4"/>
<circle cx="899.915" cy="26.9256" r="3.98898" fill="#EC6961"/>
<circle cx="291.595" cy="38.8925" r="3.98898" fill="#5CCBC9" fill-opacity="0.4"/>
<circle cx="899.915" cy="38.8925" r="3.98898" fill="#EC6961"/>
<circle cx="291.595" cy="50.8595" r="3.98898" fill="#5CCBC9" fill-opacity="0.4"/>
<circle cx="899.915" cy="50.8595" r="3.98898" fill="#EC6961"/>
<circle cx="291.595" cy="62.8264" r="3.98898" fill="#5CCBC9" fill-opacity="0.4"/>
<circle cx="899.915" cy="62.8264" r="3.98898" fill="#EC6961"/>
<circle cx="291.595" cy="73.7961" r="3.98898" fill="#5CCBC9" fill-opacity="0.4"/>
<circle cx="899.915" cy="73.7961" r="3.98898" fill="#EC6961"/>
<circle cx="302.565" cy="3.98898" r="3.98898" fill="#5CCBC9" fill-opacity="0.4"/>
<circle cx="910.884" cy="3.98898" r="3.98898" fill="#EC6961"/>
<circle cx="302.565" cy="15.9559" r="3.98898" fill="#5CCBC9" fill-opacity="0.4"/>
<circle cx="910.884" cy="15.9559" r="3.98898" fill="#EC6961"/>
<circle cx="302.565" cy="26.9256" r="3.98898" fill="#5CCBC9" fill-opacity="0.4"/>
<circle cx="910.884" cy="26.9256" r="3.98898" fill="#EC6961"/>
<circle cx="302.565" cy="38.8925" r="3.98898" fill="#5CCBC9" fill-opacity="0.4"/>
<circle cx="910.884" cy="38.8925" r="3.98898" fill="#EC6961"/>
<circle cx="302.565" cy="50.8595" r="3.98898" fill="#5CCBC9" fill-opacity="0.4"/>
<circle cx="910.884" cy="50.8595" r="3.98898" fill="#EC6961"/>
<circle cx="302.565" cy="62.8264" r="3.98898" fill="#5CCBC9" fill-opacity="0.4"/>
<circle cx="910.884" cy="62.8264" r="3.98898" fill="#EC6961"/>
<circle cx="302.565" cy="73.7961" r="3.98898" fill="#5CCBC9" fill-opacity="0.4"/>
<circle cx="910.884" cy="73.7961" r="3.98898" fill="#EC6961"/>
<circle cx="314.532" cy="3.98898" r="3.98898" fill="#5CCBC9" fill-opacity="0.4"/>
<circle cx="922.851" cy="3.98898" r="3.98898" fill="#EC6961"/>
<circle cx="314.532" cy="15.9559" r="3.98898" fill="#5CCBC9" fill-opacity="0.4"/>
<circle cx="922.851" cy="15.9559" r="3.98898" fill="#EC6961"/>
<circle cx="314.532" cy="26.9256" r="3.98898" fill="#5CCBC9" fill-opacity="0.4"/>
<circle cx="922.851" cy="26.9256" r="3.98898" fill="#EC6961"/>
<circle cx="314.532" cy="38.8925" r="3.98898" fill="#5CCBC9" fill-opacity="0.4"/>
<circle cx="922.851" cy="38.8925" r="3.98898" fill="#EC6961"/>
<circle cx="314.532" cy="50.8595" r="3.98898" fill="#5CCBC9" fill-opacity="0.4"/>
<circle cx="922.851" cy="50.8595" r="3.98898" fill="#EC6961"/>
<circle cx="314.532" cy="62.8264" r="3.98898" fill="#5CCBC9" fill-opacity="0.4"/>
<circle cx="922.851" cy="62.8264" r="3.98898" fill="#EC6961"/>
<circle cx="314.532" cy="73.7961" r="3.98898" fill="#5CCBC9" fill-opacity="0.4"/>
<circle cx="922.851" cy="73.7961" r="3.98898" fill="#EC6961"/>
<circle cx="325.501" cy="3.98898" r="3.98898" fill="#5CCBC9" fill-opacity="0.4"/>
<circle cx="933.821" cy="3.98898" r="3.98898" fill="#EC6961"/>
<circle cx="325.501" cy="15.9559" r="3.98898" fill="#5CCBC9" fill-opacity="0.4"/>
<circle cx="933.821" cy="15.9559" r="3.98898" fill="#EC6961"/>
<circle cx="325.501" cy="26.9256" r="3.98898" fill="#5CCBC9" fill-opacity="0.4"/>
<circle cx="933.821" cy="26.9256" r="3.98898" fill="#EC6961"/>
<circle cx="325.501" cy="38.8925" r="3.98898" fill="#5CCBC9" fill-opacity="0.4"/>
<circle cx="933.821" cy="38.8925" r="3.98898" fill="#EC6961"/>
<circle cx="325.501" cy="50.8595" r="3.98898" fill="#5CCBC9" fill-opacity="0.4"/>
<circle cx="933.821" cy="50.8595" r="3.98898" fill="#EC6961"/>
<circle cx="325.501" cy="62.8264" r="3.98898" fill="#5CCBC9" fill-opacity="0.4"/>
<circle cx="933.821" cy="62.8264" r="3.98898" fill="#EC6961"/>
<circle cx="325.501" cy="73.7961" r="3.98898" fill="#5CCBC9" fill-opacity="0.4"/>
<circle cx="933.821" cy="73.7961" r="3.98898" fill="#EC6961"/>
<circle cx="336.471" cy="3.98898" r="3.98898" fill="#5CCBC9" fill-opacity="0.4"/>
<circle cx="944.791" cy="3.98898" r="3.98898" fill="#EC6961"/>
<circle cx="336.471" cy="15.9559" r="3.98898" fill="#5CCBC9" fill-opacity="0.4"/>
<circle cx="944.791" cy="15.9559" r="3.98898" fill="#EC6961"/>
<circle cx="336.471" cy="26.9256" r="3.98898" fill="#5CCBC9" fill-opacity="0.4"/>
<circle cx="944.791" cy="26.9256" r="3.98898" fill="#EC6961"/>
<circle cx="336.471" cy="38.8925" r="3.98898" fill="#5CCBC9" fill-opacity="0.4"/>
<circle cx="944.791" cy="38.8925" r="3.98898" fill="#EC6961"/>
<circle cx="336.471" cy="50.8595" r="3.98898" fill="#5CCBC9" fill-opacity="0.4"/>
<circle cx="944.791" cy="50.8595" r="3.98898" fill="#EC6961"/>
<circle cx="336.471" cy="62.8264" r="3.98898" fill="#5CCBC9" fill-opacity="0.4"/>
<circle cx="944.791" cy="62.8264" r="3.98898" fill="#EC6961"/>
<circle cx="336.471" cy="73.7961" r="3.98898" fill="#5CCBC9" fill-opacity="0.4"/>
<circle cx="944.791" cy="73.7961" r="3.98898" fill="#EC6961"/>
<circle cx="348.438" cy="3.98898" r="3.98898" fill="#5CCBC9" fill-opacity="0.4"/>
<circle cx="956.758" cy="3.98898" r="3.98898" fill="#EC6961"/>
<circle cx="348.438" cy="15.9559" r="3.98898" fill="#5CCBC9" fill-opacity="0.4"/>
<circle cx="956.758" cy="15.9559" r="3.98898" fill="#EC6961"/>
<circle cx="348.438" cy="26.9256" r="3.98898" fill="#5CCBC9" fill-opacity="0.4"/>
<circle cx="956.758" cy="26.9256" r="3.98898" fill="#EC6961"/>
<circle cx="348.438" cy="38.8925" r="3.98898" fill="#5CCBC9" fill-opacity="0.4"/>
<circle cx="956.758" cy="38.8925" r="3.98898" fill="#EC6961"/>
<circle cx="348.438" cy="50.8595" r="3.98898" fill="#5CCBC9" fill-opacity="0.4"/>
<circle cx="956.758" cy="50.8595" r="3.98898" fill="#EC6961"/>
<circle cx="348.438" cy="62.8264" r="3.98898" fill="#5CCBC9" fill-opacity="0.4"/>
<circle cx="956.758" cy="62.8264" r="3.98898" fill="#EC6961"/>
<circle cx="348.438" cy="73.7961" r="3.98898" fill="#5CCBC9" fill-opacity="0.4"/>
<circle cx="956.758" cy="73.7961" r="3.98898" fill="#EC6961"/>
<circle cx="359.408" cy="3.98898" r="3.98898" fill="#5CCBC9" fill-opacity="0.4"/>
<circle cx="967.727" cy="3.98898" r="3.98898" fill="#EC6961"/>
<circle cx="359.408" cy="15.9559" r="3.98898" fill="#5CCBC9" fill-opacity="0.4"/>
<circle cx="967.727" cy="15.9559" r="3.98898" fill="#EC6961"/>
<circle cx="359.408" cy="26.9256" r="3.98898" fill="#5CCBC9" fill-opacity="0.4"/>
<circle cx="967.727" cy="26.9256" r="3.98898" fill="#EC6961"/>
<circle cx="359.408" cy="38.8925" r="3.98898" fill="#5CCBC9" fill-opacity="0.4"/>
<circle cx="967.727" cy="38.8925" r="3.98898" fill="#EC6961"/>
<circle cx="359.408" cy="50.8595" r="3.98898" fill="#5CCBC9" fill-opacity="0.4"/>
<circle cx="967.727" cy="50.8595" r="3.98898" fill="#EC6961"/>
<circle cx="359.408" cy="62.8264" r="3.98898" fill="#5CCBC9" fill-opacity="0.4"/>
<circle cx="967.727" cy="62.8264" r="3.98898" fill="#EC6961"/>
<circle cx="359.408" cy="73.7961" r="3.98898" fill="#5CCBC9" fill-opacity="0.4"/>
<circle cx="967.727" cy="73.7961" r="3.98898" fill="#EC6961"/>
<circle cx="370.377" cy="3.98898" r="3.98898" fill="#5CCBC9" fill-opacity="0.4"/>
<circle cx="978.697" cy="3.98898" r="3.98898" fill="#EC6961"/>
<circle cx="370.377" cy="15.9559" r="3.98898" fill="#5CCBC9" fill-opacity="0.4"/>
<circle cx="978.697" cy="15.9559" r="3.98898" fill="#EC6961"/>
<circle cx="370.377" cy="26.9256" r="3.98898" fill="#5CCBC9" fill-opacity="0.4"/>
<circle cx="978.697" cy="26.9256" r="3.98898" fill="#EC6961"/>
<circle cx="370.377" cy="38.8925" r="3.98898" fill="#5CCBC9" fill-opacity="0.4"/>
<circle cx="978.697" cy="38.8925" r="3.98898" fill="#EC6961"/>
<circle cx="370.377" cy="50.8595" r="3.98898" fill="#5CCBC9" fill-opacity="0.4"/>
<circle cx="978.697" cy="50.8595" r="3.98898" fill="#EC6961"/>
<circle cx="370.377" cy="62.8264" r="3.98898" fill="#5CCBC9" fill-opacity="0.4"/>
<circle cx="978.697" cy="62.8264" r="3.98898" fill="#EC6961"/>
<circle cx="370.377" cy="73.7961" r="3.98898" fill="#5CCBC9" fill-opacity="0.4"/>
<circle cx="978.697" cy="73.7961" r="3.98898" fill="#EC6961"/>
<circle cx="381.347" cy="3.98898" r="3.98898" fill="#5CCBC9" fill-opacity="0.4"/>
<circle cx="989.667" cy="3.98898" r="3.98898" fill="#EC6961"/>
<circle cx="1012.6" cy="3.98898" r="3.98898" fill="#EC6961"/>
<circle cx="381.347" cy="15.9559" r="3.98898" fill="#5CCBC9" fill-opacity="0.4"/>
<circle cx="989.667" cy="15.9559" r="3.98898" fill="#EC6961"/>
<circle cx="1012.6" cy="15.9559" r="3.98898" fill="#EC6961"/>
<circle cx="381.347" cy="26.9256" r="3.98898" fill="#5CCBC9" fill-opacity="0.4"/>
<circle cx="989.667" cy="26.9256" r="3.98898" fill="#EC6961"/>
<circle cx="1012.6" cy="26.9256" r="3.98898" fill="#EC6961"/>
<circle cx="381.347" cy="38.8925" r="3.98898" fill="#5CCBC9" fill-opacity="0.4"/>
<circle cx="989.667" cy="38.8925" r="3.98898" fill="#EC6961"/>
<circle cx="1012.6" cy="38.8925" r="3.98898" fill="#EC6961"/>
<circle cx="381.347" cy="50.8595" r="3.98898" fill="#5CCBC9" fill-opacity="0.4"/>
<circle cx="989.667" cy="50.8595" r="3.98898" fill="#EC6961"/>
<circle cx="1012.6" cy="50.8595" r="3.98898" fill="#EC6961"/>
<circle cx="381.347" cy="62.8264" r="3.98898" fill="#5CCBC9" fill-opacity="0.4"/>
<circle cx="989.667" cy="62.8264" r="3.98898" fill="#EC6961"/>
<circle cx="1012.6" cy="62.8264" r="3.98898" fill="#EC6961"/>
<circle cx="381.347" cy="73.7961" r="3.98898" fill="#5CCBC9" fill-opacity="0.4"/>
<circle cx="989.667" cy="73.7961" r="3.98898" fill="#EC6961"/>
<circle cx="1012.6" cy="73.7961" r="3.98898" fill="#EC6961"/>
<circle cx="393.314" cy="3.98898" r="3.98898" fill="#5CCBC9" fill-opacity="0.4"/>
<circle cx="1001.63" cy="3.98898" r="3.98898" fill="#EC6961"/>
<circle cx="393.314" cy="15.9559" r="3.98898" fill="#5CCBC9" fill-opacity="0.4"/>
<circle cx="1001.63" cy="15.9559" r="3.98898" fill="#EC6961"/>
<circle cx="393.314" cy="26.9256" r="3.98898" fill="#5CCBC9" fill-opacity="0.4"/>
<circle cx="1001.63" cy="26.9256" r="3.98898" fill="#EC6961"/>
<circle cx="393.314" cy="38.8925" r="3.98898" fill="#5CCBC9" fill-opacity="0.4"/>
<circle cx="1001.63" cy="38.8925" r="3.98898" fill="#EC6961"/>
<circle cx="393.314" cy="50.8595" r="3.98898" fill="#5CCBC9" fill-opacity="0.4"/>
<circle cx="1001.63" cy="50.8595" r="3.98898" fill="#EC6961"/>
<circle cx="393.314" cy="62.8264" r="3.98898" fill="#5CCBC9" fill-opacity="0.4"/>
<circle cx="1001.63" cy="62.8264" r="3.98898" fill="#EC6961"/>
<circle cx="393.314" cy="73.7961" r="3.98898" fill="#5CCBC9" fill-opacity="0.4"/>
<circle cx="1001.63" cy="73.7961" r="3.98898" fill="#EC6961"/>
<circle cx="405.281" cy="3.98898" r="3.98898" fill="#5CCBC9" fill-opacity="0.4"/>
<circle cx="405.281" cy="15.9559" r="3.98898" fill="#5CCBC9" fill-opacity="0.4"/>
<circle cx="405.281" cy="26.9256" r="3.98898" fill="#5CCBC9" fill-opacity="0.4"/>
<circle cx="405.281" cy="38.8925" r="3.98898" fill="#5CCBC9" fill-opacity="0.4"/>
<circle cx="405.281" cy="50.8595" r="3.98898" fill="#5CCBC9" fill-opacity="0.4"/>
<circle cx="405.281" cy="62.8264" r="3.98898" fill="#5CCBC9" fill-opacity="0.4"/>
<circle cx="405.281" cy="73.7961" r="3.98898" fill="#5CCBC9" fill-opacity="0.4"/>
<circle cx="417.248" cy="3.98898" r="3.98898" fill="#5CCBC9" fill-opacity="0.4"/>
<circle cx="417.248" cy="15.9559" r="3.98898" fill="#5CCBC9" fill-opacity="0.4"/>
<circle cx="417.248" cy="26.9256" r="3.98898" fill="#5CCBC9" fill-opacity="0.4"/>
<circle cx="417.248" cy="38.8925" r="3.98898" fill="#5CCBC9" fill-opacity="0.4"/>
<circle cx="417.248" cy="50.8595" r="3.98898" fill="#5CCBC9" fill-opacity="0.4"/>
<circle cx="417.248" cy="62.8264" r="3.98898" fill="#5CCBC9" fill-opacity="0.4"/>
<circle cx="417.248" cy="73.7961" r="3.98898" fill="#5CCBC9" fill-opacity="0.4"/>
<circle cx="428.217" cy="3.98898" r="3.98898" fill="#5CCBC9" fill-opacity="0.4"/>
<circle cx="428.217" cy="15.9559" r="3.98898" fill="#5CCBC9" fill-opacity="0.4"/>
<circle cx="428.217" cy="26.9256" r="3.98898" fill="#5CCBC9" fill-opacity="0.4"/>
<circle cx="428.217" cy="38.8925" r="3.98898" fill="#5CCBC9" fill-opacity="0.4"/>
<circle cx="428.217" cy="50.8595" r="3.98898" fill="#5CCBC9" fill-opacity="0.4"/>
<circle cx="428.217" cy="62.8264" r="3.98898" fill="#5CCBC9" fill-opacity="0.4"/>
<circle cx="428.217" cy="73.7961" r="3.98898" fill="#5CCBC9" fill-opacity="0.4"/>
<circle cx="439.187" cy="3.98898" r="3.98898" fill="#5CCBC9" fill-opacity="0.4"/>
<circle cx="439.187" cy="15.9559" r="3.98898" fill="#5CCBC9" fill-opacity="0.4"/>
<circle cx="439.187" cy="26.9256" r="3.98898" fill="#5CCBC9" fill-opacity="0.4"/>
<circle cx="439.187" cy="38.8925" r="3.98898" fill="#5CCBC9" fill-opacity="0.4"/>
<circle cx="439.187" cy="50.8595" r="3.98898" fill="#5CCBC9" fill-opacity="0.4"/>
<circle cx="439.187" cy="62.8264" r="3.98898" fill="#5CCBC9" fill-opacity="0.4"/>
<circle cx="439.187" cy="73.7961" r="3.98898" fill="#5CCBC9" fill-opacity="0.4"/>
<circle cx="451.154" cy="3.98898" r="3.98898" fill="#5CCBC9" fill-opacity="0.4"/>
<circle cx="451.154" cy="15.9559" r="3.98898" fill="#5CCBC9" fill-opacity="0.4"/>
<circle cx="451.154" cy="26.9256" r="3.98898" fill="#5CCBC9" fill-opacity="0.4"/>
<circle cx="451.154" cy="38.8925" r="3.98898" fill="#5CCBC9" fill-opacity="0.4"/>
<circle cx="451.154" cy="50.8595" r="3.98898" fill="#5CCBC9" fill-opacity="0.4"/>
<circle cx="451.154" cy="62.8264" r="3.98898" fill="#5CCBC9" fill-opacity="0.4"/>
<circle cx="451.154" cy="73.7961" r="3.98898" fill="#5CCBC9" fill-opacity="0.4"/>
<circle cx="462.124" cy="3.98898" r="3.98898" fill="#5CCBC9" fill-opacity="0.4"/>
<circle cx="462.124" cy="15.9559" r="3.98898" fill="#5CCBC9" fill-opacity="0.4"/>
<circle cx="462.124" cy="26.9256" r="3.98898" fill="#5CCBC9" fill-opacity="0.4"/>
<circle cx="462.124" cy="38.8925" r="3.98898" fill="#5CCBC9" fill-opacity="0.4"/>
<circle cx="462.124" cy="50.8595" r="3.98898" fill="#5CCBC9" fill-opacity="0.4"/>
<circle cx="462.124" cy="62.8264" r="3.98898" fill="#5CCBC9" fill-opacity="0.4"/>
<circle cx="462.124" cy="73.7961" r="3.98898" fill="#5CCBC9" fill-opacity="0.4"/>
<circle cx="474.091" cy="3.98898" r="3.98898" fill="#5CCBC9" fill-opacity="0.4"/>
<circle cx="474.091" cy="15.9559" r="3.98898" fill="#5CCBC9" fill-opacity="0.4"/>
<circle cx="474.091" cy="26.9256" r="3.98898" fill="#5CCBC9" fill-opacity="0.4"/>
<circle cx="474.091" cy="38.8925" r="3.98898" fill="#5CCBC9" fill-opacity="0.4"/>
<circle cx="474.091" cy="50.8595" r="3.98898" fill="#5CCBC9" fill-opacity="0.4"/>
<circle cx="474.091" cy="62.8264" r="3.98898" fill="#5CCBC9" fill-opacity="0.4"/>
<circle cx="474.091" cy="73.7961" r="3.98898" fill="#5CCBC9" fill-opacity="0.4"/>
<circle cx="485.061" cy="3.98898" r="3.98898" fill="#5CCBC9" fill-opacity="0.4"/>
<circle cx="485.061" cy="15.9559" r="3.98898" fill="#5CCBC9" fill-opacity="0.4"/>
<circle cx="485.061" cy="26.9256" r="3.98898" fill="#5CCBC9" fill-opacity="0.4"/>
<circle cx="485.061" cy="38.8925" r="3.98898" fill="#5CCBC9" fill-opacity="0.4"/>
<circle cx="485.061" cy="50.8595" r="3.98898" fill="#5CCBC9" fill-opacity="0.4"/>
<circle cx="485.061" cy="62.8264" r="3.98898" fill="#5CCBC9" fill-opacity="0.4"/>
<circle cx="485.061" cy="73.7961" r="3.98898" fill="#5CCBC9" fill-opacity="0.4"/>
<circle cx="497.028" cy="3.98898" r="3.98898" fill="#5CCBC9" fill-opacity="0.4"/>
<circle cx="497.028" cy="15.9559" r="3.98898" fill="#5CCBC9" fill-opacity="0.4"/>
<circle cx="497.028" cy="26.9256" r="3.98898" fill="#5CCBC9" fill-opacity="0.4"/>
<circle cx="497.028" cy="38.8925" r="3.98898" fill="#5CCBC9" fill-opacity="0.4"/>
<circle cx="497.028" cy="50.8595" r="3.98898" fill="#5CCBC9" fill-opacity="0.4"/>
<circle cx="497.028" cy="62.8264" r="3.98898" fill="#5CCBC9" fill-opacity="0.4"/>
<circle cx="497.028" cy="73.7961" r="3.98898" fill="#5CCBC9" fill-opacity="0.4"/>
<circle cx="507.997" cy="3.98898" r="3.98898" fill="#5CCBC9" fill-opacity="0.4"/>
<circle cx="507.997" cy="15.9559" r="3.98898" fill="#5CCBC9" fill-opacity="0.4"/>
<circle cx="507.997" cy="26.9256" r="3.98898" fill="#5CCBC9" fill-opacity="0.4"/>
<circle cx="507.997" cy="38.8925" r="3.98898" fill="#5CCBC9" fill-opacity="0.4"/>
<circle cx="507.997" cy="50.8595" r="3.98898" fill="#5CCBC9" fill-opacity="0.4"/>
<circle cx="507.997" cy="62.8264" r="3.98898" fill="#5CCBC9" fill-opacity="0.4"/>
<circle cx="507.997" cy="73.7961" r="3.98898" fill="#5CCBC9" fill-opacity="0.4"/>
<circle cx="519.964" cy="3.98898" r="3.98898" fill="#5CCBC9" fill-opacity="0.4"/>
<circle cx="519.964" cy="15.9559" r="3.98898" fill="#5CCBC9" fill-opacity="0.4"/>
<circle cx="519.964" cy="26.9256" r="3.98898" fill="#5CCBC9" fill-opacity="0.4"/>
<circle cx="519.964" cy="38.8925" r="3.98898" fill="#5CCBC9" fill-opacity="0.4"/>
<circle cx="519.964" cy="50.8595" r="3.98898" fill="#5CCBC9" fill-opacity="0.4"/>
<circle cx="519.964" cy="62.8264" r="3.98898" fill="#5CCBC9" fill-opacity="0.4"/>
<circle cx="519.964" cy="73.7961" r="3.98898" fill="#5CCBC9" fill-opacity="0.4"/>
<circle cx="530.934" cy="3.98898" r="3.98898" fill="#5CCBC9" fill-opacity="0.4"/>
<circle cx="107.105" cy="3.98898" r="3.98898" fill="#5CCBC9" fill-opacity="0.4"/>
<circle cx="715.424" cy="3.98898" r="3.98898" fill="#5CCBC9" fill-opacity="0.4"/>
<circle cx="530.934" cy="15.9559" r="3.98898" fill="#5CCBC9" fill-opacity="0.4"/>
<circle cx="107.105" cy="15.9559" r="3.98898" fill="#5CCBC9" fill-opacity="0.4"/>
<circle cx="715.424" cy="15.9559" r="3.98898" fill="#5CCBC9" fill-opacity="0.4"/>
<circle cx="530.934" cy="26.9256" r="3.98898" fill="#5CCBC9" fill-opacity="0.4"/>
<circle cx="107.105" cy="26.9256" r="3.98898" fill="#5CCBC9" fill-opacity="0.4"/>
<circle cx="715.424" cy="26.9256" r="3.98898" fill="#5CCBC9" fill-opacity="0.4"/>
<circle cx="530.934" cy="38.8925" r="3.98898" fill="#5CCBC9" fill-opacity="0.4"/>
<circle cx="107.105" cy="38.8925" r="3.98898" fill="#5CCBC9" fill-opacity="0.4"/>
<circle cx="715.424" cy="38.8925" r="3.98898" fill="#5CCBC9" fill-opacity="0.4"/>
<circle cx="530.934" cy="50.8595" r="3.98898" fill="#5CCBC9" fill-opacity="0.4"/>
<circle cx="107.105" cy="50.8595" r="3.98898" fill="#5CCBC9" fill-opacity="0.4"/>
<circle cx="715.424" cy="50.8595" r="3.98898" fill="#5CCBC9" fill-opacity="0.4"/>
<circle cx="530.934" cy="62.8264" r="3.98898" fill="#5CCBC9" fill-opacity="0.4"/>
<circle cx="107.105" cy="62.8264" r="3.98898" fill="#5CCBC9" fill-opacity="0.4"/>
<circle cx="715.424" cy="62.8264" r="3.98898" fill="#5CCBC9" fill-opacity="0.4"/>
<circle cx="530.934" cy="73.7961" r="3.98898" fill="#5CCBC9" fill-opacity="0.4"/>
<circle cx="107.105" cy="73.7961" r="3.98898" fill="#5CCBC9" fill-opacity="0.4"/>
<circle cx="715.424" cy="73.7961" r="3.98898" fill="#5CCBC9" fill-opacity="0.4"/>
<circle cx="542.901" cy="3.98898" r="3.98898" fill="#5CCBC9" fill-opacity="0.4"/>
<circle cx="118.074" cy="3.98898" r="3.98898" fill="#5CCBC9" fill-opacity="0.4"/>
<circle cx="726.394" cy="3.98898" r="3.98898" fill="#EC6961"/>
<circle cx="542.901" cy="15.9559" r="3.98898" fill="#5CCBC9" fill-opacity="0.4"/>
<circle cx="118.074" cy="15.9559" r="3.98898" fill="#5CCBC9" fill-opacity="0.4"/>
<circle cx="726.394" cy="15.9559" r="3.98898" fill="#EC6961"/>
<circle cx="542.901" cy="26.9256" r="3.98898" fill="#5CCBC9" fill-opacity="0.4"/>
<circle cx="118.074" cy="26.9256" r="3.98898" fill="#5CCBC9" fill-opacity="0.4"/>
<circle cx="726.394" cy="26.9256" r="3.98898" fill="#EC6961"/>
<circle cx="542.901" cy="38.8925" r="3.98898" fill="#5CCBC9" fill-opacity="0.4"/>
<circle cx="118.074" cy="38.8925" r="3.98898" fill="#5CCBC9" fill-opacity="0.4"/>
<circle cx="726.394" cy="38.8925" r="3.98898" fill="#EC6961"/>
<circle cx="542.901" cy="50.8595" r="3.98898" fill="#5CCBC9" fill-opacity="0.4"/>
<circle cx="118.074" cy="50.8595" r="3.98898" fill="#5CCBC9" fill-opacity="0.4"/>
<circle cx="726.394" cy="50.8595" r="3.98898" fill="#EC6961"/>
<circle cx="542.901" cy="62.8264" r="3.98898" fill="#5CCBC9" fill-opacity="0.4"/>
<circle cx="118.074" cy="62.8264" r="3.98898" fill="#5CCBC9" fill-opacity="0.4"/>
<circle cx="726.394" cy="62.8264" r="3.98898" fill="#EC6961"/>
<circle cx="542.901" cy="73.7961" r="3.98898" fill="#5CCBC9" fill-opacity="0.4"/>
<circle cx="118.074" cy="73.7961" r="3.98898" fill="#5CCBC9" fill-opacity="0.4"/>
<circle cx="726.394" cy="73.7961" r="3.98898" fill="#EC6961"/>
<circle cx="553.87" cy="3.98898" r="3.98898" fill="#5CCBC9" fill-opacity="0.4"/>
<circle cx="130.041" cy="3.98898" r="3.98898" fill="#5CCBC9" fill-opacity="0.4"/>
<circle cx="738.361" cy="3.98898" r="3.98898" fill="#EC6961"/>
<circle cx="553.87" cy="15.9559" r="3.98898" fill="#5CCBC9" fill-opacity="0.4"/>
<circle cx="130.041" cy="15.9559" r="3.98898" fill="#5CCBC9" fill-opacity="0.4"/>
<circle cx="738.361" cy="15.9559" r="3.98898" fill="#EC6961"/>
<circle cx="553.87" cy="26.9256" r="3.98898" fill="#5CCBC9" fill-opacity="0.4"/>
<circle cx="130.041" cy="26.9256" r="3.98898" fill="#5CCBC9" fill-opacity="0.4"/>
<circle cx="738.361" cy="26.9256" r="3.98898" fill="#EC6961"/>
<circle cx="553.87" cy="38.8925" r="3.98898" fill="#5CCBC9" fill-opacity="0.4"/>
<circle cx="130.041" cy="38.8925" r="3.98898" fill="#5CCBC9" fill-opacity="0.4"/>
<circle cx="738.361" cy="38.8925" r="3.98898" fill="#EC6961"/>
<circle cx="553.87" cy="50.8595" r="3.98898" fill="#5CCBC9" fill-opacity="0.4"/>
<circle cx="130.041" cy="50.8595" r="3.98898" fill="#5CCBC9" fill-opacity="0.4"/>
<circle cx="738.361" cy="50.8595" r="3.98898" fill="#EC6961"/>
<circle cx="553.87" cy="62.8264" r="3.98898" fill="#5CCBC9" fill-opacity="0.4"/>
<circle cx="130.041" cy="62.8264" r="3.98898" fill="#5CCBC9" fill-opacity="0.4"/>
<circle cx="738.361" cy="62.8264" r="3.98898" fill="#EC6961"/>
<circle cx="553.87" cy="73.7961" r="3.98898" fill="#5CCBC9" fill-opacity="0.4"/>
<circle cx="130.041" cy="73.7961" r="3.98898" fill="#5CCBC9" fill-opacity="0.4"/>
<circle cx="738.361" cy="73.7961" r="3.98898" fill="#EC6961"/>
<circle cx="565.838" cy="3.98898" r="3.98898" fill="#5CCBC9" fill-opacity="0.4"/>
<circle cx="142.008" cy="3.98898" r="3.98898" fill="#5CCBC9" fill-opacity="0.4"/>
<circle cx="750.328" cy="3.98898" r="3.98898" fill="#EC6961"/>
<circle cx="565.838" cy="15.9559" r="3.98898" fill="#5CCBC9" fill-opacity="0.4"/>
<circle cx="142.008" cy="15.9559" r="3.98898" fill="#5CCBC9" fill-opacity="0.4"/>
<circle cx="750.328" cy="15.9559" r="3.98898" fill="#EC6961"/>
<circle cx="565.838" cy="26.9256" r="3.98898" fill="#5CCBC9" fill-opacity="0.4"/>
<circle cx="142.008" cy="26.9256" r="3.98898" fill="#5CCBC9" fill-opacity="0.4"/>
<circle cx="750.328" cy="26.9256" r="3.98898" fill="#EC6961"/>
<circle cx="565.838" cy="38.8925" r="3.98898" fill="#5CCBC9" fill-opacity="0.4"/>
<circle cx="142.008" cy="38.8925" r="3.98898" fill="#5CCBC9" fill-opacity="0.4"/>
<circle cx="750.328" cy="38.8925" r="3.98898" fill="#EC6961"/>
<circle cx="565.838" cy="50.8595" r="3.98898" fill="#5CCBC9" fill-opacity="0.4"/>
<circle cx="142.008" cy="50.8595" r="3.98898" fill="#5CCBC9" fill-opacity="0.4"/>
<circle cx="750.328" cy="50.8595" r="3.98898" fill="#EC6961"/>
<circle cx="565.838" cy="62.8264" r="3.98898" fill="#5CCBC9" fill-opacity="0.4"/>
<circle cx="142.008" cy="62.8264" r="3.98898" fill="#5CCBC9" fill-opacity="0.4"/>
<circle cx="750.328" cy="62.8264" r="3.98898" fill="#EC6961"/>
<circle cx="565.838" cy="73.7961" r="3.98898" fill="#5CCBC9" fill-opacity="0.4"/>
<circle cx="142.008" cy="73.7961" r="3.98898" fill="#5CCBC9" fill-opacity="0.4"/>
<circle cx="750.328" cy="73.7961" r="3.98898" fill="#EC6961"/>
<circle cx="577.804" cy="3.98898" r="3.98898" fill="#5CCBC9" fill-opacity="0.4"/>
<circle cx="152.978" cy="3.98898" r="3.98898" fill="#5CCBC9" fill-opacity="0.4"/>
<circle cx="761.298" cy="3.98898" r="3.98898" fill="#EC6961"/>
<circle cx="577.804" cy="15.9559" r="3.98898" fill="#5CCBC9" fill-opacity="0.4"/>
<circle cx="152.978" cy="15.9559" r="3.98898" fill="#5CCBC9" fill-opacity="0.4"/>
<circle cx="761.298" cy="15.9559" r="3.98898" fill="#EC6961"/>
<circle cx="577.804" cy="26.9256" r="3.98898" fill="#5CCBC9" fill-opacity="0.4"/>
<circle cx="152.978" cy="26.9256" r="3.98898" fill="#5CCBC9" fill-opacity="0.4"/>
<circle cx="761.298" cy="26.9256" r="3.98898" fill="#EC6961"/>
<circle cx="577.804" cy="38.8925" r="3.98898" fill="#5CCBC9" fill-opacity="0.4"/>
<circle cx="152.978" cy="38.8925" r="3.98898" fill="#5CCBC9" fill-opacity="0.4"/>
<circle cx="761.298" cy="38.8925" r="3.98898" fill="#EC6961"/>
<circle cx="577.804" cy="50.8595" r="3.98898" fill="#5CCBC9" fill-opacity="0.4"/>
<circle cx="152.978" cy="50.8595" r="3.98898" fill="#5CCBC9" fill-opacity="0.4"/>
<circle cx="761.298" cy="50.8595" r="3.98898" fill="#EC6961"/>
<circle cx="577.804" cy="62.8264" r="3.98898" fill="#5CCBC9" fill-opacity="0.4"/>
<circle cx="152.978" cy="62.8264" r="3.98898" fill="#5CCBC9" fill-opacity="0.4"/>
<circle cx="761.298" cy="62.8264" r="3.98898" fill="#EC6961"/>
<circle cx="577.804" cy="73.7961" r="3.98898" fill="#5CCBC9" fill-opacity="0.4"/>
<circle cx="152.978" cy="73.7961" r="3.98898" fill="#5CCBC9" fill-opacity="0.4"/>
<circle cx="761.298" cy="73.7961" r="3.98898" fill="#EC6961"/>
<circle cx="589.771" cy="3.98898" r="3.98898" fill="#5CCBC9" fill-opacity="0.4"/>
<circle cx="164.945" cy="3.98898" r="3.98898" fill="#5CCBC9" fill-opacity="0.4"/>
<circle cx="773.264" cy="3.98898" r="3.98898" fill="#EC6961"/>
<circle cx="589.771" cy="15.9559" r="3.98898" fill="#5CCBC9" fill-opacity="0.4"/>
<circle cx="164.945" cy="15.9559" r="3.98898" fill="#5CCBC9" fill-opacity="0.4"/>
<circle cx="773.264" cy="15.9559" r="3.98898" fill="#EC6961"/>
<circle cx="589.771" cy="26.9256" r="3.98898" fill="#5CCBC9" fill-opacity="0.4"/>
<circle cx="164.945" cy="26.9256" r="3.98898" fill="#5CCBC9" fill-opacity="0.4"/>
<circle cx="773.264" cy="26.9256" r="3.98898" fill="#EC6961"/>
<circle cx="589.771" cy="38.8925" r="3.98898" fill="#5CCBC9" fill-opacity="0.4"/>
<circle cx="164.945" cy="38.8925" r="3.98898" fill="#5CCBC9" fill-opacity="0.4"/>
<circle cx="773.264" cy="38.8925" r="3.98898" fill="#EC6961"/>
<circle cx="589.771" cy="50.8595" r="3.98898" fill="#5CCBC9" fill-opacity="0.4"/>
<circle cx="164.945" cy="50.8595" r="3.98898" fill="#5CCBC9" fill-opacity="0.4"/>
<circle cx="773.264" cy="50.8595" r="3.98898" fill="#EC6961"/>
<circle cx="589.771" cy="62.8264" r="3.98898" fill="#5CCBC9" fill-opacity="0.4"/>
<circle cx="164.945" cy="62.8264" r="3.98898" fill="#5CCBC9" fill-opacity="0.4"/>
<circle cx="773.264" cy="62.8264" r="3.98898" fill="#EC6961"/>
<circle cx="589.771" cy="73.7961" r="3.98898" fill="#5CCBC9" fill-opacity="0.4"/>
<circle cx="164.945" cy="73.7961" r="3.98898" fill="#5CCBC9" fill-opacity="0.4"/>
<circle cx="773.264" cy="73.7961" r="3.98898" fill="#EC6961"/>
<circle cx="600.741" cy="3.98898" r="3.98898" fill="#5CCBC9" fill-opacity="0.4"/>
<circle cx="176.912" cy="3.98898" r="3.98898" fill="#5CCBC9" fill-opacity="0.4"/>
<circle cx="785.231" cy="3.98898" r="3.98898" fill="#EC6961"/>
<circle cx="600.741" cy="15.9559" r="3.98898" fill="#5CCBC9" fill-opacity="0.4"/>
<circle cx="176.912" cy="15.9559" r="3.98898" fill="#5CCBC9" fill-opacity="0.4"/>
<circle cx="785.231" cy="15.9559" r="3.98898" fill="#EC6961"/>
<circle cx="600.741" cy="26.9256" r="3.98898" fill="#5CCBC9" fill-opacity="0.4"/>
<circle cx="176.912" cy="26.9256" r="3.98898" fill="#5CCBC9" fill-opacity="0.4"/>
<circle cx="785.231" cy="26.9256" r="3.98898" fill="#EC6961"/>
<circle cx="600.741" cy="38.8925" r="3.98898" fill="#5CCBC9" fill-opacity="0.4"/>
<circle cx="176.912" cy="38.8925" r="3.98898" fill="#5CCBC9" fill-opacity="0.4"/>
<circle cx="785.231" cy="38.8925" r="3.98898" fill="#EC6961"/>
<circle cx="600.741" cy="50.8595" r="3.98898" fill="#5CCBC9" fill-opacity="0.4"/>
<circle cx="176.912" cy="50.8595" r="3.98898" fill="#5CCBC9" fill-opacity="0.4"/>
<circle cx="785.231" cy="50.8595" r="3.98898" fill="#EC6961"/>
<circle cx="600.741" cy="62.8264" r="3.98898" fill="#5CCBC9" fill-opacity="0.4"/>
<circle cx="176.912" cy="62.8264" r="3.98898" fill="#5CCBC9" fill-opacity="0.4"/>
<circle cx="785.231" cy="62.8264" r="3.98898" fill="#EC6961"/>
<circle cx="600.741" cy="73.7961" r="3.98898" fill="#5CCBC9" fill-opacity="0.4"/>
<circle cx="176.912" cy="73.7961" r="3.98898" fill="#5CCBC9" fill-opacity="0.4"/>
<circle cx="785.231" cy="73.7961" r="3.98898" fill="#EC6961"/>
<circle cx="4.38839" cy="3.98898" r="3.98898" fill="#5CCBC9" fill-opacity="0.4"/>
<circle cx="612.708" cy="3.98898" r="3.98898" fill="#5CCBC9" fill-opacity="0.4"/>
<circle cx="4.38839" cy="15.9559" r="3.98898" fill="#5CCBC9" fill-opacity="0.4"/>
<circle cx="612.708" cy="15.9559" r="3.98898" fill="#5CCBC9" fill-opacity="0.4"/>
<circle cx="4.38839" cy="26.9256" r="3.98898" fill="#5CCBC9" fill-opacity="0.4"/>
<circle cx="612.708" cy="26.9256" r="3.98898" fill="#5CCBC9" fill-opacity="0.4"/>
<circle cx="4.38839" cy="38.8925" r="3.98898" fill="#5CCBC9" fill-opacity="0.4"/>
<circle cx="612.708" cy="38.8925" r="3.98898" fill="#5CCBC9" fill-opacity="0.4"/>
<circle cx="4.38839" cy="50.8595" r="3.98898" fill="#5CCBC9" fill-opacity="0.4"/>
<circle cx="612.708" cy="50.8595" r="3.98898" fill="#5CCBC9" fill-opacity="0.4"/>
<circle cx="4.38839" cy="62.8264" r="3.98898" fill="#5CCBC9" fill-opacity="0.4"/>
<circle cx="612.708" cy="62.8264" r="3.98898" fill="#5CCBC9" fill-opacity="0.4"/>
<circle cx="4.38839" cy="73.7961" r="3.98898" fill="#5CCBC9" fill-opacity="0.4"/>
<circle cx="612.708" cy="73.7961" r="3.98898" fill="#5CCBC9" fill-opacity="0.4"/>
<circle cx="16.3554" cy="3.98898" r="3.98898" fill="#5CCBC9" fill-opacity="0.4"/>
<circle cx="624.675" cy="3.98898" r="3.98898" fill="#5CCBC9" fill-opacity="0.4"/>
<circle cx="16.3554" cy="15.9559" r="3.98898" fill="#5CCBC9" fill-opacity="0.4"/>
<circle cx="624.675" cy="15.9559" r="3.98898" fill="#5CCBC9" fill-opacity="0.4"/>
<circle cx="16.3554" cy="26.9256" r="3.98898" fill="#5CCBC9" fill-opacity="0.4"/>
<circle cx="624.675" cy="26.9256" r="3.98898" fill="#5CCBC9" fill-opacity="0.4"/>
<circle cx="16.3554" cy="38.8925" r="3.98898" fill="#5CCBC9" fill-opacity="0.4"/>
<circle cx="624.675" cy="38.8925" r="3.98898" fill="#5CCBC9" fill-opacity="0.4"/>
<circle cx="16.3554" cy="50.8595" r="3.98898" fill="#5CCBC9" fill-opacity="0.4"/>
<circle cx="624.675" cy="50.8595" r="3.98898" fill="#5CCBC9" fill-opacity="0.4"/>
<circle cx="16.3554" cy="62.8264" r="3.98898" fill="#5CCBC9" fill-opacity="0.4"/>
<circle cx="624.675" cy="62.8264" r="3.98898" fill="#5CCBC9" fill-opacity="0.4"/>
<circle cx="16.3554" cy="73.7961" r="3.98898" fill="#5CCBC9" fill-opacity="0.4"/>
<circle cx="624.675" cy="73.7961" r="3.98898" fill="#5CCBC9" fill-opacity="0.4"/>
<circle cx="27.3252" cy="3.98898" r="3.98898" fill="#5CCBC9" fill-opacity="0.4"/>
<circle cx="635.645" cy="3.98898" r="3.98898" fill="#5CCBC9" fill-opacity="0.4"/>
<circle cx="27.3252" cy="15.9559" r="3.98898" fill="#5CCBC9" fill-opacity="0.4"/>
<circle cx="635.645" cy="15.9559" r="3.98898" fill="#5CCBC9" fill-opacity="0.4"/>
<circle cx="27.3252" cy="26.9256" r="3.98898" fill="#5CCBC9" fill-opacity="0.4"/>
<circle cx="635.645" cy="26.9256" r="3.98898" fill="#5CCBC9" fill-opacity="0.4"/>
<circle cx="27.3252" cy="38.8925" r="3.98898" fill="#5CCBC9" fill-opacity="0.4"/>
<circle cx="635.645" cy="38.8925" r="3.98898" fill="#5CCBC9" fill-opacity="0.4"/>
<circle cx="27.3252" cy="50.8595" r="3.98898" fill="#5CCBC9" fill-opacity="0.4"/>
<circle cx="635.645" cy="50.8595" r="3.98898" fill="#5CCBC9" fill-opacity="0.4"/>
<circle cx="27.3252" cy="62.8264" r="3.98898" fill="#5CCBC9" fill-opacity="0.4"/>
<circle cx="635.645" cy="62.8264" r="3.98898" fill="#5CCBC9" fill-opacity="0.4"/>
<circle cx="27.3252" cy="73.7961" r="3.98898" fill="#5CCBC9" fill-opacity="0.4"/>
<circle cx="635.645" cy="73.7961" r="3.98898" fill="#5CCBC9" fill-opacity="0.4"/>
<circle cx="38.2946" cy="3.98898" r="3.98898" fill="#5CCBC9" fill-opacity="0.4"/>
<circle cx="646.614" cy="3.98898" r="3.98898" fill="#5CCBC9" fill-opacity="0.4"/>
<circle cx="38.2946" cy="15.9559" r="3.98898" fill="#5CCBC9" fill-opacity="0.4"/>
<circle cx="646.614" cy="15.9559" r="3.98898" fill="#5CCBC9" fill-opacity="0.4"/>
<circle cx="38.2946" cy="26.9256" r="3.98898" fill="#5CCBC9" fill-opacity="0.4"/>
<circle cx="646.614" cy="26.9256" r="3.98898" fill="#5CCBC9" fill-opacity="0.4"/>
<circle cx="38.2946" cy="38.8925" r="3.98898" fill="#5CCBC9" fill-opacity="0.4"/>
<circle cx="646.614" cy="38.8925" r="3.98898" fill="#5CCBC9" fill-opacity="0.4"/>
<circle cx="38.2946" cy="50.8595" r="3.98898" fill="#5CCBC9" fill-opacity="0.4"/>
<circle cx="646.614" cy="50.8595" r="3.98898" fill="#5CCBC9" fill-opacity="0.4"/>
<circle cx="38.2946" cy="62.8264" r="3.98898" fill="#5CCBC9" fill-opacity="0.4"/>
<circle cx="646.614" cy="62.8264" r="3.98898" fill="#5CCBC9" fill-opacity="0.4"/>
<circle cx="38.2946" cy="73.7961" r="3.98898" fill="#5CCBC9" fill-opacity="0.4"/>
<circle cx="646.614" cy="73.7961" r="3.98898" fill="#5CCBC9" fill-opacity="0.4"/>
<circle cx="50.2617" cy="3.98898" r="3.98898" fill="#5CCBC9" fill-opacity="0.4"/>
<circle cx="658.581" cy="3.98898" r="3.98898" fill="#5CCBC9" fill-opacity="0.4"/>
<circle cx="50.2617" cy="15.9559" r="3.98898" fill="#5CCBC9" fill-opacity="0.4"/>
<circle cx="658.581" cy="15.9559" r="3.98898" fill="#5CCBC9" fill-opacity="0.4"/>
<circle cx="50.2617" cy="26.9256" r="3.98898" fill="#5CCBC9" fill-opacity="0.4"/>
<circle cx="658.581" cy="26.9256" r="3.98898" fill="#5CCBC9" fill-opacity="0.4"/>
<circle cx="50.2617" cy="38.8925" r="3.98898" fill="#5CCBC9" fill-opacity="0.4"/>
<circle cx="658.581" cy="38.8925" r="3.98898" fill="#5CCBC9" fill-opacity="0.4"/>
<circle cx="50.2617" cy="50.8595" r="3.98898" fill="#5CCBC9" fill-opacity="0.4"/>
<circle cx="658.581" cy="50.8595" r="3.98898" fill="#5CCBC9" fill-opacity="0.4"/>
<circle cx="50.2617" cy="62.8264" r="3.98898" fill="#5CCBC9" fill-opacity="0.4"/>
<circle cx="658.581" cy="62.8264" r="3.98898" fill="#5CCBC9" fill-opacity="0.4"/>
<circle cx="50.2617" cy="73.7961" r="3.98898" fill="#5CCBC9" fill-opacity="0.4"/>
<circle cx="658.581" cy="73.7961" r="3.98898" fill="#5CCBC9" fill-opacity="0.4"/>
<circle cx="62.2287" cy="3.98898" r="3.98898" fill="#5CCBC9" fill-opacity="0.4"/>
<circle cx="670.548" cy="3.98898" r="3.98898" fill="#5CCBC9" fill-opacity="0.4"/>
<circle cx="62.2287" cy="15.9559" r="3.98898" fill="#5CCBC9" fill-opacity="0.4"/>
<circle cx="670.548" cy="15.9559" r="3.98898" fill="#5CCBC9" fill-opacity="0.4"/>
<circle cx="62.2287" cy="26.9256" r="3.98898" fill="#5CCBC9" fill-opacity="0.4"/>
<circle cx="670.548" cy="26.9256" r="3.98898" fill="#5CCBC9" fill-opacity="0.4"/>
<circle cx="62.2287" cy="38.8925" r="3.98898" fill="#5CCBC9" fill-opacity="0.4"/>
<circle cx="670.548" cy="38.8925" r="3.98898" fill="#5CCBC9" fill-opacity="0.4"/>
<circle cx="62.2287" cy="50.8595" r="3.98898" fill="#5CCBC9" fill-opacity="0.4"/>
<circle cx="670.548" cy="50.8595" r="3.98898" fill="#5CCBC9" fill-opacity="0.4"/>
<circle cx="62.2287" cy="62.8264" r="3.98898" fill="#5CCBC9" fill-opacity="0.4"/>
<circle cx="670.548" cy="62.8264" r="3.98898" fill="#5CCBC9" fill-opacity="0.4"/>
<circle cx="62.2287" cy="73.7961" r="3.98898" fill="#5CCBC9" fill-opacity="0.4"/>
<circle cx="670.548" cy="73.7961" r="3.98898" fill="#5CCBC9" fill-opacity="0.4"/>
<circle cx="73.1985" cy="3.98898" r="3.98898" fill="#5CCBC9" fill-opacity="0.4"/>
<circle cx="681.518" cy="3.98898" r="3.98898" fill="#5CCBC9" fill-opacity="0.4"/>
<circle cx="73.1985" cy="15.9559" r="3.98898" fill="#5CCBC9" fill-opacity="0.4"/>
<circle cx="681.518" cy="15.9559" r="3.98898" fill="#5CCBC9" fill-opacity="0.4"/>
<circle cx="73.1985" cy="26.9256" r="3.98898" fill="#5CCBC9" fill-opacity="0.4"/>
<circle cx="681.518" cy="26.9256" r="3.98898" fill="#5CCBC9" fill-opacity="0.4"/>
<circle cx="73.1985" cy="38.8925" r="3.98898" fill="#5CCBC9" fill-opacity="0.4"/>
<circle cx="681.518" cy="38.8925" r="3.98898" fill="#5CCBC9" fill-opacity="0.4"/>
<circle cx="73.1985" cy="50.8595" r="3.98898" fill="#5CCBC9" fill-opacity="0.4"/>
<circle cx="681.518" cy="50.8595" r="3.98898" fill="#5CCBC9" fill-opacity="0.4"/>
<circle cx="73.1985" cy="62.8264" r="3.98898" fill="#5CCBC9" fill-opacity="0.4"/>
<circle cx="681.518" cy="62.8264" r="3.98898" fill="#5CCBC9" fill-opacity="0.4"/>
<circle cx="73.1985" cy="73.7961" r="3.98898" fill="#5CCBC9" fill-opacity="0.4"/>
<circle cx="681.518" cy="73.7961" r="3.98898" fill="#5CCBC9" fill-opacity="0.4"/>
<circle cx="84.1679" cy="3.98898" r="3.98898" fill="#5CCBC9" fill-opacity="0.4"/>
<circle cx="692.487" cy="3.98898" r="3.98898" fill="#5CCBC9" fill-opacity="0.4"/>
<circle cx="84.1679" cy="15.9559" r="3.98898" fill="#5CCBC9" fill-opacity="0.4"/>
<circle cx="692.487" cy="15.9559" r="3.98898" fill="#5CCBC9" fill-opacity="0.4"/>
<circle cx="84.1679" cy="26.9256" r="3.98898" fill="#5CCBC9" fill-opacity="0.4"/>
<circle cx="692.487" cy="26.9256" r="3.98898" fill="#5CCBC9" fill-opacity="0.4"/>
<circle cx="84.1679" cy="38.8925" r="3.98898" fill="#5CCBC9" fill-opacity="0.4"/>
<circle cx="692.487" cy="38.8925" r="3.98898" fill="#5CCBC9" fill-opacity="0.4"/>
<circle cx="84.1679" cy="50.8595" r="3.98898" fill="#5CCBC9" fill-opacity="0.4"/>
<circle cx="692.487" cy="50.8595" r="3.98898" fill="#5CCBC9" fill-opacity="0.4"/>
<circle cx="84.1679" cy="62.8264" r="3.98898" fill="#5CCBC9" fill-opacity="0.4"/>
<circle cx="692.487" cy="62.8264" r="3.98898" fill="#5CCBC9" fill-opacity="0.4"/>
<circle cx="84.1679" cy="73.7961" r="3.98898" fill="#5CCBC9" fill-opacity="0.4"/>
<circle cx="692.487" cy="73.7961" r="3.98898" fill="#5CCBC9" fill-opacity="0.4"/>
<circle cx="95.1377" cy="3.98898" r="3.98898" fill="#5CCBC9" fill-opacity="0.4"/>
<circle cx="703.457" cy="3.98898" r="3.98898" fill="#5CCBC9" fill-opacity="0.4"/>
<circle cx="95.1377" cy="15.9559" r="3.98898" fill="#5CCBC9" fill-opacity="0.4"/>
<circle cx="703.457" cy="15.9559" r="3.98898" fill="#5CCBC9" fill-opacity="0.4"/>
<circle cx="95.1377" cy="26.9256" r="3.98898" fill="#5CCBC9" fill-opacity="0.4"/>
<circle cx="703.457" cy="26.9256" r="3.98898" fill="#5CCBC9" fill-opacity="0.4"/>
<circle cx="95.1377" cy="38.8925" r="3.98898" fill="#5CCBC9" fill-opacity="0.4"/>
<circle cx="703.457" cy="38.8925" r="3.98898" fill="#5CCBC9" fill-opacity="0.4"/>
<circle cx="95.1377" cy="50.8595" r="3.98898" fill="#5CCBC9" fill-opacity="0.4"/>
<circle cx="703.457" cy="50.8595" r="3.98898" fill="#5CCBC9" fill-opacity="0.4"/>
<circle cx="95.1377" cy="62.8264" r="3.98898" fill="#5CCBC9" fill-opacity="0.4"/>
<circle cx="703.457" cy="62.8264" r="3.98898" fill="#5CCBC9" fill-opacity="0.4"/>
<circle cx="95.1377" cy="73.7961" r="3.98898" fill="#5CCBC9" fill-opacity="0.4"/>
<circle cx="703.457" cy="73.7961" r="3.98898" fill="#5CCBC9" fill-opacity="0.4"/>
</svg>
