<svg xmlns="http://www.w3.org/2000/svg" width="326" height="241" fill="none" viewBox="0 0 326 241">
    <path fill="#EC6961" fill-opacity=".5" d="M151 73H210V224H151zM120 119H141V224H120zM241 161H262V224H241z"/>
    <circle r="21" fill="#EC6961" transform="matrix(-1 0 0 1 26 208)"/>
    <ellipse fill="#D9BE00" rx="21" ry="20.5" transform="matrix(-1 0 0 1 101 85.5)"/>
    <circle r="21" fill="#79C45E" transform="matrix(-1 0 0 1 191 39)"/>
    <ellipse cx="277" cy="132" fill="#E29231" rx="20" ry="21"/>
    <path fill="#360303" d="M229.905 85.852c-1.294 0-2.157.863-2.157 2.158v133.764h-72.06V88.009c0-1.294-.863-2.157-2.158-2.157-1.294 0-2.157.862-2.157 2.157v135.922c0 1.294.862 2.158 2.157 2.158h76.375c1.295 0 2.158-.864 2.158-2.158V88.009c0-1.294-.863-2.157-2.158-2.157zM138.644 128.354c-1.294 0-2.158.863-2.158 2.158v91.263h-72.06v-91.263c0-1.294-.864-2.158-2.158-2.158s-2.157.863-2.157 2.158v93.42c0 1.294.863 2.158 2.157 2.158h76.376c1.079 0 2.157-.864 2.157-2.158v-93.42c0-1.294-.862-2.158-2.157-2.158z"/>
    <path fill="#360303" d="M229.905 73.122h-76.376c-3.667 0-6.472 2.804-6.472 6.257v4.315c0 3.667 2.804 6.472 6.472 6.472h55.232c1.294 0 2.158-.863 2.158-2.157s-.863-2.158-2.158-2.158h-55.232c-1.078 0-2.157-1.078-2.157-2.157v-4.315c0-1.078.863-1.942 2.157-1.942h76.376c1.294 0 2.157.863 2.157 1.942v4.315c0 1.294-1.078 2.158-2.157 2.158h-4.315c-1.295 0-2.158.863-2.158 2.157 0 1.295.863 2.158 2.158 2.158h4.315c3.668 0 6.472-2.805 6.472-6.473V79.38c0-3.452-3.02-6.257-6.472-6.257zM319.011 170.857c-1.294 0-2.158.863-2.158 2.158v48.759h-72.061v-48.759c0-1.294-.863-2.158-2.157-2.158-1.295 0-2.158.863-2.158 2.158v50.917c0 1.294.863 2.158 2.158 2.158h76.376c1.294 0 2.157-.864 2.157-2.158v-50.917c0-1.294-.863-2.158-2.157-2.158zM138.643 115.625H62.268c-3.668 0-6.473 2.804-6.473 6.257v4.315c0 3.667 3.02 6.472 6.473 6.472H117.5c1.294 0 2.157-.863 2.157-2.157s-.862-2.158-2.157-2.158H62.268c-1.078 0-2.157-1.078-2.157-2.157v-4.315c0-1.079 1.078-1.942 2.157-1.942h76.375c1.295 0 2.158.862 2.158 1.942v4.315c0 1.294-1.078 2.157-2.158 2.157h-4.315c-1.294 0-2.157.864-2.157 2.158s.862 2.157 2.157 2.157h4.315c3.452 0 6.473-2.804 6.473-6.472v-4.315c0-3.453-3.021-6.257-6.473-6.257z"/>
    <path fill="#360303" d="M319.011 158.127h-76.376c-3.451 0-6.472 3.02-6.472 6.473v4.315c0 3.451 2.804 6.257 6.472 6.257h55.232c1.294 0 2.158-.863 2.158-2.158 0-1.294-.863-2.157-2.158-2.157h-55.232c-1.294 0-2.157-.863-2.157-1.942V164.6c0-1.079 1.078-2.158 2.157-2.158h76.376c1.079 0 2.158 1.079 2.158 2.158v4.315c0 1.078-.863 1.942-2.158 1.942h-4.315c-1.294 0-2.157.862-2.157 2.157 0 1.294.862 2.158 2.157 2.158h4.315c3.668 0 6.472-2.805 6.472-6.257V164.6c0-3.668-3.021-6.473-6.472-6.473z"/>
    <path fill="#1D1D1D" d="M91.875 83.625c2.05 0 3.75-1.64 3.75-3.75 0-2.05-1.7-3.75-3.75-3.75-.059 0-.117.059-.176.059.059.234.176.644.176.937 0 1.523-1.29 2.813-2.813 2.813-.293 0-.703-.118-.937-.176v.117c0 2.11 1.64 3.75 3.75 3.75zm16.641-2.695c-3.164-6.211-9.493-10.43-16.641-10.43-7.207 0-13.535 4.219-16.7 10.43-.116.234-.175.586-.175.879 0 .234.059.585.176.82C78.34 88.839 84.668 93 91.875 93c7.148 0 13.477-4.16 16.641-10.371.117-.235.175-.586.175-.879 0-.234-.058-.586-.175-.82zm-16.641-8.555c4.102 0 7.5 3.398 7.5 7.5 0 4.16-3.398 7.5-7.5 7.5-4.16 0-7.5-3.34-7.5-7.5 0-4.102 3.34-7.441 7.5-7.5zm0 18.75c-6.328 0-12.07-3.574-15-9.375 1.406-2.754 4.805-6.152 7.559-7.559-1.23 1.582-1.934 3.575-1.934 5.684 0 5.215 4.16 9.375 9.375 9.375 5.156 0 9.375-4.16 9.375-9.375 0-2.11-.762-4.102-1.992-5.684 2.754 1.407 6.152 4.805 7.617 7.559-2.988 5.8-8.73 9.375-15 9.375zM181.875 34.625c2.051 0 3.75-1.64 3.75-3.75 0-2.05-1.699-3.75-3.75-3.75-.059 0-.117.059-.176.059.059.234.176.644.176.937 0 1.524-1.289 2.813-2.813 2.813-.292 0-.703-.118-.937-.176v.117c0 2.11 1.641 3.75 3.75 3.75zm16.641-2.695c-3.164-6.211-9.493-10.43-16.641-10.43-7.207 0-13.535 4.219-16.699 10.43-.117.234-.176.586-.176.879 0 .234.059.586.176.82C168.34 39.839 174.668 44 181.875 44c7.148 0 13.477-4.16 16.641-10.371.117-.234.175-.586.175-.879 0-.234-.058-.586-.175-.82zm-16.641-8.555c4.102 0 7.5 3.398 7.5 7.5 0 4.16-3.398 7.5-7.5 7.5-4.16 0-7.5-3.34-7.5-7.5 0-4.102 3.34-7.441 7.5-7.5zm0 18.75c-6.328 0-12.07-3.574-15-9.375 1.406-2.754 4.805-6.152 7.559-7.559-1.231 1.582-1.934 3.575-1.934 5.684 0 5.215 4.16 9.375 9.375 9.375 5.156 0 9.375-4.16 9.375-9.375 0-2.11-.762-4.102-1.992-5.684 2.754 1.407 6.152 4.805 7.617 7.559-2.988 5.8-8.73 9.375-15 9.375z"/>
    <path fill="#000" d="M274.875 134.625c2.051 0 3.75-1.641 3.75-3.75 0-2.051-1.699-3.75-3.75-3.75-.059 0-.117.059-.176.059.059.234.176.644.176.937 0 1.524-1.289 2.813-2.813 2.813-.292 0-.703-.118-.937-.176v.117c0 2.109 1.641 3.75 3.75 3.75zm16.641-2.695c-3.164-6.211-9.493-10.43-16.641-10.43-7.207 0-13.535 4.219-16.699 10.43-.117.234-.176.586-.176.879 0 .234.059.586.176.82C261.34 139.84 267.668 144 274.875 144c7.148 0 13.477-4.16 16.641-10.371.117-.234.175-.586.175-.879 0-.234-.058-.586-.175-.82zm-16.641-8.555c4.102 0 7.5 3.398 7.5 7.5 0 4.16-3.398 7.5-7.5 7.5-4.16 0-7.5-3.34-7.5-7.5 0-4.102 3.34-7.441 7.5-7.5zm0 18.75c-6.328 0-12.07-3.574-15-9.375 1.406-2.754 4.805-6.152 7.559-7.559-1.231 1.582-1.934 3.575-1.934 5.684 0 5.215 4.16 9.375 9.375 9.375 5.156 0 9.375-4.16 9.375-9.375 0-2.109-.762-4.102-1.992-5.684 2.754 1.407 6.152 4.805 7.617 7.559-2.988 5.801-8.73 9.375-15 9.375z"/>
    <path fill="#1D1D1D" d="M16.875 209.625c2.05 0 3.75-1.641 3.75-3.75 0-2.051-1.7-3.75-3.75-3.75-.059 0-.117.059-.176.059.059.234.176.644.176.937 0 1.524-1.29 2.813-2.813 2.813-.292 0-.703-.118-.937-.176v.117c0 2.109 1.64 3.75 3.75 3.75zm16.64-2.695c-3.163-6.211-9.492-10.43-16.64-10.43-7.207 0-13.535 4.219-16.7 10.43-.116.234-.175.586-.175.879 0 .234.059.586.176.82C3.34 214.84 9.668 219 16.875 219c7.148 0 13.477-4.16 16.64-10.371.118-.234.176-.586.176-.879 0-.234-.058-.586-.175-.82zm-16.64-8.555c4.102 0 7.5 3.398 7.5 7.5 0 4.16-3.398 7.5-7.5 7.5-4.16 0-7.5-3.34-7.5-7.5 0-4.102 3.34-7.441 7.5-7.5zm0 18.75c-6.328 0-12.07-3.574-15-9.375 1.406-2.754 4.805-6.152 7.559-7.559-1.23 1.582-1.934 3.575-1.934 5.684 0 5.215 4.16 9.375 9.375 9.375 5.156 0 9.375-4.16 9.375-9.375 0-2.109-.762-4.102-1.992-5.684 2.754 1.407 6.152 4.805 7.617 7.559-2.988 5.801-8.73 9.375-15 9.375z"/>
</svg>
